<svg xmlns="http://www.w3.org/2000/svg" width="300" height="300" style="background:#fff" viewBox="0 0 300 300">
  <g fill="none" fill-rule="evenodd" transform="translate(62 54)">
    <path fill="#0083CE" d="M41.0783365,0 C72.2565995,-1.00649356e-13 82,24.7889908 82,37.4140247 L82,101.060728 L75.9588503,107.6597 L82,115.442058 L82,136.778259 L82,139.291334 C78.4730915,138.877011 76.7096373,139.260235 76.7096373,140.441006 C76.7096373,142.931723 76.459375,148.056892 75.9588503,155.816514 C75.9588503,162.450058 75.0928705,170.686139 73.3609109,180.524758 C66.3391649,188.432132 55.2771309,193 41.0649912,193 C15.5017294,193 0.142748785,174.841485 0,155.976808 C0.0829837914,155.996806 0.0936064454,116.466072 0.0318679619,37.3846071 C0.0228047192,25.7754054 9.90007356,1.06752599e-13 41.0783365,0 Z M10.2051017,47.330296 C10.2051017,52.2695511 14.235563,56.2729563 19.2081981,56.2729554 C24.1799213,56.2729554 28.2103827,52.2695502 28.2103827,47.330296 C28.2103827,42.3910417 24.1799213,38.3876365 19.2081981,38.3876365 C14.235563,38.3876365 10.2051017,42.3910417 10.2051017,47.330296 Z M70.4604531,159.293374 C71.6342947,142.279581 70.7550532,125.127178 70.7550532,107.745568 C50.7149324,107.745568 31.3096146,107.745568 11.966319,107.745568 C11.966319,125.380844 10.8143679,142.800504 12.341182,159.990051 C13.5031657,173.05389 27.7570804,182.493012 41.5321562,182.240251 C55.0892456,181.992926 69.6103992,171.634262 70.4604531,159.293374 Z M63.7530509,56.2729563 C68.725686,56.2729563 72.7561473,52.2695511 72.7561473,47.3302968 C72.7561473,42.3910426 68.725686,38.3876374 63.7530509,38.3876374 C58.7813277,38.3876374 54.7508663,42.3910426 54.7508663,47.3302968 C54.7508663,52.2695511 58.7813277,56.2729563 63.7530509,56.2729563 Z"/>
    <path fill="#E72318" d="M142.564007,33 C168.038929,33 176,53.5504587 176,64.016808 C176,80.482187 176,92.8312213 176,101.063911 C176,103.098896 168.941232,103.33731 168.941232,106.557969 C168.941232,108.095965 171.294155,111.503613 176,116.780914 L171.063939,122.251565 L176,128.703261 L176,138.624544 C172.903648,139.380593 171.258295,139.972735 171.063939,140.40097 C171.063939,146.208207 171.063939,149.400852 171.063939,149.978906 C171.063939,152.043749 171.063939,156.108884 171.063939,162.174312 C171.063939,167.673623 170.35637,174.501463 168.941232,182.657831 C163.203952,189.213166 154.165461,193 142.553103,193 C121.666047,193 109.116636,177.946309 109,162.307198 C109.067804,162.323777 109.076483,129.552184 109.026038,63.9924204 C109.018633,54.3682118 117.089084,33 142.564007,33 Z M117.338315,72.2375511 C117.338315,76.3322703 120.631497,79.6511555 124.694503,79.6511547 C128.756765,79.6511547 132.049947,76.3322696 132.049947,72.2375511 C132.049947,68.1428325 128.756765,64.8239474 124.694503,64.8239474 C120.631497,64.8239474 117.338315,68.1428325 117.338315,72.2375511 Z M166.571346,165.056683 C167.53046,150.951984 166.812056,136.732375 166.812056,122.32275 C150.437811,122.32275 134.582246,122.32275 118.777358,122.32275 C118.777358,136.942669 117.83613,151.383837 119.083649,165.634239 C120.033074,176.464365 131.679566,184.289544 142.934811,184.080001 C154.011945,183.874965 165.87679,175.287471 166.571346,165.056683 Z M161.090907,79.6511555 C165.153914,79.6511555 168.447096,76.3322703 168.447096,72.2375518 C168.447096,68.1428333 165.153914,64.8239481 161.090907,64.8239481 C157.028646,64.8239481 153.735464,68.1428333 153.735464,72.2375518 C153.735464,76.3322703 157.028646,79.6511555 161.090907,79.6511555 Z" transform="matrix(-1 0 0 1 285 0)"/>
    <path fill="#F9B906" d="M95,74 C108.807119,74 120,85.1928813 120,99 L120,168 C120,181.807119 108.807119,193 95,193 C81.1928813,193 70,181.807119 70,168 L70,99 C70,85.1928813 81.1928813,74 95,74 Z M112.49065,172.098249 C113.194981,161.831562 112.667417,151.481233 112.667417,140.992593 C100.6429,140.992593 88.9992798,140.992593 77.3928741,140.992593 C77.3928741,151.634304 76.7016779,162.145904 77.6178002,172.518648 C78.3150161,180.401802 86.8676806,186.097681 95.1330311,185.945157 C103.267585,185.795912 111.980599,179.545151 112.49065,172.098249 Z M78.0357143,108.047222 C78.0357143,110.29897 79.8844659,112.124074 82.1653877,112.124074 C84.4458913,112.124074 86.2946429,110.298969 86.2946429,108.047222 C86.2946429,105.795475 84.4458913,103.97037 82.1653877,103.97037 C79.8844659,103.97037 78.0357143,105.795475 78.0357143,108.047222 Z M108.950684,112.124074 C111.231606,112.124074 113.080357,110.298969 113.080357,108.047222 C113.080357,105.795475 111.231606,103.97037 108.950684,103.97037 C106.67018,103.97037 104.821429,105.795475 104.821429,108.047222 C104.821429,110.298969 106.67018,112.124074 108.950684,112.124074 Z"/>
  </g>
</svg>
