<svg xmlns="http://www.w3.org/2000/svg" width="300" height="300" style="background:#fff" viewBox="0 0 300 300">
  <path d="M27.8201689,134.589297 C33.8030006,152.220431 46.8255468,166.56589 63.772367,174.193746 C80.7191871,181.821602 100.065833,182.045694 117.183923,174.812411 C125.167391,171.457283 132.307806,166.603873 138.464657,160.444269 C144.621507,154.284664 149.437136,147.113399 152.796579,139.109755 C156.270985,130.824383 158.059282,122.065195 158.059282,113.024279 C158.059282,103.983362 156.309306,95.172951 152.796579,86.9388022 C149.449909,78.9351581 144.608734,71.7766989 138.464657,65.6042887 C132.320579,59.4318786 125.167391,54.6040804 117.183923,51.236147 C108.951379,47.7444652 100.103175,45.9459659 91.1642019,45.947339 C82.0183403,45.947339 72.8852523,47.7913786 64.7740484,51.236147 C58.2723115,54.0022064 47.2487381,61.0838305 40.8236427,67.768474 L40.7853218,67.8068914 L40.7853218,12.5753448 L133.278595,12.5753448 C136.625265,12.5369273 136.625265,7.81157584 136.625265,6.28768204 C136.625265,4.72537077 136.625265,0.0512426487 133.227501,1.92923106e-05 L33.2361541,1.92923106e-05 C30.8213746,-0.00707982942 28.856123,1.94595617 28.842053,4.36680747 L28.842053,82.0469749 C28.842053,84.5697235 31.958799,86.3753456 34.8711683,86.9644137 C40.5426245,88.1681617 41.8199793,86.3625397 43.2122964,84.4416652 L43.4166732,84.1983545 C45.5370824,81.0353143 52.1154605,74.3890884 52.2048753,74.3122533 C62.4838113,63.995413 76.453306,58.2311729 90.9981458,58.3049653 C105.649407,58.3049653 119.380973,63.9907541 129.676454,74.3122533 C139.959158,84.5344575 145.736114,98.4554014 145.720033,112.973055 C145.769217,127.482146 140.018543,141.406275 129.753096,151.633857 C119.384315,161.893765 105.400799,167.644854 90.8320897,167.641145 C81.1129459,167.68444 71.5702416,165.039053 63.2539958,159.996065 L63.2923166,112.768162 C63.2923166,106.480499 66.0130828,99.6037685 70.598787,94.4430188 C75.7070348,88.5728627 83.1129168,85.2252481 90.883184,85.2740442 C98.4706725,85.2740442 105.572766,88.155356 110.886563,93.3929407 C116.110945,98.5921078 119.023314,105.55848 119.023314,112.96025 C119.085699,120.461004 116.1332,127.671073 110.831748,132.964239 C105.530297,138.257405 98.3263921,141.187865 90.8448633,141.094659 C87.8047585,141.094659 82.2610379,139.737241 82.0183405,139.698823 C78.824953,138.738386 77.4709567,143.182009 77.0238824,144.65468 C75.3122267,150.302051 77.9052574,151.416158 78.4161994,151.582634 C83.4872987,153.183363 86.8339687,153.465091 91.2280698,153.465091 C113.572543,153.436869 131.679298,135.284356 131.707449,112.883415 C131.707449,90.6781048 113.543461,72.6218837 91.2663904,72.6218837 C80.3322318,72.6218837 70.0750715,76.8221962 62.3598474,84.3904418 C55.0150564,91.6385419 50.825332,101.281332 50.825332,110.885705 L50.825332,111.129016 C50.7870114,112.332764 50.7870114,140.659261 50.7486908,149.943488 L50.71037,149.90507 C46.5206456,145.256554 42.3692421,138.136512 39.6101553,130.849995 C38.5371772,128.0071 36.0974291,128.493722 32.7890798,129.530994 C31.1923861,129.966392 26.798285,131.336616 27.7946219,134.576491 L27.8201689,134.589297 Z M75.363321,123.512254 C75.363321,124.869672 76.6023554,126.07342 77.3559949,126.752129 L77.5986922,126.99544 C78.8760473,128.237605 80.0767609,128.877897 81.1880598,128.877897 C81.8089942,128.89853 82.4120833,128.667761 82.8613947,128.237605 C83.4234309,127.712566 89.7207908,121.271234 90.372242,120.669359 L97.4360149,127.712566 C98.0746923,128.429693 98.7900112,128.839479 99.6330655,128.839479 C100.757138,128.839479 101.983399,128.16077 103.260754,126.84177 C106.300858,123.717147 104.780806,122.039583 104.065487,121.232816 L96.9250729,114.074357 L104.384826,106.544529 C106.01984,104.79013 104.589203,102.907673 103.145792,101.460614 C101.076477,99.3860694 99.0327085,98.8226126 97.7553537,100.026361 L90.3339214,107.466548 L82.8230741,99.93672 C82.440509,99.5522565 81.9213483,99.3357768 81.3796629,99.334846 C80.3833261,99.334846 79.1826123,100.013555 77.8669368,101.332555 C75.5549243,103.650411 75.0695294,105.25114 76.2702432,106.531723 L83.7810903,114.010328 L76.3213372,121.488933 C75.6443391,122.129224 75.3250003,122.807933 75.363321,123.486642 L75.363321,123.512254 Z M91.6879175,21.9492128 C79.7063278,21.9492128 66.932778,24.3951264 57.5953133,28.4289629 C56.6187774,28.795618 55.9483945,29.7034236 55.8836578,30.7468182 C55.8413738,32.2342476 56.1430361,33.7113072 56.7650325,35.062383 C57.3653893,36.5478594 58.8854417,40.5048609 61.8744525,39.3395304 C71.3942253,35.675916 81.4912863,33.7502842 91.6879175,33.6537418 C102.51897,33.6429815 113.242481,35.8070372 123.225812,40.0182395 C131.17096,43.3861729 138.630713,48.2651943 146.780238,55.3084009 C147.290859,55.785241 147.960183,56.0545601 148.657949,56.0639449 C150.254643,56.0639449 151.774695,54.5016337 153.090371,53.0289632 C155.249101,50.5830496 156.75638,48.5469227 154.610423,46.5107955 C146.805581,39.1239358 137.713081,33.2379413 127.785969,29.1460895 C116.351995,24.372441 104.086511,21.9218503 91.7006911,21.9364069 L91.6879175,21.9492128 Z M156.232664,170.291952 C154.789253,168.844894 153.562992,168.012515 152.477241,167.692369 C151.391489,167.372223 150.407926,167.615534 149.641513,168.371078 L148.926194,169.088204 C125.678478,192.447326 90.6130339,199.318025 60.3033059,186.45291 C50.696156,182.379931 41.9649369,176.483531 34.5901504,169.088204 C27.1392125,161.761347 21.2469401,152.996441 17.2692168,143.322873 C13.5904344,134.192316 12.4024944,127.354003 11.9937409,125.112983 C11.9554203,124.908089 11.9170997,124.754419 11.9170995,124.639167 C11.3933839,122.001166 8.96640951,121.796272 5.49200403,122.359729 C4.06136649,122.60304 -0.371055226,123.281749 0.0249246344,126.444789 L0.0249246344,126.521624 C3.10983272,145.899971 12.2310792,163.80307 26.0829662,177.668111 C43.4950673,195.166163 67.1360718,205 91.790106,205 C116.44414,205 140.085145,195.166163 157.497246,177.668111 L158.250885,176.912567 C159.13226,175.836877 159.962541,174.031255 156.219891,170.304758 L156.232664,170.291952 Z" transform="translate(70 48)"/>
</svg>
