<svg xmlns="http://www.w3.org/2000/svg" width="300" height="300" style="background:#fff" viewBox="0 0 300 300">
  <g fill="none" fill-rule="evenodd" transform="translate(47 43)">
    <path fill="#F9A501" d="M181.57524,176.262437 C182.76823,175.785396 183.800967,175.665021 184.673452,175.901312 C185.545937,176.137604 185.982179,176.835333 185.982179,177.9945 C185.982179,179.153667 185.385685,180.486708 184.192695,181.993625 C183.159958,183.268708 181.410536,185.000771 178.944431,187.189812 C176.478326,189.378854 172.683462,192.085062 167.559838,195.308437 C162.436215,198.531812 156.831835,201.476542 150.746698,204.142625 C144.661561,206.808708 137.189796,209.118125 128.331403,211.070875 C119.47301,213.023625 110.351982,214 100.968317,214 C91.5089783,214 82.0496393,212.765042 72.5903002,210.295125 C63.1309612,207.825208 54.8245487,204.780167 47.6710626,201.16 C40.5175766,197.539833 33.662338,193.400271 27.1053466,188.741313 C20.5483553,184.082354 15.2822856,179.902667 11.3071376,176.20225 C7.33198951,172.501833 3.99339924,169.017646 1.29136676,165.749688 C0.654808826,165.031896 0.256403701,164.374292 0.0961513878,163.776875 C-0.0641009252,163.179459 -0.0240378469,162.702417 0.216340623,162.34575 C0.456719092,161.989083 0.774998061,161.710438 1.17117753,161.509813 C1.567357,161.309188 2.02363101,161.228938 2.53999958,161.269063 C3.05636814,161.309188 3.51264216,161.487521 3.90882163,161.804063 C19.1728562,171.117521 31.0960749,177.724771 39.6784775,181.625813 C70.5982746,195.638354 102.354945,199.220625 134.948489,192.372625 C150.052271,189.189375 165.592296,183.814854 181.568563,176.249063 L181.57524,176.262437 Z"/>
    <path fill="#F9A501" d="M206.260776,162.533 C207.133261,163.808083 207.233419,166.574479 206.56125,170.832187 C205.88908,175.089896 204.756185,179.169271 203.162565,183.070312 C200.460532,189.677562 197.081879,194.612937 193.026605,197.876437 C191.673363,198.991021 190.640625,199.349917 189.928393,198.953125 C189.21616,198.556333 189.21616,197.600021 189.928393,196.084187 C191.597688,192.499687 193.367141,187.662396 195.236751,181.572312 C197.106362,175.482229 197.364546,171.561125 196.011304,169.809 C195.615125,169.251708 194.998598,168.794729 194.161725,168.438062 C193.324852,168.081396 192.252051,167.842875 190.943324,167.7225 C189.634597,167.602125 188.461639,167.501813 187.42445,167.421562 C186.387261,167.341312 184.996182,167.341312 183.251212,167.421562 C181.506242,167.501813 180.253158,167.582063 179.49196,167.662312 C178.730761,167.742562 177.497708,167.862937 175.792802,168.023437 C174.087895,168.183937 173.193153,168.264187 173.108575,168.264187 C172.63227,168.344437 172.115901,168.404625 171.559469,168.44475 C171.003037,168.484875 170.566795,168.525 170.250742,168.565125 C169.934689,168.60525 169.596378,168.645375 169.23581,168.6855 C168.875242,168.725625 168.597027,168.745687 168.401163,168.745687 L167.205947,168.745687 C167.205947,168.745687 167.085758,168.725625 166.84538,168.6855 C166.605001,168.645375 166.524875,168.585187 166.605001,168.504937 L166.424717,168.143812 C165.948412,166.868729 167.815797,165.277104 172.026872,163.368937 C176.237947,161.460771 180.331058,160.265937 184.306207,159.784437 C187.96085,159.227146 192.254277,159.187021 197.186488,159.664062 C202.118698,160.141104 205.13901,161.097416 206.247422,162.533 L206.260776,162.533 Z"/>
    <path fill="#000" d="M159.280135,109.628187 C159.280135,112.098104 159.816535,114.646042 160.889335,117.272 C161.962135,119.897958 163.233025,122.207375 164.702005,124.20025 C166.170985,126.193125 167.662222,128.023271 169.175716,129.690687 C170.689211,131.358104 172.000164,132.630958 173.108575,133.50925 L174.657681,134.82 L147.588392,161.57 C144.410054,158.623042 141.269553,155.618125 138.16689,152.55525 C135.064227,149.492375 132.758374,147.162896 131.249331,145.566812 L128.985767,143.179375 C128.113282,142.305542 127.120608,140.992562 126.007744,139.240437 C122.985207,143.939521 119.110217,148.018896 114.382773,151.478562 C109.655329,154.938229 104.587349,157.466104 99.178833,159.062187 C93.7703167,160.658271 88.2059997,161.574458 82.4858818,161.81075 C76.765764,162.047042 71.3016046,161.211104 66.0934038,159.302938 C60.8852029,157.394771 56.215628,154.786646 52.0846791,151.478563 C47.9537301,148.170479 44.6552029,143.672021 42.1890975,137.983188 C39.722992,132.294354 38.4899394,125.825312 38.4899395,118.576063 C38.4899395,111.888563 39.6028029,105.758354 41.8285298,100.185438 C44.0542566,94.6125211 46.9165413,89.9758545 50.4153839,86.2754377 C53.9142265,82.5750209 58.1475589,79.2713959 63.1153812,76.3645626 C68.0832034,73.4577293 72.9530937,71.1884377 77.7250521,69.5566876 C82.4970104,67.9249375 87.6629224,66.5517708 93.222788,65.4371876 C98.7826537,64.3226044 103.532355,63.5869795 107.471891,63.2303127 C111.411428,62.8736459 115.366544,62.6150626 119.337241,62.4545628 L119.337241,47.2873127 C119.337241,42.1111878 118.502593,38.2502711 116.833298,35.7045626 C114.131266,31.4869792 109.32147,29.3781876 102.403911,29.3781876 C101.927606,29.3781876 101.271016,29.4183125 100.434143,29.4985625 C99.5972698,29.5788125 97.9880693,30.0558542 95.6065416,30.9296876 C93.2250139,31.8035209 90.9992871,32.9782918 88.9293611,34.4540001 C86.8594351,35.9297084 84.6337082,38.2993125 82.2521805,41.5628126 C79.8706528,44.8263126 77.9632049,48.6471042 76.5298369,53.0251875 L41.4746393,49.8018124 C41.4746393,45.0269374 42.3493499,40.2899583 44.0987711,35.5908749 C45.8481923,30.8917916 48.5101616,26.3933333 52.0846791,22.0954999 C55.6591965,17.7976665 59.9526235,14.0169999 64.9649602,10.7535 C69.9772968,7.49000008 75.9978879,4.88187512 83.0267334,2.92912507 C90.0555789,0.976375023 97.6275015,-9.90289158e-16 105.742501,0 C113.692798,0 120.886347,0.994208354 127.323149,2.98262506 C133.759951,4.97104177 138.908057,7.41866676 142.767467,10.3255 C146.626878,13.2323333 149.845279,16.5359583 152.42267,20.2363751 C155.000062,23.9367919 156.789546,27.3607919 157.791123,30.5083751 C158.792701,33.6559584 159.289038,36.5828542 159.280135,39.2890626 L159.280135,109.628188 Z M79.1539685,112.136 C79.1539685,118.984 81.9361271,124.278271 87.5004442,128.018812 C92.748708,131.523062 98.272962,132.399125 104.073206,130.647 C110.750387,128.658583 115.281966,123.763333 117.667946,115.96125 C118.780809,112.37675 119.337241,108.355333 119.337241,103.897 L119.337241,84.5500622 C114.645409,84.7105622 110.234018,85.1876039 106.103069,85.9811873 C101.97212,86.7747707 97.7387878,88.1078123 93.4030719,89.9803122 C89.067356,91.8528121 85.6085765,94.6793955 83.0267334,98.4600623 C80.4448903,102.240729 79.1539687,106.799375 79.1539687,112.136 Z"/>
  </g>
</svg>
