<svg xmlns="http://www.w3.org/2000/svg" width="300" height="300" style="background:#3a5ae2" viewBox="0 0 300 300">
  <path fill="#FFF" d="M194.003906,8.94213507 L140.361406,8.94213507 L140.361406,21.9751793 L194.003906,21.9751793 L194.003906,8.94213507 Z M167.552188,53.7268242 C154.954531,53.7268242 146.556094,61.6125897 145.71625,74.228469 L188.548281,74.228469 C187.392656,61.5049344 180.781406,53.7268242 167.552188,53.7268242 Z M169.231875,115.231758 C177.21375,115.231758 187.500156,110.91881 190.019688,102.723535 L213.219531,102.723535 C206.084219,124.698714 191.276094,135 168.392031,135 C138.157656,135 119.365313,114.498355 119.365313,84.6441388 C119.365313,55.8395633 139.205781,33.864384 168.392031,33.864384 C198.418125,33.864384 215,57.5216807 215,85.9023624 C215,87.5844796 214.8925,89.2665968 214.791719,90.8410587 L145.71625,90.8410587 C145.71625,106.188696 153.798906,115.231759 169.231875,115.231758 Z M29.07875,109.970096 L60.1529688,109.970096 C72.0182813,109.970096 81.6731251,105.764803 81.6731251,92.4155204 C81.6731251,78.850927 73.5904687,73.4950658 60.7845312,73.4950658 L29.07875,73.4950658 L29.07875,109.976824 L29.07875,109.970096 Z M29.07875,53.5182415 L58.5807813,53.5182415 C68.9746876,53.5182415 76.3250001,48.9967104 76.3250001,37.7467105 C76.3250001,25.5479964 66.8784375,22.6076555 56.3770312,22.6076555 L29.0854687,22.6076555 L29.0854687,53.5182415 L29.07875,53.5182415 Z M0,0.00672839006 L62.3567188,0.00672839006 C85.0325,0.00672839006 104.664688,6.41895918 104.664687,32.8080143 C104.664687,46.1572965 98.47,54.7831938 86.6046875,60.455293 C102.8775,65.0844796 110.751875,77.3841207 110.751875,93.989982 C110.751875,120.903858 88.1835938,132.470096 64.1439063,132.470096 L0,132.470096 L0,0 L0,0.00672839006 Z" transform="translate(43 83)"/>
</svg>
