<svg xmlns="http://www.w3.org/2000/svg" width="300" height="300" style="background:#fff" viewBox="0 0 300 300">
  <g fill="none" fill-rule="evenodd" transform="translate(32 32)">
    <path fill="#2A7BCE" fill-rule="nonzero" d="M201.021961,34.4927689 C155.028533,-11.5006591 80.4808252,-11.4945201 34.4925132,34.4927689 C-11.4947758,80.4800579 -11.4998918,155.029812 34.4914902,201.02017 C80.4838952,247.013598 155.033649,247.007459 201.020938,201.02017 C247.008226,155.032882 247.013343,80.4851749 201.021961,34.4927689 Z"/>
    <path fill="#FFF" d="M94.1722112 163.769253C89.6584162 168.283048 82.3510012 168.294304 77.8279972 163.7713 73.3254592 159.268762 73.3142022 151.939857 77.8279972 147.426063 82.3407682 142.913292 89.6543232 142.919432 94.1660712 147.43118 98.6911222 151.955207 98.6849822 159.258529 94.1722112 163.769253zM144.59143 164.11206C144.301835 166.048151 143.407467 167.917728 141.913443 169.411752 138.198849 173.127369 132.181821 173.126346 128.47132 169.416869 126.255867 167.201416 125.365592 164.167319 125.79231 161.281601L125.782077 161.277508C125.774914 161.328673 125.771844 161.360396 125.771844 161.362442L125.775937 161.275461 125.782077 161.277508C125.853708 160.628733 126.274286 156.190663 125.050415 150.232986 123.332287 141.887941 119.317865 134.519127 113.127898 128.329161 106.938954 122.140217 99.6151672 118.159564 91.3468692 116.487485 86.3050492 115.472367 82.3714682 115.645306 80.9275862 115.766056 77.8893962 116.406644 74.6015202 115.547069 72.2438272 113.189376 68.5343492 109.478875 68.5333262 103.461847 72.2479202 99.7462289 73.7102222 98.2829039 75.5357962 97.3936529 77.4309562 97.0835919L77.4258392 97.0273099C78.5238442 96.8451619 104.695871 92.9924219 126.580254 114.874758 148.424727 136.717185 144.765391 163.002799 144.59143 164.11206z"/>
    <path fill="#FFF" d="M187.574297,165.972427 C186.756677,171.159556 181.877563,174.696095 176.688387,173.868242 C174.630522,173.547948 172.832577,172.581949 171.460326,171.209698 C169.387112,169.137507 168.105935,166.067595 168.609401,162.9414 C168.629867,162.860559 169.854762,153.749059 167.358923,141.120462 C164.097653,124.582844 156.254026,109.98234 144.06852,97.7149699 C131.799103,85.5284409 117.200646,77.6858379 100.662004,74.4225209 C88.0334072,71.9277049 78.9208842,73.1515769 78.8308332,73.1628339 L78.8758582,73.1587409 C78.8635782,73.1607879 78.8615322,73.1628339 78.8625552,73.1648809 C75.7343142,73.6489039 72.6429122,72.3943329 70.5615122,70.3119089 C69.1902842,68.9406809 68.2242852,67.1417129 67.9029682,65.0838479 C67.0853482,59.9059289 70.6229102,55.0268149 75.7998062,54.1989619 C76.2776892,54.1263069 87.5411982,52.3989699 103.106677,55.2703609 C112.152686,56.9373229 120.918309,59.8179249 129.167164,63.8497429 C139.447278,68.8557469 148.915911,75.6494629 157.290632,84.0262309 C157.372496,84.1070719 157.448221,84.1930299 157.519852,84.2646609 C157.591483,84.3352689 157.676418,84.4109929 157.748049,84.4826249 C166.134027,92.8675789 172.927743,102.336213 177.933747,112.616326 C181.955332,120.854948 184.835934,129.620571 186.513129,138.676813 C189.373266,154.233082 187.656162,165.503754 187.574297,165.972427 Z"/>
  </g>
</svg>
