<svg xmlns="http://www.w3.org/2000/svg" width="300" height="300" style="background:#fff" viewBox="0 0 300 300">
  <g fill="none" fill-rule="evenodd">
    <path fill="#242021" d="M150,249 C95.3238098,249 51,204.67619 51,150 C51,95.3238098 95.3238098,51 150,51 C204.67619,51 249,95.3238098 249,150 C249,204.67619 204.67619,249 150,249 Z M213.904254,130.203263 C213.874984,130.049472 213.849684,129.895681 213.808508,129.744867 C213.782711,129.654081 213.751953,129.568751 213.72318,129.479454 C213.6815,129.345405 213.634667,129.213013 213.582785,129.082574 C213.545082,128.992284 213.502418,128.90497 213.461242,128.817657 C213.404184,128.694371 213.341951,128.573546 213.274711,128.455504 C213.227086,128.36819 213.17202,128.285838 213.119434,128.202493 C212.992491,128.004882 212.852965,127.815642 212.701723,127.635947 C212.615356,127.53417 212.525339,127.435547 212.431848,127.340272 C212.359914,127.268338 212.28798,127.196403 212.212574,127.126453 C212.113291,127.035883 212.01,126.949806 211.903012,126.868481 C211.821156,126.804981 211.740789,126.739496 211.654965,126.681452 C211.624703,126.659624 211.596922,126.633826 211.564676,126.61299 L153.525676,87.9172224 C151.693381,86.6942592 149.305131,86.6942592 147.472836,87.9172224 L89.4298672,126.611998 C89.3976211,126.632338 89.3723203,126.658135 89.3395781,126.68046 C89.25425,126.739992 89.1738828,126.803492 89.0915312,126.866993 C88.986129,126.949779 88.8829063,127.035302 88.7819687,127.123477 C88.707025,127.191977 88.6345492,127.26313 88.5646797,127.336799 C88.4689336,127.433043 88.3801328,127.530278 88.2928203,127.632971 C88.2283281,127.709866 88.1663164,127.786762 88.1062891,127.872587 C88.0244336,127.980241 87.9490273,128.089879 87.8756055,128.204478 C87.8225234,128.288318 87.7694414,128.370175 87.719832,128.457488 C87.6532625,128.574549 87.5916914,128.694382 87.5352852,128.816665 C87.4941094,128.903978 87.449957,128.99278 87.4137422,129.081582 C87.3606602,129.21156 87.3145234,129.345011 87.2718594,129.478461 C87.2430859,129.567759 87.2123281,129.654577 87.1880195,129.734945 C87.148332,129.885263 87.1195586,130.037566 87.0922734,130.193341 C87.0773906,130.272221 87.058043,130.349116 87.047625,130.429484 C87.0168672,130.665132 87,130.901275 87,131.142379 L87,169.846085 C87,170.085205 87.0168672,170.324821 87.0510977,170.55898 C87.0635,170.644805 87.0858242,170.712771 87.1026914,170.795123 C87.1299766,170.948914 87.1537891,171.102705 87.2053828,171.256992 C87.2291953,171.342321 87.2564805,171.428146 87.2907109,171.521909 C87.333375,171.658833 87.3760391,171.795756 87.4276328,171.920773 C87.4633516,172.006102 87.5129609,172.091431 87.5471914,172.177257 C87.6037461,172.296817 87.6672461,172.416377 87.735707,172.541394 C87.783332,172.626723 87.8379023,172.712548 87.8894961,172.790932 C87.962918,172.910988 88.0432852,173.013681 88.1286133,173.115877 C88.1886406,173.201702 88.248668,173.269668 88.3171289,173.35202 C88.4039453,173.454713 88.4877852,173.557406 88.5904766,173.648192 C88.6604258,173.716158 88.7273984,173.801983 88.8127266,173.853081 C88.9119453,173.938906 89.0181094,174.024235 89.1203047,174.113037 C89.2026562,174.181499 89.2919531,174.233093 89.359918,174.299571 C89.3926602,174.316438 89.4115117,174.350669 89.4457422,174.366048 L147.472836,213.08166 C148.366672,213.685032 149.42159,214.005038 150.5,213.99994 C151.577272,213.997825 152.630087,213.678629 153.527164,213.082156 L211.570133,174.386388 C211.602379,174.366544 211.629664,174.342235 211.660422,174.319911 C211.74575,174.260379 211.826117,174.196878 211.908469,174.133873 C212.014633,174.049536 212.118812,173.962719 212.218031,173.873917 C212.292941,173.806944 212.364875,173.733521 212.436809,173.661587 C212.601444,173.495436 212.753969,173.317708 212.893215,173.129768 C212.975566,173.022114 213.050973,172.910988 213.124395,172.797877 C213.177477,172.716021 213.230559,172.63218 213.280168,172.548339 C213.348629,172.428283 213.40816,172.307235 213.466203,172.184202 C213.507379,172.096888 213.550539,172.009575 213.587746,171.920773 C213.640828,171.788811 213.685477,171.65536 213.728141,171.521909 C213.756914,171.433107 213.787672,171.345794 213.813469,171.256992 C213.853156,171.106674 213.880441,170.952387 213.909215,170.798596 C213.923105,170.719716 213.943941,170.642821 213.951879,170.562452 C213.983133,170.326805 214,170.090662 214,169.849557 L214,131.152301 C214,130.911197 213.981148,130.675054 213.951879,130.43891 C213.938484,130.355069 213.912687,130.287104 213.89582,130.203263 L213.904254,130.203263 Z M150.498512,163.409689 L131.197984,150.500681 L150.498512,137.58969 L169.800031,150.500681 L150.498512,163.409689 Z M145.042473,128.109723 L121.38277,143.935299 L102.284648,131.158751 L145.042969,102.653861 L145.042969,128.109723 L145.042473,128.109723 Z M111.567555,150.498697 L97.916543,159.629906 L97.916543,141.367984 L111.567555,150.498697 Z M121.38277,157.069536 L145.042969,172.893128 L145.042969,198.34899 L102.284648,169.840628 L121.383266,157.066063 L121.383266,157.069536 L121.38277,157.069536 Z M155.955543,172.890152 L179.615246,157.066559 L198.715352,169.840628 L155.955543,198.345518 L155.955543,172.889656 L155.955543,172.890152 Z M189.430461,150.50217 L203.083457,141.369472 L203.083457,159.633379 L189.430957,150.498697 L189.430957,150.50217 L189.430461,150.50217 Z M179.615246,143.934803 L155.955543,128.111211 L155.955543,102.653861 L198.715352,131.159247 L179.615742,143.934803 L179.615246,143.934803 Z"/>
  </g>
</svg>
