<svg xmlns="http://www.w3.org/2000/svg" width="300" height="300" style="background:#fff" viewBox="0 0 300 300">
  <g fill="none" transform="translate(58 41)">
    <path fill="#9558FF" d="M44,63.9098707 L44,46.9699327 C43.9988091,34.835924 34.1938908,25 22.0993228,25 C10.0047549,25 0.199836572,34.835924 0.198645673,46.9699327 L0,109 C8.24188872,88.7867078 24.0317943,72.6055968 44,63.9098707 Z"/>
    <path fill="#FF1368" d="M187.02395,124.805231 C183.152722,119.612153 177.374643,116.169527 170.962095,115.235448 C164.549546,114.301368 158.028395,115.952435 152.834651,119.82507 L152.386103,120.173681 L152.784812,26.8454598 C152.785667,17.2547855 147.665791,8.39227156 139.353993,3.59668781 C131.042194,-1.19889594 120.801389,-1.19889594 112.48959,3.59668781 C104.177792,8.39227156 99.0579157,17.2547855 99.0587705,26.8454598 L99.0587705,66.2883367 C64.7680659,56.3335758 28.110866,71.0961318 10.3108139,102.028838 C-7.48923827,132.961543 -1.81782406,172.045694 24.0414432,196.6525 C49.9007104,221.259307 89.2443167,225.009931 119.293254,205.732851 C121.063845,204.972013 122.737015,204.002295 124.277117,202.844357 L182.388958,158.969137 C193.097461,150.806714 195.171128,135.521993 187.02395,124.805231 Z M77.378967,175.901685 C57.8088676,175.818998 42.0112155,159.899111 42.0938479,140.343547 C42.1764802,120.787982 58.108106,105.001969 77.6782064,105.084424 C97.2483068,105.166879 113.046148,121.086578 112.963748,140.642144 C112.881356,160.159042 97.0102028,175.929309 77.4786442,175.901685 L77.378967,175.901685 Z"/>
  </g>
</svg>
