<svg xmlns="http://www.w3.org/2000/svg" width="300" height="300" style="background:#e23b2b" viewBox="0 0 300 300">
  <path fill="#FFF" d="M12.8633833,89.5904104 C24.4172593,89.5067132 35.9718094,89.5694865 47.5263601,89.5694865 C58.8584091,89.5728617 70.1911327,89.5080634 81.5225077,89.5944604 L12.8633833,89.5904104 Z M34.1628082,20.60229 C34.1230278,12.9385929 27.713647,6.65387548 20.0717454,6.78482155 C12.2120624,6.91981693 6.37713914,12.952093 6.40073793,20.9188548 C6.42433672,28.814744 12.415685,34.6890751 20.3657169,34.6101026 C28.2449525,34.5318048 34.2039368,28.4819793 34.1628082,20.60229 Z M148.999678,111.720905 C160.194181,111.720905 171.279456,111.912599 182.353269,111.640583 C187.965017,111.502888 192.136576,106.715945 192.42313,101.102831 C192.696874,95.752283 188.568467,89.9494993 183.244623,89.7530809 C171.99618,89.3379698 160.722116,89.6268602 148.999678,89.6268602 C148.999678,97.1184367 148.999678,103.951236 148.999678,111.720905 Z M81.5231817,89.5944604 C70.1918068,89.5080634 58.8590831,89.572861 47.5270341,89.570836 C35.9724841,89.5694858 24.4179334,89.5067132 12.8640574,89.5904104 L81.5231817,89.5944604 Z M12.8633833,89.5904104 C4.65444068,89.6498085 -0.0275219887,93.7901216 0.000121723974,100.702568 C0.0264173485,107.353798 4.57285697,111.609533 12.3610703,111.647332 C35.4694963,111.760053 58.5785971,111.752629 81.6870232,111.652057 C89.457706,111.618308 94.1915859,107.361223 94.3001393,100.859838 C94.414761,93.9730406 89.6309874,89.6558828 81.522507,89.593785 L12.8633833,89.5904104 Z M14.0358964,141.498896 C30.1254241,160.089131 50.58811,168.008645 75.1623466,165.560501 C106.542421,162.434004 131.93182,139.144574 135.497232,109.841767 C139.55754,76.469519 121.873421,48.1758038 90.3800744,37.6576259 C78.238256,33.6023596 78.238256,33.6023596 78.2153319,21.0106507 C78.2153319,17.8949539 78.3663633,14.7704817 78.1849907,11.6655846 C77.7743754,4.65594105 73.324353,0.105241632 66.9992528,0.0087196796 C60.7928199,-0.085777286 56.3454951,3.83651794 55.7292343,10.7239908 C55.2356865,16.2466581 55.1702845,21.854373 55.4932484,27.3905405 C55.7980073,32.6108179 54.4576071,35.0792115 48.7622525,36.4953145 C34.3920517,40.0672962 22.3163095,47.8761137 13.0110431,59.5842767 C9.20829677,64.3691939 9.46990427,70.4696421 13.3353552,74.038924 C17.680195,78.0509915 23.5009594,77.6453299 28.1296567,72.9650346 C30.1611596,70.9104025 32.0193805,68.674201 34.1365126,66.7154161 C57.8376006,44.7813408 99.77097,52.7204282 112.126524,81.6756222 C119.156885,98.1518277 117.504983,114.156225 106.117646,128.093839 C93.4162033,143.639925 76.241814,148.150801 56.937483,144.889984 C45.2912353,142.922423 36.3514102,136.21517 28.327885,127.708426 C26.0131993,125.254882 21.3022435,123.632236 17.9721437,124.025748 C15.3061756,124.340962 11.4811792,128.022965 11.0381999,130.687778 C10.4725076,134.087641 11.7576203,138.866483 14.0358964,141.498896 Z M127.404934,155.418286 C142.630078,164.589208 158.480923,167.42209 175.669471,165.362733 C215.438511,160.59739 242.215509,121.874594 231.704691,83.2287462 C224.835475,57.9724307 207.79661,42.6841853 182.814454,36.3495201 C177.121797,34.9064175 175.125355,32.6587422 175.672168,26.9842041 C176.13942,22.1331391 175.845449,17.1990523 175.738918,12.3054639 C175.573728,4.69441514 171.359017,0.091067384 164.639483,0.00129516772 C157.915905,-0.0884770486 153.598709,4.49394672 153.449026,12.0658466 C153.343169,17.4049202 153.139547,22.7676183 153.504314,28.0837422 C153.83874,32.9523567 152.061428,34.9853893 147.270237,36.3225198 C140.427991,38.2320316 133.94242,41.4213013 126.953863,44.2028846 C131.560311,50.4032299 135.253829,55.3744406 139.295933,60.8147609 C164.156724,47.5845228 190.388257,55.8428754 203.386367,71.2107674 C215.776308,85.8604837 217.336513,108.404064 206.517565,124.668327 C200.667134,133.463961 192.597086,139.558335 182.577793,142.940648 C167.571779,148.006356 153.002676,146.633451 139.252781,139.280919 C135.119655,144.908883 131.356689,150.034664 127.404934,155.418286 Z M223.903667,20.9276288 C223.963001,13.0060902 218.070767,6.87931785 210.301433,6.78347134 C202.578621,6.6882996 196.269703,12.8677203 196.216438,20.5806906 C196.161824,28.490754 202.085748,34.5439541 209.960939,34.6249516 C217.957493,34.7072986 223.843659,28.9247648 223.903667,20.9276288 Z M130.352737,20.9073796 C130.469381,13.2929563 124.146978,6.81384548 116.567781,6.78009614 C108.583363,6.74499725 102.767993,12.5309063 102.663485,20.613089 C102.558302,28.6939222 108.293437,34.599977 116.256954,34.6114515 C124.250812,34.6236014 130.231372,28.8086684 130.352737,20.9073796 Z" transform="translate(33 67)"/>
</svg>
