<svg xmlns="http://www.w3.org/2000/svg" width="300" height="300" style="background:#fd9732" viewBox="0 0 300 300">
  <g fill="#FFF" transform="translate(50 40)">
    <path d="M112.974651,101.080556 C145.371753,84.7034815 163.36328,47.693374 154.181025,11 L127.825929,17.5497348 C134.83988,45.599805 117.799968,73.969737 89.775442,81.0004374 C61.7454428,87.9842143 33.3643551,70.9275318 26.3558779,42.9290774 L0,49.4999277 C8.90701373,85.1938318 40.6676215,109.056764 75.7944565,109.639397 C35.0877383,128.505762 12.4304097,175.360414 24.056991,222 L55.4852767,214.130934 C46.8433387,179.536603 66.9343589,144.706873 100.369088,136.367008 C133.800689,127.998988 167.888334,149.274873 176.544347,183.901268 L208,176.021253 C196.627547,130.625921 156.468965,100.344639 112.974651,101.080556 Z"/>
    <path d="M114.94124,26.8840668 C119.674188,45.9388944 108.093121,65.1750477 89.102704,69.9301572 C70.0763307,74.6883931 50.807643,63.1296628 46.06766,44.0951562 C41.3143887,25.0583048 52.8774773,5.81277264 71.9046322,1.06469727 C90.9200623,-3.68103337 110.173898,7.88394955 114.94124,26.8840668 Z"/>
  </g>
</svg>
