<svg xmlns="http://www.w3.org/2000/svg" width="300" height="300" style="background:#fff" viewBox="0 0 300 300">
  <g fill="none">
    <path fill="#008AFE" d="M173.7372,67 L100.46586,67 C93.5810801,67 88,72.6129073 88,79.5356307 L88,222.464369 C88,229.387683 93.581667,235 100.46586,235 L199.53414,235 C206.41892,235 212,229.387093 212,222.464369 L212,105.476955 L173.7372,67 Z"/>
    <g fill="#FFF" transform="translate(107 139)">
      <rect width="82.963" height="6.023" x=".461" y=".244"/>
      <rect width="82.963" height="6.023" x=".461" y="15.129"/>
      <rect width="82.963" height="6.023" x=".461" y="31.875"/>
      <rect width="43.254" height="6.023" x=".461" y="47.468"/>
    </g>
    <path fill="#55C2F9" d="M186.379848,105 L212,105 L174,67 L174,92.6201522 C173.999417,99.4571674 179.54225,105 186.379848,105 Z"/>
  </g>
</svg>
