<svg xmlns="http://www.w3.org/2000/svg" width="300" height="300" style="background:#2fa399" viewBox="0 0 300 300">
  <g fill="none">
    <path fill="#3C5A99" d="M300,283.476958 L300,16.5230423 C300,13.3843554 300,7.87667467 300,-1.11022302e-15 C291.915641,6.75593772e-14 286.40796,1.01894177e-13 283.476958,1.01894177e-13 L16.5230423,1.01894177e-13 C13.4784402,1.01894177e-13 7.97075942,6.75593772e-14 5.68434189e-14,-1.11022302e-15 C8.19969093e-14,7.99027457 9.45736545e-14,13.4979553 9.45736545e-14,16.5230423 L9.45736545e-14,283.364556 C9.45736545e-14,286.415236 8.19969093e-14,291.922917 5.68434189e-14,299.887598 C7.99635262,299.887598 13.5040334,299.887598 16.5230423,299.887598 L283.476958,299.887598 C286.789128,299.928489 292.296808,299.928489 300,299.887598 C300,291.70469 300,286.234477 300,283.476958 Z"/>
    <path fill="#FFF" d="M207.043837,300 L207.043837,183.776695 L246.047209,183.776695 L251.892094,138.478831 L207.043837,138.478831 L207.043837,109.591607 C207.043837,96.4406145 210.640689,87.560884 229.524166,87.5608843 L253.465717,87.5608843 L253.465717,47.0962907 C249.306856,46.5342826 235.031847,45.2978643 218.508805,45.2978643 C183.889097,45.2978643 160.284751,66.4293741 160.284751,105.095542 L160.284751,138.478831 L121.168977,138.478831 L121.168977,183.776695 L160.284751,183.776695 L160.284751,300 L207.043837,300 Z"/>
  </g>
</svg>
