<svg xmlns="http://www.w3.org/2000/svg" width="300" height="300" style="background:#fff" viewBox="0 0 300 300">
  <g fill="none" fill-rule="evenodd" transform="translate(59 59)">
    <circle cx="27.5" cy="33.5" r="27.5" fill="#006EB5"/>
    <circle cx="157" cy="25" r="25" fill="#006EB5"/>
    <circle cx="67" cy="156" r="26" fill="#006EB5"/>
    <path fill="#006EB5" d="M144.645325,82.1512699 C150.323879,86.4078473 154,93.2048532 154,100.863222 C154,113.755462 143.582249,124.206687 130.731302,124.206687 C127.022546,124.206687 123.516449,123.336218 120.404933,121.787821 C113.450365,125.742323 105.411123,128 96.8462604,128 C70.4215004,128 49,106.509668 49,80 C49,53.490332 70.4215004,32 96.8462604,32 C123.27102,32 144.692521,53.490332 144.692521,80 C144.692521,80.7209123 144.676679,81.4381127 144.645325,82.1512699 Z"/>
    <path fill="#FFF" d="M109.471684,86.9720934 C118.133362,88.4151665 125.616093,93.6686621 129.996841,101.05832 L118.921746,107.635312 C115.829095,102.274654 109.872159,98.8492975 103.290978,99.3094986 C94.4809747,99.925554 87.7478139,107.281179 87.7617623,115.995516 L75.1059421,115.994164 C75.1334051,107.108185 79.1298306,99.0327666 85.5052054,93.5998361 C85.5171945,93.5896192 85.5291921,93.5794117 85.5411981,93.5692136 L83.21233,85.4474853 C73.9700717,83.8791663 66.1900072,78.0063164 62,69.9600661 L73.4738773,64.1136862 C76.2470115,69.497977 81.8544284,73.1795059 88.3203943,73.1795059 C97.5406657,73.1795059 105.015172,65.6935236 105.015172,56.4590964 C105.015172,56.2340498 105.010733,56.0100417 105.001938,55.787155 L117.651486,55 C117.670546,55.4359285 117.680176,55.8743153 117.680176,56.3149549 C117.680176,65.3904778 113.595007,73.5103933 107.165885,78.9308125 L109.471684,86.9720934 Z"/>
    <circle cx="88.5" cy="55.5" r="12.5" fill="#FFF"/>
  </g>
</svg>
