<svg xmlns="http://www.w3.org/2000/svg" width="300" height="300" style="background:#d61c14" viewBox="0 0 300 300">
  <path fill="#FFF" d="M167.222265,70.0028762 L77.7783138,70.0028762 L77.7783138,70.0049132 C73.4835849,70.0049132 70.0017037,73.485805 70.0005791,77.780438 L69.9934502,97.2243418 L69.9913488,97.2243414 C69.990224,101.51977 73.4715226,105.002814 77.7670468,105.003939 C77.7677473,105.00394 77.7684477,105.00394 77.7691483,105.00394 L132.222458,105.001385 L132.222458,105.00132 C136.517982,105.001284 140.000222,108.483388 140.000258,112.778817 C140.000258,112.778838 140.000258,112.77886 140.000258,112.778881 L140.000193,114.723272 L140.000193,116.668245 C140.000193,129.554531 129.553561,140.00093 116.666988,140.00093 L42.772718,140.00093 L42.772718,140.000716 C38.4778102,140.000716 34.9960663,136.519145 34.9959479,132.224333 L34.9936966,58.3365339 L34.9930536,58.3365339 C34.9926983,45.450248 45.439042,35.0035613 58.3256151,35.0032061 C58.3258293,35.0032061 58.3260438,35.0032061 58.3262583,35.0032061 L167.200557,35.0038493 L167.200557,34.9990239 C171.494198,34.9990239 174.975628,31.5198303 174.978291,27.2262862 L174.995176,7.78238239 L174.999998,7.78238538 C175.002663,3.48695756 171.522613,0.002665627 167.227089,1.49523621e-06 C167.225481,4.99708329e-07 167.223873,0 167.222265,0 L58.3339765,0.00482234093 L58.3339765,0.00514392365 C26.1176693,0.00514392365 0.00114240165,26.1209448 0.000964789622,58.3365339 L4.28793875e-05,167.222395 L0,167.222395 C-2.36816958e-05,171.517824 3.48216765,174.999976 7.77769202,175 C7.77770631,175 7.77772061,175 7.7777349,175 L122.500289,174.999957 C151.495079,174.999957 175,151.49556 175,122.501417 L175,77.7804378 C175,73.4850091 171.517789,70.0028762 167.222265,70.0028762 Z" transform="translate(62 62)"/>
</svg>
