<svg xmlns="http://www.w3.org/2000/svg" xmlns:xlink="http://www.w3.org/1999/xlink" width="300" height="300" style="background:#fff" viewBox="0 0 300 300">
  <defs>
    <path id="google-a" d="M205.581395,86.3181818 L106.418605,86.3181818 L106.418605,127.079545 L163.497674,127.079545 C158.176744,152.975 135.925581,167.840909 106.418605,167.840909 C71.5906977,167.840909 43.5348837,140.027273 43.5348837,105.5 C43.5348837,70.9727273 71.5906977,43.1590909 106.418605,43.1590909 C121.413953,43.1590909 134.95814,48.4340909 145.6,57.0659091 L176.55814,26.375 C157.693023,10.0704545 133.506977,0 106.418605,0 C47.4046512,0 0,46.9954545 0,105.5 C0,164.004545 47.4046512,211 106.418605,211 C159.627907,211 208,172.636364 208,105.5 C208,99.2659091 207.032558,92.5522727 205.581395,86.3181818 Z"/>
    <path id="google-c" d="M205.581395,86.3181818 L106.418605,86.3181818 L106.418605,127.079545 L163.497674,127.079545 C158.176744,152.975 135.925581,167.840909 106.418605,167.840909 C71.5906977,167.840909 43.5348837,140.027273 43.5348837,105.5 C43.5348837,70.9727273 71.5906977,43.1590909 106.418605,43.1590909 C121.413953,43.1590909 134.95814,48.4340909 145.6,57.0659091 L176.55814,26.375 C157.693023,10.0704545 133.506977,0 106.418605,0 C47.4046512,0 0,46.9954545 0,105.5 C0,164.004545 47.4046512,211 106.418605,211 C159.627907,211 208,172.636364 208,105.5 C208,99.2659091 207.032558,92.5522727 205.581395,86.3181818 Z"/>
    <path id="google-e" d="M205.581395,86.3181818 L106.418605,86.3181818 L106.418605,127.079545 L163.497674,127.079545 C158.176744,152.975 135.925581,167.840909 106.418605,167.840909 C71.5906977,167.840909 43.5348837,140.027273 43.5348837,105.5 C43.5348837,70.9727273 71.5906977,43.1590909 106.418605,43.1590909 C121.413953,43.1590909 134.95814,48.4340909 145.6,57.0659091 L176.55814,26.375 C157.693023,10.0704545 133.506977,0 106.418605,0 C47.4046512,0 0,46.9954545 0,105.5 C0,164.004545 47.4046512,211 106.418605,211 C159.627907,211 208,172.636364 208,105.5 C208,99.2659091 207.032558,92.5522727 205.581395,86.3181818 Z"/>
    <path id="google-g" d="M205.581395,86.3181818 L106.418605,86.3181818 L106.418605,127.079545 L163.497674,127.079545 C158.176744,152.975 135.925581,167.840909 106.418605,167.840909 C71.5906977,167.840909 43.5348837,140.027273 43.5348837,105.5 C43.5348837,70.9727273 71.5906977,43.1590909 106.418605,43.1590909 C121.413953,43.1590909 134.95814,48.4340909 145.6,57.0659091 L176.55814,26.375 C157.693023,10.0704545 133.506977,0 106.418605,0 C47.4046512,0 0,46.9954545 0,105.5 C0,164.004545 47.4046512,211 106.418605,211 C159.627907,211 208,172.636364 208,105.5 C208,99.2659091 207.032558,92.5522727 205.581395,86.3181818 Z"/>
  </defs>
  <g fill="none" fill-rule="evenodd" transform="translate(46 45)">
    <mask id="google-b" fill="#fff">
      <use xlink:href="#google-a"/>
    </mask>
    <polygon fill="#FBBC05" fill-rule="nonzero" points="-9.674 167.841 -9.674 43.159 72.558 105.5" mask="url(#google-b)"/>
    <mask id="google-d" fill="#fff">
      <use xlink:href="#google-c"/>
    </mask>
    <polygon fill="#EA4335" fill-rule="nonzero" points="-9.674 43.159 72.558 105.5 106.419 76.248 222.512 57.545 222.512 -9.591 -9.674 -9.591" mask="url(#google-d)"/>
    <g>
      <mask id="google-f" fill="#fff">
        <use xlink:href="#google-e"/>
      </mask>
      <polygon fill="#34A853" fill-rule="nonzero" points="-9.674 167.841 135.442 57.545 173.656 62.341 222.512 -9.591 222.512 220.591 -9.674 220.591" mask="url(#google-f)"/>
    </g>
    <g>
      <mask id="google-h" fill="#fff">
        <use xlink:href="#google-g"/>
      </mask>
      <polygon fill="#4285F4" fill-rule="nonzero" points="222.512 220.591 72.558 105.5 53.209 91.114 222.512 43.159" mask="url(#google-h)"/>
    </g>
  </g>
</svg>
