<svg xmlns="http://www.w3.org/2000/svg" width="300" height="300" style="background:#fff" viewBox="0 0 300 300">
  <path d="M112.292609,85.6770831 L194.437209,85.6770835 C195.47907,91.4930557 196,97.0486113 196,102.34375 C196,121.180556 192.049612,137.999132 184.148837,152.799479 C176.248062,167.599826 164.982946,179.166667 150.353488,187.5 C135.724031,195.833333 118.945737,200 100.018605,200 C86.3875969,200 73.4077519,197.374132 61.0790698,192.122396 C48.7503876,186.87066 38.1147287,179.774305 29.172093,170.833333 C20.2294573,161.892361 13.131783,151.258681 7.87906987,138.932292 C2.62635677,126.605903 1.51937984e-07,113.628472 0,100 C-1.51937984e-07,86.3715279 2.62635647,73.3940973 7.87906987,61.0677083 C13.1317833,48.7413193 20.2294576,38.1076387 29.172093,29.1666667 C38.1147284,20.2256946 48.7503873,13.1293404 61.0790698,7.87760426 C73.4077522,2.62586809 86.3875972,9.71445146e-15 100.018605,0 C126.065116,0 148.421705,8.72395834 167.088372,26.171875 L139.869768,52.34375 C129.190698,42.0138889 115.906977,36.8489584 100.018605,36.8489584 C88.8186046,36.8489584 78.4651163,39.6701389 68.9581396,45.3125 C59.451163,50.9548611 51.91938,58.6154514 46.3627908,68.2942709 C40.8062016,77.9730904 38.027907,88.5416667 38.027907,100 C38.027907,111.458333 40.8062016,122.02691 46.3627908,131.705729 C51.91938,141.384549 59.451163,149.045139 68.9581396,154.6875 C78.4651163,160.329861 88.8186046,163.151042 100.018605,163.151042 C107.572093,163.151042 114.51783,162.109375 120.855814,160.026042 C127.193798,157.942708 132.403101,155.338542 136.483721,152.213542 C140.564341,149.088542 144.124031,145.529514 147.162791,141.536458 C150.20155,137.543403 152.437209,133.767361 153.869767,130.208333 C155.302326,126.649305 156.27907,123.263889 156.8,120.052083 L112.222714,120.052083 L112.292609,85.6770831 Z" transform="translate(52 50)"/>
</svg>
