<svg xmlns="http://www.w3.org/2000/svg" width="300" height="300" style="background:#ab0202" viewBox="0 0 300 300">
  <g fill="#FFF" fill-rule="evenodd" transform="translate(47 41)">
    <polygon points="143.783 0 160 0 134.547 218 101 218"/>
    <polygon points="41 33 56.313 33 86 196 59.822 196"/>
    <path d="M173.192114,153.30141 C173.179883,153.30299 173.167651,153.304569 173.155418,153.306146 C170.818403,154.059608 168.598556,154.639339 166.532302,155.027097 C95.5631983,168.34534 5.99124097,154.142841 0.426218284,122.582029 C-5.1388044,91.0212166 45.0158089,55.7970404 112.449682,43.9066291 C148.080094,37.6240262 181.405429,39.1128163 205.735164,46.5701604 C205.889565,46.5964698 206.043723,46.6229849 206.197636,46.6497054 C206.147587,46.6552128 206.097468,46.6607454 206.047278,46.6663032 C205.943399,46.6341469 205.839364,46.6020989 205.735164,46.5701604 C185.117576,43.057003 160.157071,43.2121181 133.867625,47.8476567 C70.1911386,59.0755393 22.831119,92.3370394 28.086061,122.139296 C33.0196224,150.118913 110.948474,161.330704 173.155418,153.306146 C173.167401,153.302283 173.179386,153.298416 173.191375,153.294543 C173.191621,153.296832 173.191868,153.299122 173.192114,153.30141 Z"/>
  </g>
</svg>
