<svg xmlns="http://www.w3.org/2000/svg" width="300" height="300" style="background:#0d0a35" viewBox="0 0 300 300">
  <g fill="none" transform="translate(55 36)">
    <path fill="#F00" d="M105.133195,9.20858565 C103.700049,7.73089812 103.991512,5.4530076 104.339751,1.69883689 C104.807723,-3.35682472 94.8206678,4.00909579 88.6971217,8.96905953 C39.1294794,12.4628758 0,53.8361564 0,104.364063 C0,157.182526 42.7566131,200 95.5,200 C148.243387,200 191,157.182526 191,104.364063 C191.001124,54.8018604 153.352853,14.045268 105.133195,9.20858565 Z"/>
    <path fill="#FFF" d="M181.839389,110.783108 C181.248494,98.3859261 178.478971,87.0963486 173.531385,76.9126877 C168.584924,66.7287454 162.160521,58.0209529 154.259303,50.7904355 C146.357803,43.5585115 137.31308,37.9498739 127.122881,33.9650854 C117.717258,30.2863863 107.87135,28.3105907 97.5851553,28.0272892 C95.8366795,29.6916502 94.2388131,32.4608025 97.9719538,35.4944069 C103.984222,40.3808649 95.0321161,43.5008384 90.3080505,42.2294984 C95.2643641,42.9483021 104.043058,40.365673 95.5672718,35.2035095 C91.8090766,32.8844887 92.7791695,29.8649508 93.9550483,28 C83.39832,28.1274435 73.1884154,30.1851068 63.323927,34.1862125 C53.1334468,38.3189817 44.0887235,44.0736306 36.187505,51.4538167 C28.286005,58.8325962 21.8258503,67.5775245 16.8042258,77.687195 C11.7826013,87.7968656 8.90272578,98.8293056 8.16488085,110.78339 C7.57398558,120.967332 8.57138527,130.412496 11.1559539,139.120288 C13.741367,147.828081 17.4691589,155.65024 22.3435523,162.587046 C27.2168195,169.523572 33.0874865,175.463619 39.9547087,180.408031 C46.8219308,185.352443 54.2434516,189.152959 62.2178634,191.808453 C63.6946793,192.251833 65.4290793,192.99033 67.4235972,194.021975 C69.4172705,195.055589 71.3377506,196.273476 73.1830667,197.675354 C75.0295088,199.077232 76.7647534,200.553382 78.3899266,202.102115 C80.0139736,203.652255 81.269802,205.091269 82.1560042,206.418876 C84.2225893,209.813148 85.8477625,212.876292 87.0292715,215.607183 C88.2096545,218.336949 89.2442138,220.698451 90.130416,222.691971 C91.0166181,224.684365 91.8285009,226.23338 92.5677534,227.340984 C93.3055984,228.447745 94.2649938,229 95.4476289,229 C96.4819068,229 97.4413022,228.372629 98.3275044,227.118732 C99.2137065,225.863991 100.099909,224.167839 100.986111,222.026339 C101.872313,219.887089 102.905465,217.488451 104.087255,214.832676 C105.267638,212.175775 106.744736,209.519156 108.51714,206.862255 C110.584851,203.7631 113.427567,200.737092 117.045287,197.786199 C120.663008,194.833055 124.023426,192.767796 127.12457,191.587045 C135.098982,188.633902 142.556818,184.760521 149.497796,179.963245 C156.438775,175.167094 162.383761,169.41132 167.330222,162.696766 C172.277808,155.981368 176.080764,148.306064 178.739089,139.672262 C181.395725,131.039867 182.428877,121.41043 181.839389,110.783108 Z M53.393283,137.399098 C52.4527489,137.797746 51.3692063,138.107211 50.1418107,138.328338 C48.9144151,138.549465 47.5955279,138.660592 46.185149,138.660592 C44.7747701,138.660592 43.4558828,138.550591 42.2284872,138.328338 C41.0010916,138.107211 39.9178305,137.796621 38.9770149,137.399098 C38.0364808,137.001576 37.3059552,136.541879 36.7840305,136.022259 C43.8525343,137.161654 48.8631798,137.036461 55.5873934,136.022259 C55.0643427,136.541879 54.3329726,137.001576 53.393283,137.399098 Z M72.8497556,118.553221 C71.3729396,121.668693 69.3421066,124.418996 66.7578195,126.803567 C64.1724064,129.188982 61.1455813,131.045212 57.6748105,132.369724 C54.2054473,133.695361 50.4765294,134.358742 46.4880567,134.358742 C42.4998655,134.358742 38.7720736,133.696486 35.3004583,132.369724 C31.8310951,131.044087 28.7659842,129.188982 26.1073778,126.803567 C23.4487713,124.417871 21.3810601,121.668693 19.9042442,118.553221 C18.4274283,115.438874 17.6893019,112.092709 17.6893019,108.514165 C17.6893019,104.93562 18.4271468,101.589455 19.9042442,98.4742644 C21.3810601,95.3587923 23.4490528,92.6422491 26.1073778,90.3229469 C28.7659842,88.0039261 31.8299691,86.1476966 35.3004583,84.7567905 C38.7709475,83.364759 42.4998655,82.6695873 46.4880567,82.6695873 C50.4754033,82.6695873 54.2040398,83.365603 57.6748105,84.7567905 C61.1452998,86.1476966 64.1732509,88.0039261 66.7578195,90.3229469 C69.3409806,92.6419678 71.3729396,95.3587923 72.8497556,98.4742644 C74.3265715,101.589737 75.0646979,104.935901 75.0646979,108.514165 C75.0644164,112.092428 74.3265715,115.438874 72.8497556,118.553221 Z M94.8947379,152.627326 C94.6875445,154.081532 94.4795065,155.665432 94.2711871,157.378744 C94.0639937,159.092339 93.2836404,160.260992 91.9332237,160.884143 C91.3096729,161.195578 90.5555003,161.351436 89.6726763,161.351436 C88.7887262,161.351436 87.9579821,161.195578 87.1776287,160.884143 C86.3981199,160.571583 85.74867,160.053088 85.2287159,159.326407 C84.7087619,158.598882 84.4492071,157.664015 84.4492071,156.521525 C84.4492071,155.275224 84.7096064,154.00304 85.2287159,152.704692 C85.74867,151.406344 86.3984014,150.211245 87.1776287,149.120802 C87.9571375,148.030359 88.8399615,147.121937 89.8286343,146.394412 C90.8161811,145.667731 91.7764211,145.200439 92.7127325,144.992534 C93.4398799,144.889004 93.9595525,145.09719 94.2714686,145.615685 C94.5842293,146.135305 94.8176034,146.78462 94.9732799,147.562222 C95.129238,148.340949 95.1813178,149.19845 95.129238,150.133035 C95.0768766,151.06959 94.9983346,151.899801 94.8947379,152.627326 Z M107.132097,159.326688 C106.560908,160.053369 105.885277,160.572708 105.105768,160.884424 C104.32626,161.195859 103.520852,161.351717 102.689263,161.351717 C101.858519,161.351717 101.130527,161.195859 100.506976,160.884424 C99.1554334,160.261274 98.3246893,159.09262 98.0130546,157.379026 C97.700294,155.665432 97.4931006,154.081813 97.3895039,152.627607 C97.2847811,151.900926 97.2335458,151.069871 97.2335458,150.13416 C97.2335458,149.199575 97.2859072,148.343481 97.3895039,147.563347 C97.4942266,146.78462 97.7273192,146.135305 98.0904706,145.61681 C98.4544666,145.09719 99.0006014,144.889285 99.7277488,144.99366 C100.66406,145.201845 101.6243,145.669138 102.611847,146.395538 C103.599394,147.123063 104.482218,148.031765 105.261727,149.121927 C106.040954,150.212371 106.690685,151.407188 107.210639,152.705818 C107.730593,154.00304 107.989867,155.276631 107.989867,156.522651 C107.989022,157.664297 107.704413,158.598882 107.132097,159.326688 Z M154.488173,137.399098 C153.547639,137.797746 152.464096,138.107211 151.236701,138.328338 C150.009305,138.549465 148.690418,138.660592 147.280039,138.660592 C145.86966,138.660592 144.550773,138.550591 143.323377,138.328338 C142.095981,138.107211 141.01272,137.796621 140.071905,137.399098 C139.131371,137.000451 138.400845,136.541879 137.87892,136.022259 C144.947424,137.161654 149.95807,137.036461 156.682283,136.022259 C156.158951,136.541879 155.427581,137.001576 154.488173,137.399098 Z M171.870178,118.553221 C170.392236,121.668693 168.325369,124.418996 165.66817,126.803567 C163.009564,129.188982 159.945579,131.045212 156.473964,132.369724 C153.004601,133.695361 149.275683,134.358742 145.288336,134.358742 C141.300989,134.358742 137.572353,133.696486 134.100738,132.369724 C130.631374,131.044087 127.566264,129.188982 124.907657,126.803567 C122.249051,124.417871 120.182466,121.668693 118.70565,118.553221 C117.228834,115.438874 116.490707,112.092709 116.490707,108.514165 C116.490707,104.93562 117.228552,101.589455 118.70565,98.4742644 C120.182466,95.3587923 122.249332,92.6084892 124.907657,90.223918 C127.566264,87.8385028 130.630248,85.9822733 134.100738,84.6577615 C137.571227,83.3321245 141.300145,82.6698686 145.288336,82.6698686 C149.276527,82.6698686 153.004319,83.3321245 156.473964,84.6577615 C159.944453,85.9833986 163.009564,87.8385028 165.66817,90.223918 C168.325651,92.6096146 170.393362,95.3587923 171.870178,98.4742644 C173.346994,101.589737 174.08512,104.935901 174.08512,108.514165 C174.08512,112.092428 173.347275,115.438874 171.870178,118.553221 Z"/>
  </g>
</svg>
