<svg xmlns="http://www.w3.org/2000/svg" width="300" height="300" style="background:#fff" viewBox="0 0 300 300">
  <g fill="none" fill-rule="evenodd" transform="translate(43 113)">
    <path fill="#006BB2" d="M0,1.10561056 L17.5923229,1.10561056 L17.5923229,65.9386139 L0,65.9386139 L0,1.10561056 Z M26.4943999,18.9722772 L41.1805021,18.9722772 L41.1805021,26.6231023 C43.3763243,23.4978942 45.5979464,21.2645832 47.845435,19.9231023 C50.0929236,18.5816215 52.831202,17.9108911 56.0603523,17.9108911 C60.4261635,17.9108911 63.8425533,19.3923944 66.3096241,22.3554455 C68.776695,25.3184967 70.0102119,29.8956786 70.0102119,36.0871287 L70.0102119,65.9386139 L54.1616214,65.9386139 L54.1616214,40.1115512 C54.1616214,37.1632416 53.6837143,35.0773439 52.7278858,33.8537954 C51.7720574,32.6302469 50.428751,32.0184818 48.6979264,32.0184818 C46.7862694,32.0184818 45.2363005,32.8439961 44.0479732,34.4950495 C42.8596459,36.1461029 42.2654912,39.1091095 42.2654912,43.3841584 L42.2654912,65.9386139 L26.4943999,65.9386139 L26.4943999,18.9722772 Z M94.3346337,18.9722772 L101.852058,18.9722772 L101.852058,32.1511551 L94.3346337,32.1511551 L94.3346337,65.9386139 L78.5247928,65.9386139 L78.5247928,32.1511551 L72.6348521,32.1511551 L72.6348521,18.9722772 L78.5247928,18.9722772 L78.5247928,16.849505 C78.5247928,14.9331037 78.7056225,12.825094 79.0672874,10.5254125 C79.4289522,8.22573108 80.1070636,6.34621192 81.1016419,4.88679868 C82.0962202,3.42738544 83.4911922,2.2480793 85.2865997,1.34884488 C87.0820073,0.449610465 89.7104962,0 93.1721454,0 C95.936298,0 99.9533007,0.368533168 105.223274,1.10561056 L103.479542,11.9848185 C101.593718,11.6310213 100.069582,11.4541254 98.9070876,11.4541254 C97.4862615,11.4541254 96.4658653,11.72684 95.8458684,12.2722772 C95.2258716,12.8177145 94.7867137,13.6800821 94.5283817,14.8594059 C94.3992157,15.508034 94.3346337,16.8789774 94.3346337,18.9722772 Z M101.725476,42.5881188 C101.725476,35.4237266 103.843767,29.5198252 108.080412,24.8762376 C112.317057,20.23265 118.039026,17.9108911 125.246489,17.9108911 C133.487281,17.9108911 139.712989,20.6380365 143.923801,26.0924092 C147.307951,30.4853905 149,35.8954574 149,42.3227723 C149,49.5461307 146.901084,55.4647734 142.703188,60.0788779 C138.505293,64.6929824 132.699368,67 125.285239,67 C118.671939,67 113.324546,65.0836275 109.2429,61.2508251 C104.231259,56.5040467 101.725476,50.2832068 101.725476,42.5881188 Z M117.535317,42.5438944 C117.535317,46.730494 118.27801,49.8261726 119.763419,51.8310231 C121.248828,53.8358736 123.115249,54.8382838 125.362738,54.8382838 C127.63606,54.8382838 129.502481,53.8506149 130.962057,51.8752475 C132.421633,49.8998801 133.15141,46.7304949 133.15141,42.3669967 C133.15141,38.2983295 132.415174,35.2689868 130.942682,33.2788779 C129.470189,31.2887689 127.648976,30.2937294 125.478987,30.2937294 C123.179832,30.2937294 121.28112,31.3035103 119.782794,33.3231023 C118.284468,35.3426944 117.535317,38.416261 117.535317,42.5438944 Z"/>
    <path fill="#009041" d="M205.634286,57.0640097 C207.829006,58.8216674 209.262007,59.9239108 209.933333,60.3707729 C210.940322,61.0261707 212.295864,61.785825 214,62.6497585 L209.12,74 C206.667078,72.6296228 204.240012,70.9986004 201.83873,69.1068841 C199.437448,67.2151677 197.759158,65.7926779 196.80381,64.839372 C192.930774,66.7757746 188.076643,67.7439614 182.24127,67.7439614 C173.617311,67.7439614 166.813782,65.1521998 161.830476,59.968599 C155.943463,53.8316923 153,45.2073825 153,34.0954106 C153,23.3111377 155.57553,14.9325983 160.726667,8.95954106 C165.877804,2.98648382 173.075086,0 182.31873,0 C191.743116,0 199.017858,2.91945551 204.143175,8.75845411 C209.268491,14.5974527 211.831111,22.9536493 211.831111,33.8272947 C211.831111,43.5093077 209.765523,51.2548019 205.634286,57.0640097 Z M192.194921,46.6968599 C193.589213,43.8071514 194.286349,39.4875489 194.286349,33.7379227 C194.286349,27.1243631 193.22128,22.4025906 191.091111,19.5724638 C188.960942,16.7423369 186.023934,15.3272947 182.28,15.3272947 C178.794268,15.3272947 175.966995,16.7721273 173.798095,19.6618357 C171.629196,22.5515442 170.544762,27.0647841 170.544762,33.2016908 C170.544762,40.351485 171.603376,45.3711611 173.720635,48.2608696 C175.837894,51.1505781 178.742627,52.5954106 182.434921,52.5954106 C183.622651,52.5954106 184.745815,52.461354 185.804444,52.1932367 C189.792044,50.4826919 190.796051,49.3008378 192.194921,46.6968599 Z"/>
  </g>
</svg>
