<svg xmlns="http://www.w3.org/2000/svg" width="300" height="300" style="background:#d71c1c" viewBox="0 0 300 300">
  <path fill="#FFF" d="M140.389188,165 L111.341313,165 L91.9760625,165 L91.9760625,145.587189 L91.9760625,19.4128115 L91.9760625,0 L111.341313,0 L140.389188,0 C180.490875,0 213,36.9395018 213,82.5 C213,128.060498 180.490875,165 140.389188,165 Z M140.389188,19.4128115 L111.341313,19.4128115 L111.341313,145.58274 L140.389188,145.58274 C169.7965,145.58274 193.639188,117.335409 193.639188,82.4955517 C193.639188,47.655694 169.7965,19.4128115 140.389188,19.4128115 Z M9.68262493,165 L0,165 L0,145.587189 L9.68262493,145.587189 C31.071375,145.587189 48.4131249,128.207295 48.4131249,106.761566 L48.4131249,8.52651283e-14 L67.7783749,8.52651283e-14 L67.7783749,106.761566 C67.7739375,138.923488 41.7657499,165 9.68262493,165 Z" transform="translate(44 68)"/>
</svg>
