<svg xmlns="http://www.w3.org/2000/svg" width="300" height="300" style="background:#fff" viewBox="0 0 300 300">
  <g fill="none" transform="translate(16 97)">
    <path fill="#000" d="M202.017625,44.1578687 C199.291622,42.9229173 196.44171,41.9652399 193.290042,40.777976 C192.869723,44.6140926 192.523263,47.9689129 192.125296,51.3193085 C191.935301,52.9185506 192.010133,55.0512018 189.661689,54.6362737 C189.013473,54.521726 188.319096,52.4677344 188.29723,51.2898114 C188.16749,44.497579 188.233574,37.7014134 188.233574,30.4539401 C184.458959,30.4539401 180.952572,30.4539401 177.22752,30.4539401 C177.391761,29.0326646 177.501092,28.0882608 177.649297,26.8041476 C185.554705,26.8041476 193.316282,26.8041476 201.019548,26.8041476 C201.019548,23.0840531 201.019548,19.7277583 201.019548,16.0248707 C198.380039,16.0248707 195.962108,16.0248707 193.06409,16.0248707 C195.045665,13.6832809 196.643365,11.7959491 198.44418,9.66968904 C194.736136,6.82517124 191.239466,4.14338006 188.585865,2.10708677 C185.717974,4.33412891 183.147951,6.32961731 180.488519,8.39491625 C183.422009,11.0319698 185.883187,13.2467217 188.832712,15.8980323 C184.679566,15.8980323 181.318954,15.8980323 178.078849,15.8980323 C178.078849,10.5845953 178.078849,5.56809682 178.078849,0.329877489 C174.529215,0.329877489 171.012137,0.329877489 166.937709,0.329877489 C166.937709,5.62414126 166.937709,10.7360141 166.937709,16.3144348 C162.89098,16.3144348 159.390909,16.3144348 155.979761,16.3144348 C155.979761,20.1308867 155.979761,23.4601426 155.979761,27.0671639 C159.486149,27.0671639 162.706817,27.0671639 165.89833,27.0671639 C166.535369,36.962998 160.757312,51.2730955 153.664845,57.1184661 C153.664845,55.8058387 153.664845,54.7567201 153.664845,53.7071094 C153.666789,42.9386484 153.610908,32.1682205 153.725099,21.4007428 C153.743564,19.6205842 154.281962,17.7573414 154.958361,16.0887807 C156.661991,11.8849315 158.580883,7.77104901 160.525043,3.367602 C156.341284,2.12970085 152.733825,1.06288381 149.142402,0 C148.846477,0.471464462 148.607891,0.71874971 148.517996,1.01273898 C145.732712,10.0752762 141.958096,18.6678239 136.753909,26.5937335 C136.35497,27.2018683 135.947284,28.0125511 136.005595,28.6865632 C136.417653,33.4189047 136.951192,38.140922 137.51097,43.4868064 C139.395848,41.1860215 140.82785,39.4388013 142.25888,37.6910891 C142.480459,37.7815474 142.701066,37.8715141 142.922158,37.9614804 C142.922158,47.5682415 142.922158,57.1754945 142.922158,66.704088 C146.701147,66.704088 150.097717,66.704088 153.864072,66.704088 C153.864072,64.66337 153.864072,62.9156584 153.864072,61.1669632 C154.193038,60.9737561 154.522005,60.7805494 154.850972,60.5868507 C156.825745,63.0208652 158.801004,65.4548796 160.864214,68 C169.387225,58.7304905 174.329988,48.3145214 176.813031,36.5456121 C177.081744,37.6438927 177.081744,38.6846539 177.081744,39.7244321 C177.080286,45.5486631 177.011772,51.3743695 177.097779,57.1971256 C177.176498,62.6049541 179.83593,65.2090693 185.204358,65.3137846 C187.701979,65.361472 190.202516,65.385561 192.698193,65.3024773 C197.28332,65.1486001 200.133233,62.9677705 201.086119,58.5210608 C201.935018,54.5585977 202.477789,50.5238657 202.988003,46.4984751 C203.08373,45.7453121 202.592466,44.4184276 202.017625,44.1578687 Z"/>
    <path fill="#F31359" d="M135 30.2410489C133.561257 30.2410489 132.374907 30.2410489 131.188558 30.2410489 124.493248 30.242546 117.796464 30.3119109 111.1041 30.1771732 110.008593 30.1552161 108.930272 29.2340089 107.844095 28.7299901 108.882151 28.2813635 109.905966 27.492898 110.96219 27.4454902 114.576724 27.2848029 118.203044 27.3831116 121.825436 27.3831116 124.62681 27.3831116 127.429167 27.3831116 130.141173 27.3831116 130.141173 24.2197688 130.141173 21.6033613 130.141173 18.7469212 128.472133 18.7469212 127.062853 18.7464223 125.654063 18.7469212 120.385711 18.74742 115.116376 18.8013152 109.849988 18.6855408 109.169408 18.6715678 108.507488 17.7837958 107.836239 17.3007363 108.526639 16.8371384 109.191996 16.0282129 109.912841 15.97332 112.2055 15.7991591 114.518291 15.9054523 116.823226 15.9054523 122.491775 15.9049534 128.159342 15.9054523 133.931009 15.9054523 133.931009 12.8314354 133.931009 10.2185215 133.931009 7.15847773 129.245519 7.15847773 124.752517 7.15847773 119.856862 7.15847773 121.150258 4.97372998 122.136263 3.30847127 123.290695 1.35677037 119.848515.913134072 116.799656.633178803 113.794009.0957247099 111.712988-.276051853 110.61257.427578652 109.702185 2.33835965 108.869874 4.08496025 107.804812 6.52570921 106.342499 6.97333802 103.826418 7.74284024 100.818807 7.64203666 98.2246501 7.01725265 96.9901791 6.72033058 96.3474097 4.27409198 95.2263688 2.99158812 94.2359443 1.85879323 92.9538423.160598662 91.7994107.160099294 88.3312055.157603917 84.8634913.862731551 81.0338817 1.33680882 82.1416646 3.38582064 83.091333 5.14489666 84.2978151 7.3770517 79.3137739 7.3770517 74.9626814 7.3770517 70.4667324 7.3770517 70.4667324 10.2739134 70.4667324 12.8868272 70.4667324 15.9059507 77.6275473 15.9059507 84.6219006 15.8071431 91.6088882 15.9882903 93.0319177 16.0247193 95.7920455 14.5336215 95.8102138 17.3162055 95.8278913 20.1347195 93.0579427 18.6201675 91.6398236 18.6710684 85.9884612 18.8741732 80.3262953 18.7544063 74.6233738 18.7544063 74.6233738 21.8523763 74.6233738 24.4687838 74.6233738 27.395587 81.0766023 27.395587 87.3103366 27.3696375 93.5435799 27.4090607 95.8548985 27.4240315 95.8544071 27.4953929 95.5101892 30.3952483 86.7471153 30.3952483 77.9265901 30.3952483 69 30.3952483 69 33.4767503 69 36.1320822 69 39 91.2568131 39 113.133071 39 135 39 135 35.9948496 135 33.2751431 135 30.2410489zM109.36847 50.9429784C117.346783 50.9429784 125.325096 50.9429784 133.426647 50.9429784 133.426647 48.0915727 133.426647 45.5745259 133.426647 42.6679533 126.530684 42.6679533 119.80326 42.7816449 113.085091 42.6031922 110.855606 42.5437079 107.721077 44.160816 106.750762 40.3212041 106.703512 40.135076 105.972853 40.0372149 105.559787 40.0319382 102.728238 40.0017165 99.8966899 39.9791702 97.0661154 40.0304991 96.6053128 40.0381745 95.7869743 40.3802089 95.7504413 40.6493268 95.3885213 43.3040507 93.3499817 42.6377315 91.7352247 42.6521228 86.7267987 42.6962563 81.7169108 42.6679533 76.7075108 42.6679533 74.469745 42.6679533 72.2319786 42.6679533 69.9114046 42.6679533 69.9114046 45.6762245 69.9114046 48.2033455 69.9114046 51.1151948 77.4936998 51.1151948 84.9040473 51.1151948 92.3143942 51.1151948 85.3317265 57.3221829 76.4371668 56.5666372 68 58.0024143 69.0005163 60.1136252 70.0706886 61.7858997 70.5957891 63.6092834 71.622122 67.172581 73.8628106 67.3798167 77.0338721 66.6779986 85.6322712 64.7783409 94.2686647 63.0619325 101.70629 58.0532641 109.80784 64.1499185 119.28985 65.5228533 128.835671 66.6381827 129.504955 66.7163758 130.641861 66.2884728 130.905872 65.7718237 132.354527 62.9328904 133.597621 59.9932177 135 56.8914029 126.0465 55.8072549 116.996067 56.6146095 109.24913 51.8170138 109.289559 51.5253482 109.329015 51.2332039 109.36847 50.9429784zM54.0043365 55.4668264C57.6419169 53.4451842 60.3609895 51.9333516 63.3006987 50.2998101 61.362114 48.0904718 59.6611745 46.1519243 57.8056928 44.0374116 58.6926111 43.6576206 59.4147814 43.3482153 60.1763164 43.0221912 59.7739227 40.6007174 59.3909682 38.2960648 59.1348554 36.7578376 63.5597274 35.4806249 63.9946822 31.3850401 66.5334552 28.9357052 63.5602132 26.9751619 60.9781874 25.2717231 58.1628898 23.4152925 62.945445 17.9774854 66.0445567 12.3045697 64.0058594 4.93505848 54.8893105 4.93505848 45.7202759 4.93505848 35.7260425 4.93505848 37.3871314 7.86927476 33.8705609 11.7033565 38.8304998 13.4942888 37.5552813 15.1625347 36.3150537 16.785323 34.9338907 18.5918968 37.5193184 20.3217302 40.0206714 21.9953531 42.9506605 23.9568736 39.3470992 25.7302095 36.2761748 27.6971071 32.1540698 26.2546832 32.1540698 21.7406924 32.1467798 17.2731368 32.1652474 12.806559 32.1667054 12.386198 32.2157897 11.6745177 32.433024 11.5889788 36.7733349 9.8909165 33.7923176 6.54807054 34.7045071 4 23.2362886 4 12.3084822 4 1.21106833 4 1.21106833 6.33886781 1.21106833 8.47439855 1.21106833 10.7081763 2.25252926 10.9862988 3.24150399 11.2502461 4.12210451 11.4858439 4.12210451 17.3332584 4.12210451 22.9592498 4.12210451 28.5192548 2.75503509 28.8330589 1.62609764 29.0926075.249794927 29.4083667.533608977 31.8322843.794581507 34.0655734 1.09054484 36.598003 8.4701917 36.0050987 15.660791 35.4258808 22.8513903 34.8481288 23.0389794 35.2249874 23.226569 35.6023342 23.4141581 35.9791928 22.5661182 36.5261505 21.7292564 37.5223079 20.8680952 37.5447923 15.3930143 37.6884968 9.91307419 37.6181112 4.06961878 37.6181112 4.66689156 40.3221068 5.24666894 42.0978868 5.412875 43.9113036 5.61795952 46.1548572 6.49807419 46.8083717 8.75546374 46.5522446 11.3890037 46.2526156 14.0818339 46.4818585 16.7484203 46.4818585 16.7629997 46.6495139 16.7775792 46.816192 16.7921586 46.9838474 11.2670217 48.3685942 5.74285698 49.7533406 0 51.1938099.916077153 53.6392346 1.7417618 55.8417295 2.67970833 58.3448317 10.4000289 56.0348026 17.8243857 53.8132443 25.420781 51.540852 24.4881801 49.4150971 23.7747578 47.7903536 22.9359518 45.8782007 25.1413409 45.8782007 26.8174951 45.8782007 28.4742101 45.8782007 28.4742101 49.6853987 28.4742101 53.269219 28.4742101 57.5862266 27.4687121 55.5699609 26.8174951 54.2629322 26.3771951 53.3806633 17.6416569 56.1120312 9.28226908 58.7255999.685721929 61.4134649 1.58673382 63.7347362 2.54946522 66.2133989 3.63174891 69 12.1962212 66.103421 20.2742251 63.3705867 28.5714071 60.5639453 28.6856128 63.0993077 28.7949592 65.5237139 28.9004174 67.8635595 32.3766516 67.8635595 35.4660431 67.8635595 38.7935666 67.8635595 38.7935666 64.0534286 38.7935666 60.491115 38.7935666 56.1545558 45.3217718 61.8005879 52.3816416 64.5622609 59.6738115 66.7975051 60.6258516 67.0898026 62.350118 67.0722061 62.764661 66.5008084 64.3781235 64.2724072 65.6091174 61.7653949 67 59.3302351 62.657258 58.0378705 58.7232284 56.8696585 54.0043365 55.4668264zM14.8924523 11.1084962C16.0539509 10.9232443 17.2645339 11.0522851 18.4542192 11.0522851 18.5295464 10.8523695 18.60536 10.6524535 18.6806872 10.4520487 20.16585 11.0860113 21.6495552 11.7204629 23.1347185 12.3544259 21.6067891 12.7200423 20.095383 13.1907482 18.548014 13.4170588 17.3831136 13.587647 16.1540635 13.5656513 14.9901348 13.3896865 14.4084136 13.3017039 13.9068794 12.6760507 13.3693828 12.2943043 13.8738329 11.8798094 14.3360023 11.1969679 14.8924523 11.1084962zM21.5824896 27.7665154C21.341928 27.9967361 20.7504872 27.8760047 20.3174766 27.8779597 18.1640873 27.8857805 16.0106985 27.8808926 13.500598 27.8808926 13.4558876 27.3178048 13.4228407 26.8993988 13.3893079 26.4805047 16.5564568 26.3030735 19.7231198 26.1256419 22.8897829 25.9482107 22.4655203 26.5655545 22.1122109 27.2596387 21.5824896 27.7665154zM22.0864539 20.4610355C19.5141476 20.5661255 16.9296921 20.5925206 14.3617593 20.4307304 13.9175712 20.4023803 13.5360747 19.3617431 12.6724837 18.1558939 16.4971674 18.1558939 19.1734739 18.1065258 21.8444343 18.2042842 22.2900804 18.2199256 22.7123992 18.869041 23.1458961 19.2258589 22.7940443 19.6564843 22.4562865 20.4458832 22.0864539 20.4610355zM42.4768281 13.4742481C42.5818005 13.3002384 42.6872587 13.125251 42.7922307 12.9502635 46.4555681 12.9502635 50.1198772 12.9502635 54.4383192 12.9502635 53.0148759 14.9939015 51.8431719 16.674856 50.5130371 18.5840761 47.6637209 16.7721252 45.0705174 15.123431 42.4768281 13.4742481zM31.5820687 37.2378312C33.0939606 34.4927774 34.2126926 32.4613594 35.462154 30.1928772 36.4312032 31.7892705 37.6009639 33.7160871 38.9665748 35.9630627 42.1638547 34.3808439 45.3625926 33.0303128 48.3095913 31.2574656 50.2831668 30.0711684 51.7459748 30.0174011 53.4702412 31.5404759 54.7294222 32.6529656 56.217501 33.503952 58.4219185 35.0416906 49.2028279 35.7949182 40.9518143 36.4699394 31.5820687 37.2378312zM44.4810204 49.4390479C42.9725303 48.2498178 41.6297604 46.8474744 39.5317733 44.8820433 45.7134728 44.4758573 50.9776366 44.1293043 56.2413151 43.7832395 56.3083808 43.9694692 56.3749605 44.1561875 56.4415398 44.3424172 53.2010075 46.1998255 49.991092 48.1158886 46.6883539 49.8535428 46.151829 50.1370422 45.0199755 49.8642963 44.4810204 49.4390479z"/>
    <path fill="#000" d="M263 4C245.867402 4 229.001311 4 212 4 212 13.0658615 212 21.8935175 212 31 229.215204 31 246.162428 31 263 31 263 21.7992382 263 12.8918462 263 4zM251.210799 21.1152114C242.206142 21.1152114 233.17985 21.1152114 223.864925 21.1152114 223.864925 18.6704676 223.864925 16.5552001 223.864925 14.1535845 232.970382 14.1535845 242.001591 14.1535845 251.210799 14.1535845 251.210799 16.4268202 251.210799 18.6228269 251.210799 21.1152114zM206 66.4302393C213.233972 67.6024795 215.444519 67.0914783 217.040306 63.7147839 219.795041 65.0012826 224.183333 61.3761376 225.474474 66.5853387 228.734632 66.5853387 231.796994 66.5853387 235 66.5853387 235 55.9743996 235 45.5803082 235 35 225.103234 35 215.530495 35 206 35 206 45.6877594 206 56.0765028 206 66.4302393zM216.454869 44.1003C219.330865 44.1003 221.923089 44.1003 224.713108 44.1003 224.713108 47.6996761 224.713108 51.0933873 224.713108 54.6626182 221.913646 54.6626182 219.312974 54.6626182 216.454869 54.6626182 216.454869 51.1954905 216.454869 47.8027513 216.454869 44.1003zM240 35C240 45.6855705 240 56.1249054 240 67 243.787048 65.5870518 248.521722 69.3576598 250.906818 64.0063924 253.549415 64.0063924 256.164881 64.0063924 258.002415 64.0063924 261.259662 68.3906512 265.351075 65.5536069 269 66.7925415 269 55.7967524 269 45.4645402 269 35 259.191263 35 249.579353 35 240 35zM258.888872 54.6295553C256.104698 54.6295553 253.418198 54.6295553 250.444598 54.6295553 250.444598 51.214729 250.444598 47.8348022 250.444598 44.0957009 253.319045 44.0957009 256.005546 44.0957009 258.888872 44.0957009 258.888872 47.6544878 258.888872 51.0426547 258.888872 54.6295553z"/>
    <path fill="#E9155A" d="M125.60047 97.9469298C123.752307 100.9852 120.516798 102.153917 116.400301 101.052391 113.171647 100.188237 114.406204 97.3633072 114.186325 95.2730557 113.995338 93.4554883 114.146658 91.6035898 114.146658 89.6452665 117.931132 89.0052433 121.201901 88.8512457 123.474642 92.5069791 123.474642 89.632515 123.474642 86.7580514 123.474642 83.8830971 121.084861 87.7350063 117.847882 87.6315237 114.154984 86.8007194 114.154984 83.885549 114.085935 81.1523316 114.199548 78.4264711 114.230399 77.6716853 114.598171 76.5740823 115.160357 76.2592205 117.740146 74.8119343 122.456047 76.5073827 123.88355 79.1989127 124.209696 79.8129426 124.640151 80.3725337 125.021634 80.9571369 125.240534 80.9080932 125.458945 80.8610106 125.676865 80.812948 125.676865 78.6859134 125.676865 76.5583881 125.676865 74.4911871 118.591261 74.4911871 111.677545 74.4911871 104.101742 74.4911871 108.175633 77.0826675 108.189345 77.0826675 108.195712 81.5898032 108.203058 86.7443189 108.100708 91.8998152 108.207465 97.050407 108.263781 99.7537074 107.614427 101.50948 104.515546 101.617867 101.234004 101.732139 100.456835 99.9018206 100.445572 97.0749294 100.428922 92.6904034 100.146359 88.3044061 100.164968 83.9213515 100.17917 80.5005386 98.4921212 76.3837919 103.791756 74.509824 101.522933 74.0777471 99.6096383 74.2258597 97.7306232 74.0394927 95.457882 73.8129095 94.251728 74.5397405 93.3413585 76.7800668 91.1205269 82.2430686 88.5436762 87.5604101 85.848316 93.5133601 83.1715646 87.4461372 80.6564176 81.8894616 78.2818174 76.2719715 77.5874097 74.631943 76.7059327 73.967398 74.8641359 74.0139897 69.6120034 74.1439563 64.3539942 74.0439067 59.0989233 74.0743136 58.3305695 74.0782369 57.5627052 74.3043297 56.6988577 74.4431239 58.3486886 75.9085562 60.8300457 77.068935 60.8863623 78.3391725 61.1498261 84.1994298 61.1370936 90.1396288 60.4162413 95.9493711 59.9946015 99.3495859 56.8824987 100.896921 53.5093808 100.708102 49.8013018 100.498194 47.2729327 97.7144613 46.9183828 93.0121308 46.663734 89.6290815 46.7043798 86.2175866 46.7538406 82.8203145 46.7993834 79.7079877 45.7029242 76.0257704 50.1901308 74.4186016 41.3366757 74.4186016 32.4837107 74.4186016 24.0313276 74.4186016 25.1385605 76.0728529 27.049896 77.6270547 27.1194346 79.2597263 27.4210954 86.372075 27.2399032 93.5074742 27.1228625 100.633555 27.0724226 103.669373 26.4230677 113.389387 23.5190917 115.178509 23.1792335 115.388417 23.2105746 116.203036 23 117 23.7761892 116.929377 24.2071336 116.967141 24.5842097 116.84355 29.8804159 115.100529 33.0542224 103.817486 33.1884026 97.6747355 33.3220932 91.5354184 33.3093608 85.3921775 33.2696941 79.2528598 33.2505954 76.2410729 34.9802486 75.4838351 37.5115565 75.6643168 39.5634384 75.8109581 40.6466756 76.8815868 40.662836 79.0576651 40.7005434 84.098889 40.6349227 89.152374 40.9654763 94.1769231 41.3645895 100.250522 44.9169408 103.481044 50.9511393 103.762066 58.9427056 104.136271 63.2492095 100.173523 63.7379396 91.7987836 63.9808355 87.6428024 63.9338235 83.4691649 64.07437 79.3053366 64.1713323 76.4387196 66.0268412 75.6020304 68.5292558 75.7241498 70.9724154 75.8438169 72.0194143 77.1959578 71.8137363 79.6295168 71.3984627 84.5437173 71.0434237 89.4628217 70.6301089 94.3755509 70.3597893 97.5879272 70.5992573 101.080345 66.5875583 102.804238 70.0684122 102.804238 73.5492662 102.804238 76.8371746 102.804238 75.5443419 101.281425 73.4307563 99.9430163 73.3235103 98.4594379 72.9165617 92.8360627 73.1594576 87.164624 73.1594576 81.5113318 73.5526941 81.4716061 73.9449514 81.4304095 74.3376983 81.3906837 77.2828102 88.6545781 80.2269428 95.9184725 83.1720547 103.182366 83.5457028 103.134794 83.9188615 103.08624 84.2929992 103.037196 87.4144066 95.7370098 90.5363036 88.4368227 93.6582006 81.1390885 93.9314585 81.2263866 94.2037369 81.3131944 94.4765048 81.4009828 94.4765048 85.6619179 94.5058872 89.9248152 94.4672002 94.1857508 94.4383073 97.39028 95.6199759 101.115165 90.7591212 102.590897 92.0690938 103.030331 93.0803435 103.16324 94.0920828 103.164221 103.726624 103.183838 113.360676 103.183838 122.994727 103.180896 127.165092 103.179914 129.079855 100.079359 127.383502 95.0675604 126.635716 96.2745324 126.111237 97.1058265 125.60047 97.9469298zM245.27519 79.2764452C245.28887 78.1882266 246.725736 77.0951692 247.565577 76.0514664 247.900243 75.6372757 248.399067 75.3527613 249 74.8669578 241.417979 73.0780987 239.980136 73.7356749 237.205094 79.9107956 235.226411 84.3130248 233.203757 88.6929962 230.993495 93.5374811 228.528202 87.9880013 226.369239 83.0302914 224.115494 78.1161299 223.510164 76.7961384 222.774875 74.6884102 221.823642 74.5258307 219.010492 74.044382 216.057612 74.3535739 213.159941 74.3535739 217.086039 77.5625851 217.100207 77.563553 216.781175 82.5048111 216.621415 84.9851175 216.550573 87.4847785 216.165096 89.9341175 215.464496 94.4016689 217.258502 99.7498599 211 102.59839 215.339423 102.59839 218.836563 102.59839 222.086488 102.59839 220.752221 101.143399 218.622572 99.9046979 218.526325 98.5261583 218.132054 92.9152272 218.362656 87.2631672 218.362656 81.6246557 218.754484 81.5932042 219.147289 81.5612689 219.539117 81.5283658 222.46366 88.6847705 225.388691 95.8426274 228.313233 103 228.675747 102.966129 229.036796 102.932743 229.39931 102.898871 232.593051 95.5948869 235.786304 88.2918698 238.980045 80.989337 239.653286 85.8164021 239.652309 90.4412106 239.653286 95.0655354 239.653286 98.0127744 240.467721 101.336462 236.329098 102.667099 240.626505 102.667099 244.925377 102.667099 248.765488 102.667099 247.680877 101.090657 245.867328 99.6434085 245.745675 98.0684188 245.26493 91.8255568 245.19702 85.5410814 245.27519 79.2764452z"/>
    <path fill="#E9155A" d="M197.030111 74.0005126C187.79047 73.9341573 180.994566 80.3168458 181.000003 89.0544161 181.005935 97.7401613 187.370823 103.963016 196.284237 103.999826 205.655852 104.037605 212.012831 97.9024167 211.999981 88.8311335 211.988612 80.1899479 205.801665 74.0610556 197.030111 74.0005126zM203.479027 97.6244034C201.093615 103.155615 194.759867 103.696143 191.044832 98.9001661 187.315463 94.0857844 186.997145 84.1712576 190.411655 79.1481231 193.250325 74.9701694 199.005267 74.5347441 201.752989 78.8013325 203.727158 81.8682003 204.506148 85.6732085 205.655852 88.7182812 204.829904 92.2355893 204.567934 95.1009702 203.479027 97.6244034zM177.164391 98.4098131C173.429267 103.156457 167.238746 103.341487 163.210691 98.8395907 158.928664 94.052808 158.757047 84.2217671 162.867952 79.2719818 167.029651 74.2619887 174.283405 74.8856065 177.478528 80.5216657 177.898692 81.2617839 178.376062 81.9715533 178.826802 82.694539 180.175076 75.8577463 179.068939 74.3515666 172.885816 74.0436737 170.174473 73.9080834 167.354637 74.0794068 164.716281 74.681487 157.380664 76.3570323 152.745047 82.4855241 153.010856 89.6879704 153.288499 97.2071207 157.910308 102.751154 165.604938 103.79525 169.33513 104.301878 173.26061 103.763432 177.051953 103.313096 179.234144 103.052684 180.844775 97.7793419 179.519679 95.2481572 178.674419 96.385257 177.944555 97.4166255 177.164391 98.4098131zM138.614806 96.2720815C138.692398 91.9343062 138.602031 87.5936195 138.64272 83.2558442 138.672526 80.1577798 137.63828 76.5410262 141.996689 75 137.783529 75 133.569422 75 129 75 132.808167 78.2858407 132.819049 78.2858407 132.853587 82.7963506 132.878662 86.0506525 133.033847 89.3156293 132.829457 92.5568302 132.593842 96.289064 134.676529 100.921847 129.445208 103 133.630454 103 137.814754 103 142 103 138.473342 101.788431 138.564181 99.0756234 138.614806 96.2720815zM147.220114 97.0134185C145.979269 97.2046266 144.308285 98.7525464 144.061866 99.9376725 143.665748 101.84291 145.218141 103.35204 147.393142 102.928096 148.714183 102.668437 149.805329 101.377895 151 100.550086 150.986877 100.060885 150.973268 99.5707716 150.959659 99.0802015 149.701803 98.3267771 148.316607 96.8436585 147.220114 97.0134185z"/>
  </g>
</svg>
