<svg xmlns="http://www.w3.org/2000/svg" width="300" height="300" style="background:#ff6602" viewBox="0 0 300 300">
  <path fill="#FFF" d="M190.605877,207.679977 L190.605877,125.012368 C190.605877,106.229178 175.420329,91 156.684712,91 L61.3308578,91 C60.5955772,91 60,91.5936752 60,92.3233732 L60,207.679307 C60,208.409005 60.5955772,209 61.3308578,209 L86.8009757,209 C87.5362563,209 88.131165,208.405655 88.131165,207.671936 L88.131165,117.131094 C88.131165,116.396035 88.7267422,115.79968 89.4620228,115.79968 L144.23307,115.79968 C154.518308,115.79968 162.859063,124.156698 162.859063,134.468289 L162.859063,207.669256 C162.859063,208.403645 163.453972,208.99665 164.185242,208.99665 L189.280367,208.99665 C190.0103,208.99665 190.606545,208.404315 190.606545,207.675957 L190.605877,207.679977 Z M139.171666,207.671266 C139.171666,208.406325 138.582105,209 137.846156,209 L112.382054,209 C111.646774,209 111.051196,208.405655 111.051196,207.671266 L111.051196,138.290325 C111.051196,137.555936 111.646774,136.959581 112.382054,136.959581 L137.846156,136.959581 C138.582105,136.959581 139.171666,137.555936 139.171666,138.290325 L139.171666,207.674617 L139.171666,207.671266 Z M241,207.671266 C241,208.406325 240.403754,209 239.668474,209 L214.210388,209 C213.473102,209 212.873514,208.405655 212.873514,207.671266 L212.873514,92.3354345 C212.873514,91.5976958 213.473102,91.0020104 214.210388,91.0020104 L239.668474,91.0020104 C240.404423,91.0020104 241,91.5976958 241,92.3354345 L241,207.671266 Z"/>
</svg>
