<svg xmlns="http://www.w3.org/2000/svg" width="300" height="300" style="background:#fff" viewBox="0 0 300 300">
  <g fill="none" transform="translate(44 108)">
    <polyline fill="#BA0100" points="0 0 0 70.286 58.889 70.286 58.889 82 106 82 106 70.286 212 70.286 212 0"/>
    <polyline fill="#FFF" points="12 12 12 59.2 35.5 59.2 35.5 23.8 47.25 23.8 47.25 59.2 59 59.2 59 12 70.75 12 70.75 71 94.25 71 94.25 23.8 106 23.8 106 47.4 94.25 47.4 94.25 59.2 117.75 59.2 117.75 12 129.5 12 129.5 59.2 153 59.2 153 23.8 164.75 23.8 164.75 59.2 176.5 59.2 176.5 23.8 188.25 23.8 188.25 59.2 200 59.2 200 12"/>
  </g>
</svg>
