<svg xmlns="http://www.w3.org/2000/svg" width="300" height="300" style="background:#c92327" viewBox="0 0 300 300">
  <path fill="#FFF" fill-rule="evenodd" d="M94.9931493,149.882376 C82.3018203,149.882376 70.3699354,143.306327 66.2830299,135.535342 C66.2830299,135.535342 60.0039147,159.394998 58.4771971,165.236904 C55.6508123,176.092853 48.0172245,189.697933 42.904678,198 L34.3472304,194.977517 C33.2511255,185.090013 32.264631,169.922925 34.777843,159.129457 C37.0561754,149.374724 49.4656489,97.0162512 49.4656489,97.0162512 C49.4656489,97.0162512 45.7154042,89.5342379 45.7154042,78.4674187 C45.7154042,61.0900915 55.815228,48.1176239 68.3812879,48.1176239 C79.0683108,48.1176239 84.2356626,56.1229094 84.2356626,65.7214421 C84.2356626,76.4446198 77.3928362,92.470811 73.8618125,107.325497 C70.9101585,119.766882 80.1174398,129.912117 92.4094735,129.912117 C114.676062,129.912117 131.790957,106.489823 131.790957,72.6879931 C131.790957,42.7677501 110.236837,21.8524771 79.4676062,21.8524771 C43.8285379,21.8524771 22.9007634,48.5237457 22.9007634,76.0775481 C22.9007634,86.8163459 27.0503034,98.336147 32.2254844,104.591985 C33.2511255,105.82597 33.3998826,106.911565 33.094539,108.176791 C32.1471912,112.128668 30.0332746,120.618176 29.6183206,122.352004 C29.0702682,124.640344 27.8019182,125.124566 25.429634,124.023351 C9.78665101,116.760019 0,93.9390975 0,75.6167561 C0,36.1995109 28.7101194,0 82.7715796,0 C126.22431,0 160,30.8886873 160,72.1725308 C160,115.237062 132.777452,149.897996 95.0009787,149.897996 L94.9931493,149.882376 Z" transform="translate(71 52)"/>
</svg>
