<svg xmlns="http://www.w3.org/2000/svg" width="300" height="300" viewBox="0 0 300 300">
  <g fill="none" fill-rule="evenodd">
    <rect width="300" height="300" fill="#DC4E41" fill-rule="nonzero"/>
    <path fill="#FFF" fill-rule="nonzero" d="M120,142.5 L120,160.5 L149.775,160.5 C148.575,168.225 140.775,183.15 120,183.15 C102.075,183.15 87.45,168.3 87.45,150 C87.45,131.7 102.075,116.85 120,116.85 C130.2,116.85 137.025,121.2 140.925,124.95 L155.175,111.225 C146.025,102.675 134.175,97.5 120,97.5 C90.975,97.5 67.5,120.975 67.5,150 C67.5,179.025 90.975,202.5 120,202.5 C150.3,202.5 170.4,181.2 170.4,151.2 C170.4,147.75 170.025,145.125 169.575,142.5 L120,142.5 Z"/>
    <path fill="#FFF" fill-rule="nonzero" d="M120,143.4 L169.575,143.4 C170.1,145.875 170.4,148.5 170.4,151.65 L170.4,151.125 C170.4,147.675 170.025,145.05 169.575,142.425 L120,142.425 L120,143.4 Z M120,98.4 C133.875,98.4 145.575,103.425 154.575,111.675 L155.1,111.15 C146.025,102.675 134.175,97.5 120,97.5 C90.975,97.5 67.5,120.975 67.5,150 L67.5,150.45 C67.8,121.725 91.2,98.4 120,98.4 Z M120,184.05 C140.775,184.05 148.575,169.2 149.775,161.4 L149.55,161.4 C147.9,169.35 140.025,183.075 120,183.075 C102.225,183.075 87.75,168.45 87.525,150.45 C87.525,150.6 87.45,150.75 87.45,150.9 C87.45,169.2 102.075,184.05 120,184.05 Z" opacity=".4"/>
    <path fill="#3E2723" fill-rule="nonzero" d="M120,116.85 C102.075,116.85 87.45,131.7 87.45,150 C87.45,150.15 87.525,150.3 87.525,150.45 C87.75,132.375 102.225,117.825 120,117.825 C130.2,117.825 137.025,122.175 140.925,125.925 L155.175,112.2 C155.025,112.05 154.8,111.9 154.65,111.75 L140.925,125.025 C137.025,121.275 130.2,116.85 120,116.85 Z M120,160.5 L120,161.4 L149.55,161.4 C149.625,161.1 149.7,160.725 149.775,160.5 L120,160.5 Z" opacity=".1"/>
    <path fill="#3E2723" fill-rule="nonzero" d="M120,202.5 C91.2,202.5 67.8,179.25 67.5,150.45 L67.5,150.9 C67.5,179.925 90.975,203.4 120,203.4 C150.3,203.4 170.4,182.1 170.4,152.1 L170.4,151.65 C170.175,181.425 150.15,202.5 120,202.5 Z" opacity=".1"/>
    <polyline fill="#FFF" fill-rule="nonzero" points="232.5 142.5 217.5 142.5 217.5 127.5 202.5 127.5 202.5 142.5 187.5 142.5 187.5 157.5 202.5 157.5 202.5 172.5 217.5 172.5 217.5 157.5 232.5 157.5"/>
    <path fill="#FFF" fill-rule="nonzero" d="M217.5,142.5 L232.5,142.5 L232.5,143.4 L217.5,143.4 L217.5,142.5 Z M202.5,127.5 L217.5,127.5 L217.5,128.4 L202.5,128.4 L202.5,127.5 Z M187.5,142.5 L202.5,142.5 L202.5,143.4 L187.5,143.4 L187.5,142.5 Z" opacity=".4"/>
    <path fill="#3E2723" fill-rule="nonzero" d="M187.5,157.5 L202.5,157.5 L202.5,158.4 L187.5,158.4 L187.5,157.5 Z M217.5,157.5 L232.5,157.5 L232.5,158.4 L217.5,158.4 L217.5,157.5 Z M202.5,172.5 L217.5,172.5 L217.5,173.4 L202.5,173.4 L202.5,172.5 Z" opacity=".1"/>
    <polygon points="30 30 270 30 270 270 30 270"/>
  </g>
</svg>
