<svg xmlns="http://www.w3.org/2000/svg" width="300" height="300" style="background:#fff" viewBox="0 0 300 300">
  <g fill="none" transform="translate(32 84)">
    <circle cx="66.5" cy="66.5" r="66.5" fill="#FFF"/>
    <circle cx="168.5" cy="66.5" r="66.5" fill="#FFF"/>
    <path fill="#005EAC" d="M55.6364675,43.0561339 L55.6364675,1 C24.0637869,6.27509148 0,33.5986428 0,66.5333783 C0,82.9018723 5.95451745,97.879099 15.8098915,109.461008 C39.1828444,98.1956514 55.5210669,72.7174832 55.6364675,43.0561339 Z M66.7651741,83.3153444 C62.60918,100.45607 50.1859448,115.110491 34.7081247,124.846236 C44.2220069,130.040821 55.1426783,133 66.7588938,133 C78.3782495,133 89.3004909,130.039258 98.8159432,124.842328 C83.3420483,115.106583 70.9211682,100.453725 66.7651741,83.3153444 Z M117.710251,23.6018403 C107.737906,11.8886205 93.7650052,3.6559136 77.8891704,1.00156322 L77.8891704,42.7411447 L77.8923106,42.7411447 C77.8923106,72.5298966 94.2580094,98.1409386 117.704756,109.451629 C107.854092,97.8705013 101.902715,82.896401 101.902715,66.5325967 C101.902715,50.1625395 107.851737,35.1814048 117.710251,23.6018403 Z M117.710251,23.6018403 C127.568765,35.1806232 133.97939,50.1617579 133.97939,66.5333783 C133.97939,82.8995275 127.56641,97.8736277 117.713391,109.456319 C117.71094,109.45471 117.708305,109.453398 117.705541,109.452411 C117.707923,109.455725 117.710546,109.45886 117.713391,109.46179 C141.085559,98.196433 157.885384,72.7174832 158,43.0569155 L158,1 C142.121025,3.65356876 127.684166,11.8862756 117.710251,23.6018403 Z"/>
    <path fill="#F33" d="M102,67.0043061 C102,83.3958468 107.93808,98.3945449 117.764654,109.996085 C117.767411,109.997074 117.77004,109.998388 117.772486,110 C127.602193,98.3984596 134,83.3981956 134,67.0043061 C134,50.6057191 127.604542,35.5991916 117.769353,24 C107.934947,35.5991916 102,50.6057191 102,67.0043061 Z"/>
    <path fill="#005EAC" d="M180.263882,42.7408574 L180.267028,42.7408574 C180.267028,72.5330886 196.668054,98.1475604 220.163712,109.45604 C230.035633,97.8739934 236,82.8989342 236,66.5325912 C236,33.5998105 211.893983,6.27828044 180.264668,1 L180.264668,42.7408574 L180.263882,42.7408574 Z M169.118546,83.314756 C164.954579,100.455685 152.507512,115.110279 137,124.846139 C146.532133,130.040786 157.472967,133 169.111467,133 C180.753112,133 191.697093,130.039223 201.230799,124.842231 C185.726433,115.106371 173.282512,100.45334 169.118546,83.314756 Z"/>
  </g>
</svg>
