<svg xmlns="http://www.w3.org/2000/svg" width="300" height="300" style="background:#75b501" viewBox="0 0 300 300">
  <path fill="#FFF" fill-rule="evenodd" d="M66.1594313,63.1148815 L99.1224645,63.1148815 L99.1224645,57 L108.103697,57 L108.103697,63.1148815 L140.68455,63.1148815 L140.68455,70.4718483 L108.103697,70.4718483 L108.103697,75.3446445 L136.671659,75.3446445 L136.671659,82.4149763 L108.103697,82.4149763 L108.103697,87.1922275 L144.888531,87.1922275 L144.888531,94.7402844 L101.51109,94.7402844 C96.7338389,98.2754502 91.7654976,101.237346 86.7971564,103.721517 C94.2496682,103.434882 101.797725,103.148246 109.345782,102.766066 C113.167583,100.664076 116.989384,98.4665403 120.811185,96.1734597 L127.785972,100.759621 C114.982938,107.829953 102.08436,113.467109 89.090237,117.67109 C99.2180095,117.28891 111.256682,116.52455 125.301801,115.378009 C123.3909,113.467109 121.575545,111.556209 119.664645,109.645308 L125.875071,105.823507 C132.849858,112.416114 138.200379,118.24436 141.926635,123.212701 L135.525118,127.607773 C133.996398,125.505782 132.372133,123.403791 130.556777,121.301801 C122.24436,121.875071 114.887393,122.352796 108.390332,122.734976 L108.390332,136.87564 C108.390332,142.608341 105.523981,145.474692 99.8868246,145.474692 L90.8100474,145.474692 L88.9946919,137.44891 C91.7654976,137.735545 94.4407583,137.926635 96.9249289,137.926635 C98.6447393,137.926635 99.6001896,136.87564 99.6001896,134.964739 L99.6001896,123.212701 C91.2877725,123.594882 84.7907109,123.881517 80.0134597,123.881517 L69.6945972,124.263697 L67.8792417,116.811185 C69.4079621,117.002275 70.9366825,117.09782 72.6564929,117.28891 C80.96891,114.995829 89.185782,112.129479 97.402654,108.594313 C90.2367773,108.976493 82.6887204,109.263128 74.8540284,109.645308 L73.3253081,103.148246 C75.0451185,102.957156 76.7649289,102.574976 78.3891943,101.810616 C81.8288152,100.664076 86.0327962,98.2754502 91.0011374,94.7402844 L62.0509953,94.7402844 L62.0509953,87.1922275 L99.1224645,87.1922275 L99.1224645,82.4149763 L70.1723223,82.4149763 L70.1723223,75.3446445 L99.1224645,75.3446445 L99.1224645,70.4718483 L66.1594313,70.4718483 L66.1594313,63.1148815 Z M87.0837915,125.696872 L92.1476777,131.429573 C84.6951659,136.397915 75.4272986,140.601896 64.5351659,143.945972 L61,136.49346 C71.6054976,133.722654 80.3000948,130.091943 87.0837915,125.696872 Z M118.709194,125.410237 C128.550332,128.658768 137.531564,132.671659 145.748436,137.353365 L141.25782,144.232607 C132.563223,138.97763 123.581991,134.773649 114.409668,131.716209 L118.709194,125.410237 Z M215.846635,84.0392417 L192.533649,84.0392417 L192.533649,75.3446445 L219.190711,75.3446445 L219.190711,57.19109 L228.171943,57.19109 L228.171943,75.3446445 L238.395261,75.3446445 L238.395261,84.0392417 L228.171943,84.0392417 L228.171943,134.487014 C228.171943,140.984076 225.114502,144.328152 218.999621,144.328152 L208.394123,144.328152 L206.292133,135.538009 C209.636208,135.824645 212.884739,136.015735 215.94218,136.015735 C218.04417,136.015735 219.190711,134.678104 219.190711,132.193934 L219.190711,93.0204739 C212.598104,109.167583 202.756967,122.734976 189.762843,133.722654 L184.890047,125.505782 C199.030711,114.613649 209.349573,100.855166 215.846635,84.0392417 Z M153.264644,75.1535545 L167.883033,75.1535545 L167.883033,57.2866351 L176.864265,57.2866351 L176.864265,75.1535545 L188.807393,75.1535545 L188.807393,83.8481517 L176.864265,83.8481517 L176.864265,88.4343128 C181.545971,92.6382938 186.323223,97.51109 191.196019,102.861611 L185.941043,110.791848 C182.405877,105.632417 179.348436,101.332891 176.864265,98.0843602 L176.864265,144.996967 L167.883033,144.996967 L167.883033,98.4665403 C164.634502,107.734408 160.526066,116.237915 155.366635,123.881517 L151.258199,113.467109 C158.615166,104.868057 163.965687,94.9313744 167.309763,83.8481517 L153.264644,83.8481517 L153.264644,75.1535545 Z M98.7402844,153.680948 L108.103697,153.680948 L108.103697,170.210237 L142.117725,170.210237 L142.117725,216.358483 L133.040948,216.358483 L133.040948,210.912417 L108.103697,210.912417 L108.103697,242.92 L98.7402844,242.92 L98.7402844,210.912417 L73.8985782,210.912417 L73.8985782,216.358483 L64.8218009,216.358483 L64.8218009,170.210237 L98.7402844,170.210237 L98.7402844,153.680948 Z M73.8985782,202.02673 L98.7402844,202.02673 L98.7402844,179.095924 L73.8985782,179.095924 L73.8985782,202.02673 Z M108.103697,202.02673 L133.040948,202.02673 L133.040948,179.095924 L108.103697,179.095924 L108.103697,202.02673 Z M172.087014,172.885498 L219.381801,172.885498 L219.381801,181.10237 L200.368341,181.10237 L200.368341,192.854408 L216.419905,192.854408 L216.419905,200.88019 L200.368341,200.88019 L200.368341,214.160948 L210.113934,214.160948 C208.394123,210.339147 206.578768,207.090616 204.667867,204.224265 L211.833744,201.931185 C214.031279,204.988626 215.94218,208.237156 217.566445,211.867867 L212.407014,214.160948 L222.152607,214.160948 L222.152607,222.37782 L169.507298,222.37782 L169.507298,214.160948 L191.196019,214.160948 L191.196019,200.88019 L175.144455,200.88019 L175.144455,192.854408 L191.196019,192.854408 L191.196019,181.10237 L172.087014,181.10237 L172.087014,172.885498 Z M235.91109,157.693839 L235.91109,242.060095 L226.738768,242.060095 L226.738768,238.429384 L164.825592,238.429384 L164.825592,242.060095 L155.65327,242.060095 L155.65327,157.693839 L235.91109,157.693839 Z M164.825592,229.925877 L226.738768,229.925877 L226.738768,166.292891 L164.825592,166.292891 L164.825592,229.925877 Z"/>
</svg>
