<svg xmlns="http://www.w3.org/2000/svg" width="300" height="300" style="background:#fff" viewBox="0 0 300 300">
  <defs>
    <radialGradient id="sf-express-a" cx="41.098%" cy="44.041%" r="120.501%" fx="41.098%" fy="44.041%">
      <stop offset="0%" stop-color="#FFF"/>
      <stop offset="53%" stop-color="#E60012"/>
      <stop offset="75%" stop-color="#C1372E"/>
      <stop offset="100%" stop-color="#A32B2B"/>
    </radialGradient>
  </defs>
  <g fill="none" fill-rule="evenodd" transform="translate(35 35)">
    <path fill="url(#sf-express-a)" d="M163,105 C169.589595,105 175,110.34104 175,117 C175,123.65896 169.65896,129 163,129 C156.34104,129 151,123.65896 151,117 C151,110.34104 156.410405,105 163,105 Z"/>
    <path fill="#231815" d="M36 24.2363709L54.5376525 41C93.384939 22.1920259 134.208666 19.6025222 176.25915 41L198 25.5992675C141.501052-9.63161155 87.7282289-6.97396303 36 24.2363709zM36 205.763629L54.5376525 189C93.384939 207.807974 134.208666 210.397478 176.25915 189L198 204.400732C141.501052 239.631612 87.7282289 236.973963 36 205.763629zM24.21545 197L41 178.462347C22.1685537 139.615061 19.5758184 98.7913336 41 56.7408498L25.5800476 35C-9.62656937 91.4989483-6.96560413 145.271771 24.21545 197zM206.78455 197L190 178.462347C208.831446 139.615061 211.424182 98.7913336 190 56.7408498L205.419952 35C240.626569 91.4989483 237.965604 145.271771 206.78455 197zM105.805114 72.2495024L105.805114 89.4890889C96.7312347 83.4005048 86.9699402 80.4588293 76.3150061 81.9638726 61.1918738 86.2053582 65.7288135 98.7245817 78.1022854 104.129055 107.111203 118.495377 117.834878 136.555897 104.017835 159.131546 84.5639874 177.260476 64.0790172 172.471702 46 159.131546L46 138.608228C58.2359889 149.006709 70.4032362 153.385017 82.6392251 151.743151 94.5315064 145.928211 93.0879347 134.571976 80.8519458 126.362649 69.7845626 121.163409 59.8857851 115.827346 52.1867359 106.865498 42.8378905 88.2576899 49.6433001 72.7283798 68.1347664 66.7766178 80.7144628 61.5773774 93.2941592 63.8349423 105.805114 72.2495024zM184 72.630034L184 90.3106871C167.482124 82.6649993 153.080173 81.8458184 140.521127 86.6926384L140.521127 171 121 171 121 72.2204435C142.910076 62.4585385 163.591549 62.5950687 184 72.630034z"/>
  </g>
</svg>
