<svg xmlns="http://www.w3.org/2000/svg" width="300" height="300" style="background:#e50213" viewBox="0 0 300 300">
  <g fill="#FFF" transform="translate(51 55)">
    <path d="M100.486125,62 C87.9938333,62 78,72 78,84.5 C78,97 87.9938333,107 100.486125,107 C112.978416,107 122.97225,96.375 122.97225,84.5 C123.596864,72 113.603031,62 100.486125,62 Z"/>
    <path d="M118.193939,23.8013256 L120.00303,12.3199242 C121.209091,6.27708133 116.987879,1.44280704 111.560606,0.234238471 C106.133333,-0.974330101 101.309091,2.65137562 100.10303,7.4856499 C100.10303,8.08993419 100.10303,8.69421848 99.5,8.69421848 L97.0878788,23.1970413 C30.7545455,27.4270313 0,81.2083328 0,81.2083328 C0,81.2083328 20.5030303,130.759644 76.5848485,140.428193 L69.9515152,179.706671 C68.7454545,185.749514 72.9666667,191.188073 78.9969697,191.792357 C84.4242424,193.000926 89.8515152,188.770936 91.0575758,183.332377 L97.6909091,141.636761 L99.5,141.636761 C162.215152,139.219624 199,83.62547 199,83.62547 C199,83.62547 177.290909,30.4484528 118.193939,23.8013256 Z M99.5,122.903949 L93.469697,122.903949 C47.0363636,121.091096 30.7545455,81.2083328 30.7545455,81.2083328 C30.7545455,81.2083328 52.4636364,44.3469914 99.5,42.5341385 L101.912121,42.5341385 C150.154545,41.9298542 168.245455,83.0211857 168.245455,83.0211857 C168.245455,83.0211857 142.918182,121.091096 99.5,122.903949 Z"/>
  </g>
</svg>
