<svg xmlns="http://www.w3.org/2000/svg" width="300" height="300" style="background:#16b005" viewBox="0 0 300 300">
  <g fill="none">
    <polygon fill="#167E67" points="9.455 0 39 91.661 0 104 0 0"/>
    <polygon fill="#F7FAFA" points="39 91.512 94.024 256 255 203.317 202.902 40"/>
    <polygon fill="#8BD2DE" points="9 0 38.765 91.013 202.971 39.916 190.067 0"/>
    <polygon fill="#829D34" points="190 0 202.872 40 300 10 299.415 0"/>
    <polygon fill="#47AF87" points="0 285 0 103.308 38.775 91 94 255.695"/>
    <polygon fill="#E9AB1F" points="255.006 203 203 39.827 300 10 300 188.379"/>
    <polygon fill="#C51012" points="287.143 300 255 203.605 300 189 300 300"/>
    <polygon fill="#190319" points="0 300 0 285.333 93.405 256 108 300"/>
    <polygon fill="#D41439" points="108.621 300 94 255.909 254.833 203 287 300"/>
    <path fill="#111" d="M108.143918,128.592455 C108.143918,108.071507 123.329348,94 150.195877,94 C166.549416,94 179.982681,99.2768151 186.99134,104.55363 C188.15945,105.139943 189.911615,106.898881 188.743505,109.830445 C187.575395,113.934635 184.65512,119.21145 182.902955,122.729327 C181.734845,124.488265 179.398626,124.488265 177.646461,123.315639 C172.389966,120.970388 164.213196,116.279886 156.036426,115.693573 L150.195877,115.10726 C143.187217,115.693573 137.930722,118.038824 135.594502,123.315639 L135.010447,126.247203 C135.010447,133.282957 144.355327,135.628208 156.036426,137.973459 C177.646461,141.491336 194,147.940777 194,170.220663 C194,188.982672 178.814571,206.572056 149.611822,205.985743 C130.338007,205.39943 116.320688,198.949989 108.727973,192.500549 C108.727973,192.500549 105.807698,189.568985 107.559863,186.051108 C109.312028,181.360606 112.232303,176.670103 114.568523,173.738539 C115.736633,171.979601 119.240963,171.393288 120.993128,172.565914 C129.919857,178.894243 140.450305,182.553489 151.363987,183.119544 C161.292921,182.533231 167.717526,179.015355 167.717526,171.979601 C167.717526,166.116473 159.540756,163.184909 146.107492,160.253345 C125.081513,156.735469 108.143918,149.699715 108.143918,128.592455"/>
  </g>
</svg>
