<svg xmlns="http://www.w3.org/2000/svg" xmlns:xlink="http://www.w3.org/1999/xlink" width="300" height="300" style="background:#fff" viewBox="0 0 300 300">
  <defs>
    <path id="so-a" d="M92,184 C41.189803,184 0,142.810197 0,92 C0,41.189803 41.189803,0 92,0 C142.810197,0 184,41.189803 184,92 C184,142.810197 142.810197,184 92,184 Z M92,160.341852 C129.744163,160.341852 160.341852,129.744163 160.341852,92 C160.341852,54.2558372 129.744163,23.6581477 92,23.6581477 C54.2558372,23.6581477 23.6581477,54.2558372 23.6581477,92 C23.6581477,129.744163 54.2558372,160.341852 92,160.341852 Z"/>
  </defs>
  <g fill="none" fill-rule="evenodd" transform="translate(56 59)">
    <path fill="#00BC45" d="M92,184 C41.189803,184 0,142.810197 0,92 C0,41.189803 41.189803,0 92,0 C142.810197,0 184,41.189803 184,92 C184,142.810197 142.810197,184 92,184 Z M92,160.341852 C129.744163,160.341852 160.341852,129.744163 160.341852,92 C160.341852,54.2558372 129.744163,23.6581477 92,23.6581477 C54.2558372,23.6581477 23.6581477,54.2558372 23.6581477,92 C23.6581477,129.744163 54.2558372,160.341852 92,160.341852 Z"/>
    <mask id="so-b" fill="#fff">
      <use xlink:href="#so-a"/>
    </mask>
    <path fill="#FCB200" d="M40.436501,119.929532 C22.6757533,120.526879 10.3099605,126.572996 3.33912267,138.067882 C21.8878118,164.006718 98.4490836,236.778067 180.681112,138.067882 C182.989776,123.078608 171.798945,117.032491 147.108617,119.929532 L40.436501,119.929532 Z" mask="url(#so-b)"/>
    <circle cx="197.5" cy="164.5" r="16.5" fill="#FCB200"/>
  </g>
</svg>
