<svg xmlns="http://www.w3.org/2000/svg" width="300" height="300" style="background:#fc5915" viewBox="0 0 300 300">
  <g fill="#FFF" transform="translate(45 45)">
    <path d="M148 200.119693L156.634127 211C170.261905 205.162629 182.178571 197.011034 192 186.381146L183.74127 175C174.136886 186.14258 161.902693 194.770525 148.122222 200.119693L148 200.119693zM105.5 195.515845C54.728125 195.515845 13.583125 154.834387 13.583125 104.359081 13.583125 54.1656131 54.728125 13.4753477 105.5 13.4753477 156.271875 13.4753477 197.425667 54.4298357 197.425667 104.632111 197.425667 127.091024 189.10875 147.709187 175.384958 163.553729L183.693083 174.659882C200.458792 156.146692 211 131.573999 211 104.632111 211 46.6352718 163.78875 0 105.5 0 47.21125 0 0 46.7761905 0 104.367889 0 162.232617 47.21125 209 105.5 209 120.53375 209 134.77625 205.952634 147.708792 200.280657L139.26 189.183312C128.71 193.14665 117.36875 195.515845 105.5 195.515845z"/>
    <path d="M157.589722,111.155283 C137.878187,94.8459917 110.807679,92.7327986 89.2476406,79.9747241 C82.6771291,75.7746433 87.9510596,67.7427559 94.5215714,67.4797028 C118.166652,63.5339066 141.557673,73.0038175 163.634592,80.6323568 L164.957455,57.3521592 C137.352546,47.3561421 107.399774,40.9113416 78.217942,45.5147705 C67.7051235,48.1453013 57.192305,51.4334648 49.7106825,59.1935307 C39.4519238,69.715654 41.291667,88.6554758 53.1185878,97.0731744 C72.707473,112.46178 98.4638783,114.706499 119.883746,126.53512 C128.294001,129.95481 124.745925,141.266092 116.458319,142.055251 C90.8333242,146.921733 65.6025598,135.733209 43.5256409,123.641536 C43.2628205,132.58534 43,141.266092 43,149.946844 C70.9903792,162.30157 102.134604,168.088738 132.358957,163.353782 C142.608955,161.380884 153.121774,158.092721 160.612157,150.604476 C171.379035,140.082353 170.345275,119.818497 157.721132,111.146514 L157.589722,111.146514 L157.589722,111.155283 Z"/>
  </g>
</svg>
