<svg xmlns="http://www.w3.org/2000/svg" width="300" height="300" style="background:#2fa399" viewBox="0 0 300 300">
  <path fill="#FFF" d="M55.2027092,16.4580729 C24.7621335,16.4580729 0,41.1965205 0,71.6168399 C0,80.3066441 2.06438738,89.0494871 6.05897448,96.7675864 C7.31072524,99.1828386 10.2200443,100.134779 12.6369246,98.8573526 C15.1138892,97.6329642 16.0594616,94.6788212 14.7879332,92.2830829 C11.471795,85.849165 9.81422677,78.8696015 9.81422677,71.6168399 C9.81422677,46.6262095 30.2012411,26.2924575 55.2024589,26.2924575 C80.2570015,26.2924575 100.617228,46.6262095 100.617228,71.6168399 C100.617228,96.6012159 80.256751,116.941722 55.2024589,116.941722 C51.7471261,116.941722 48.298052,116.568952 44.9824146,115.803897 C42.3459771,115.178443 39.762614,116.834645 39.1102015,119.496826 C38.5641878,122.104968 40.1486539,124.73963 42.8116285,125.365084 C46.8335036,126.262985 51.0416394,126.722318 55.2024589,126.722318 C85.6635632,126.722318 110.431705,101.984371 110.431705,71.6168399 C110.431956,41.1965202 85.6638137,16.4580729 55.2027092,16.4580729 Z M45.5554661,85.5491977 C48.5443967,87.6121944 52.1266569,88.8365825 56.0216046,88.8365825 C66.1557788,88.8365825 74.2786399,80.6926743 74.2786399,70.5523176 C74.2786399,60.4787593 66.1557788,52.3341005 56.0216046,52.3341005 C45.9344964,52.3341005 37.7250141,60.4787593 37.7250141,70.5523176 C37.7250141,73.1604597 38.2710279,75.6357556 39.2501472,77.8576175 C35.3346708,81.9966203 31.014128,87.1728756 26.7992328,93.4807018 C15.0873519,110.807022 1.98402505,141.613372 5.71274009,183.064944 C5.95282597,185.620048 8.07654619,189 10.5732883,189 L11.0662278,189 C13.7559899,189 15.7665519,184.888267 15.5537541,182.200317 C12.6970086,151.447006 19.1890886,123.288827 34.7155549,100.087495 C38.3508894,94.5985127 42.0993823,89.2488817 45.5554661,85.5491977 Z M157.691055,56.9789704 C153.643143,57.138336 149.621268,56.2737088 145.906322,54.5301938 C133.04283,48.4220124 127.576435,33.0791314 133.748567,20.2835982 C139.807542,7.40925805 155.174535,1.97956898 167.991461,8.08775019 C180.847943,14.1161237 186.281292,29.5122935 180.168993,42.3075763 C179.356857,44.0708555 178.317904,45.7871008 177.126238,47.2779322 C176.174406,48.4750506 176.374186,50.2450849 177.566103,51.1900203 C178.764779,52.1479652 180.555033,51.9218013 181.481078,50.7306872 C182.939368,48.8808451 184.144053,46.8451181 185.229571,44.6960591 C192.673483,29.1665425 186.01492,10.4161895 170.421861,3.03058139 C154.815533,-4.38154608 136.092846,2.27228128 128.6955,17.8685961 C121.271366,33.4514013 127.929929,52.1477151 143.536758,59.5600929 C147.997747,61.6756277 152.964694,62.7003711 157.864547,62.594044 C159.429236,62.514236 160.64769,61.2435642 160.581597,59.6929392 C160.55456,58.1363099 159.242975,56.9522009 157.691055,56.9789704 Z M203.166659,78.1640898 C186.747694,72.1091969 174.276502,62.1419658 166.173919,48.5288397 C164.242968,45.3210125 162.830993,42.3075763 161.739467,39.5923565 C163.510193,38.6146471 165.042086,37.0442578 165.986907,35.0880886 C168.397028,29.9248429 166.226993,23.7568681 161.066526,21.2883272 C155.867254,18.8130313 149.70163,21.0158797 147.251453,26.1788751 C144.774489,31.3618855 146.958293,37.5033409 152.204631,39.9984011 C153.503448,40.5708165 154.868356,40.9495911 156.306368,40.9828653 C157.45172,43.9637779 159.029427,47.470572 161.193453,51.1632511 C167.22589,61.3696558 179.104004,75.2292106 201.262496,83.4066433 C202.647182,83.8857408 204.12525,83.267042 204.764143,81.9963702 C204.764143,81.9098074 204.817218,81.8567689 204.844005,81.716417 C205.336694,80.2796248 204.631208,78.7357546 203.166659,78.1640898 Z" transform="translate(48 56)"/>
</svg>
