<svg xmlns="http://www.w3.org/2000/svg" width="300" height="300" style="background:#fff" viewBox="0 0 300 300">
  <g fill="none" fill-rule="evenodd">
    <circle cx="150.5" cy="150.5" r="115.5" fill="#383838"/>
    <path fill="#FFF" d="M116,86.0309688 L116,172.662291 C116,179.105365 116.627756,184.988171 117.813517,190.310709 C118.999278,195.633248 121.161549,200.115386 124.230578,203.89719 C127.299607,207.608961 131.414896,210.550364 136.506694,212.651366 C141.598492,214.752368 148.085303,215.802869 155.897377,215.802869 C162.035435,215.802869 167.196984,215.312635 171.451774,214.262134 C175.636813,213.281666 180.868113,211.810965 184.355645,210.410297 L178.49659,188.699941 C175.776315,189.680409 173.265291,190.380743 169.98701,190.94101 C166.708729,191.501277 163.569949,191.781411 160.50092,191.781411 C154.08386,191.781411 149.829069,190.030576 147.73655,186.458872 C145.64403,182.887168 144.59777,178.19493 144.59777,172.242091 L144.59777,138.275889 L180.310107,138.275889 L180.310107,113.41403 L144.528019,113.41403 L144.528019,84 L116,86.0309688 Z"/>
  </g>
</svg>
