<svg xmlns="http://www.w3.org/2000/svg" width="300" height="300" style="background:#007ad1" viewBox="0 0 300 300">
  <g fill="none" fill-rule="evenodd">
    <path fill="#FFF" fill-rule="nonzero" d="M99.3891962,109.206068 L74.0734478,140.278024 L55,140.278024 L89.225115,98.1750768 L58.1699731,98.1750768 L58.1699731,87.4563375 L91.0286874,87.4563375 L91.0286874,66.8202421 L57.7149316,66.8202421 L57.7149316,56.0536113 L142.848525,56.0536113 L142.848525,66.8202421 L106.604124,66.8202421 L106.604124,87.4550604 L142.848525,87.4550604 L142.848525,98.1737997 L109.538599,98.1737997 L143.497581,140.276747 L124.423495,140.276747 L99.3911108,109.20543 L99.3891962,109.206068 Z M198.218707,66.1772199 L198.218707,135.179823 L183.695035,142.037875 L183.695035,64.0470093 C183.621642,60.0317923 187.509597,56.1430087 191.334371,56.1972856 L245.084146,56.196724 L245.080316,66.4051831 L198.22126,66.1778584 L198.218707,66.1772199 Z M240.725193,139.919158 L200.266074,139.919158 L200.266074,130.45262 L214.859949,130.441126 L214.859949,121.934332 L203.323723,121.968814 L203.323723,112.290276 L214.861225,112.290276 L214.859949,105.611019 L228.96049,105.611019 L228.96049,112.361794 L240.60521,112.28836 L240.60521,121.966898 L228.96049,121.932416 L228.96049,130.43921 L245.224551,130.43921 L240.725193,139.917881 L240.725193,139.919158 Z M242.60535,102.870352 L201.323583,102.870352 L201.323583,93.3571996 L214.861225,93.3571996 L214.861225,84.9551281 L203.323723,84.9551281 L203.323723,75.4451683 L214.861225,75.4451683 L214.861225,69.7045829 L228.958575,69.7045829 L228.956022,75.4451683 L240.604572,75.4451683 L240.604572,84.9551281 L228.956022,84.9551281 L228.956022,93.3571996 L242.605989,93.3571996 L242.605989,102.870352 L242.60535,102.870352 Z M163.979552,107.46282 L178.549812,107.46282 L178.549812,134.769233 L163.979552,141.565984 L163.979552,107.464097 L163.979552,107.46282 Z M171.021525,81.1155129 C172.480466,81.1155129 173.940683,81.4960901 175.381116,82.2610758 C176.823463,83.0305314 177.955004,84.130757 178.785949,85.5553673 C179.602215,86.9691221 180.025346,88.5093103 180.025346,90.1222935 C179.995351,91.7537947 179.57222,93.2454529 178.785949,94.6279187 C177.983723,96.0071917 176.88856,97.1067788 175.49344,97.9222101 C174.095767,98.7210391 172.606831,99.1131102 171.022802,99.0837368 C169.422179,99.0837368 167.931966,98.6923042 166.537484,97.8941138 C165.141088,97.0914535 164.043372,96.0084688 163.241785,94.6291958 C162.458705,93.2454529 162.051529,91.7550718 162.051529,90.1235706 C162.051529,88.5105874 162.458705,86.9857245 163.241785,85.5758009 C164.074644,84.1326727 165.203632,83.032447 166.646618,82.2968347 C168.088327,81.5420659 169.54982,81.1480791 171.02344,81.1180672 L171.021525,81.1155129 Z M171.021525,55 C172.449832,55 173.906858,55.3952639 175.351758,56.1621652 C176.810699,56.9456689 177.940963,58.0612198 178.754039,59.5062638 C179.571581,60.949392 179.978757,62.457014 179.995351,64.0585033 C180.009391,65.6446672 179.618171,67.1356869 178.833814,68.5143214 C178.000955,69.9274377 176.887922,71.0417115 175.492164,71.8392633 C174.094491,72.6559718 172.605554,73.0505971 171.021525,73.0199466 C169.420903,73.0199466 167.93069,72.6246827 166.536208,71.8245766 C165.139811,71.0276633 164.042096,69.9274377 163.240508,68.5456104 C162.457428,67.1516507 162.050252,65.6459443 162.050252,64.0118889 C162.050252,62.4404117 162.457428,60.9513077 163.274333,59.5062638 C164.0906,58.0631355 165.220226,56.9629098 166.679166,56.19537 C168.136831,55.4259144 169.57854,55.0306505 171.022163,55.0006386 L171.021525,55 Z"/>
    <path fill="#FFF" d="M111.935703,230.791745 L111.935703,177.350663 L98.6680225,177.350663 L98.6680225,166.006142 L111.935703,166.006142 L111.935703,157.079819 L113.270832,157.079819 L113.270832,157 L125.316347,157 L125.316347,157.079819 L126.46129,157.079819 L126.46129,166.006142 L140.015525,166.006142 L140.015525,177.350663 L126.46129,177.350663 L126.46129,230.791745 L141.771232,230.791745 L136.483689,242.009832 L96.3149541,242.089651 L96.3149541,230.694685 L111.938256,230.790468 L111.935703,230.791745 Z M77.1489663,199.888367 L81.1460554,199.888367 L81.1460554,239.435189 L67.0467912,245.399907 L67.0467912,209.964723 L55,209.964723 L79.5001201,174.05701 L55.8775343,174.05701 L55.8775343,163.843365 L69.0220412,163.843365 C69.4145383,162.980681 70.1516672,161.644191 71.2034319,159.840281 C72.2532821,158.035093 74.0428139,157.157722 76.5356496,157.221578 C79.0297617,157.28671 80.9584226,157.772648 82.3229087,158.695356 C83.6886712,159.622534 84.5662055,160.610375 84.9580645,161.680589 L85.8368752,163.846558 L90.8684975,163.849112 C93.0913717,163.849112 95.3136077,166.070636 95.3136077,168.296629 L95.3136077,174.059564 L77.1476899,199.889005 L77.1489663,199.888367 Z M81.6655557,196.43763 L93.9306136,196.43763 L97.0061321,222.425433 L84.552165,222.425433 L81.6668321,196.43763 L81.6655557,196.43763 Z M209.950224,190.285817 L222.905822,176.348135 L241.007281,176.348135 L219.003187,199.982873 L242.027773,224.76445 L223.957587,224.76445 L209.950224,209.731651 L195.974772,224.76445 L177.921817,224.76445 L200.933639,199.982873 L178.976773,176.348135 L196.981224,176.348135 L209.949586,190.285817 L209.950224,190.285817 Z M175.303893,231.526719 L243.436934,231.572056 L238.48062,242.537277 L168.106197,242.537277 C164.215688,242.537277 160.324541,238.644662 160.324541,234.751408 L160.311139,176.166787 L160.315606,166.645333 C160.324541,162.331912 164.21505,158.439297 169.131795,158.443128 L243.278659,158.443128 L243.278659,169.458794 L175.300063,169.458794 L175.300063,231.52608 L175.303893,231.526719 Z"/>
  </g>
</svg>
