<svg xmlns="http://www.w3.org/2000/svg" width="300" height="300" style="background:#ff5903" viewBox="0 0 300 300">
  <path fill="#FFF" d="M42,146.544755 L42,133.292136 C46.5661722,130.173895 50.2036766,125.886361 52.9140335,120.429154 C54.8439751,116.568891 56.718797,110.7593 58.5381192,103 L70.120429,103 C69.1180152,107.826184 68.1897274,111.668581 67.3363258,114.52643 C66.5566705,117.236787 65.238365,120.651533 63.3829301,124.772188 L63.4943095,197.495286 L52.8030345,197.495286 L52.8030345,139.807256 C49.8695387,142.145842 46.2685271,144.392435 42,146.544755 Z M68.8952564,197.885302 L68.8952564,187.528165 C73.7955665,184.447558 77.6185766,179.899632 80.3661867,173.885528 C82.4447605,169.356989 84.133697,163.157761 85.433376,155.287082 L89.8881688,128.781463 L69.2293943,128.781463 L69.2293943,118.479825 L91.6143581,118.479825 L94.1757024,103.110999 L104.755598,103.110999 L102.194254,118.479825 L144.402457,118.479825 L144.402457,128.781463 L100.412185,128.781463 L95.5118745,158.79496 C93.8411845,168.744213 91.2608336,176.706885 87.7719614,182.683355 C84.3933287,188.437067 80.4954323,192.613221 76.0782726,195.212199 C74.3330763,196.251106 71.9389912,197.14214 68.8952564,197.885302 Z M110.156926,135.129704 L120.625442,135.129704 L120.680942,179.454115 C120.680942,182.683735 121.460597,184.893075 123.019527,186.080615 C123.65017,186.526132 124.18882,186.794887 124.634338,186.88802 C125.079855,186.980392 126.174261,187.027149 127.919838,187.027149 L144.402077,187.027149 L144.402077,197.495665 L127.919838,197.495665 C120.383296,197.495665 115.130602,194.970433 112.161374,189.922631 C110.787568,187.584045 110.101046,184.336178 110.101046,180.17789 L110.156926,135.129704 Z M122.017493,113.468896 L122.017493,103.00038 L144.235198,103.00038 L144.235198,113.468896 L122.017493,113.468896 Z M156.597163,114.136792 L156.597163,103.835155 L179.650403,103.835155 L179.650403,114.136792 L156.597163,114.136792 Z M156.597163,138.582083 L156.597163,128.224946 L167.121559,128.224946 C170.908076,128.224946 173.692179,129.17148 175.474248,131.064929 C177.107304,132.772872 177.924213,135.519722 177.924213,139.306239 L177.924213,182.516856 C177.924213,184.59657 178.165218,185.895489 178.647988,186.414753 C179.204885,187.008142 180.430058,187.305787 182.323126,187.305787 L187.668954,187.305787 L187.668954,197.607425 L179.371764,197.607425 C175.73312,197.607425 173.246662,197.124274 171.91011,196.159494 C169.05112,194.043667 167.622576,191.147804 167.622576,187.472666 L167.622576,143.649272 C167.622576,141.533445 167.324931,140.160401 166.731541,139.528618 C166.174644,138.897975 164.985965,138.582083 163.167783,138.582083 L156.597163,138.582083 Z M191.176833,139.250359 L191.176833,128.948722 L193.348539,128.948722 C195.055342,128.948722 196.001876,128.912229 196.188522,128.837343 C197.338428,128.280446 197.914712,126.963281 197.914712,124.883947 L198.026091,111.464068 C198.026091,109.571 198.935372,107.696558 200.754694,105.839983 C202.49913,104.057913 204.930849,103.167259 208.04909,103.167259 L241.348088,103.167259 C245.059718,103.167259 247.787941,104.040047 249.533518,105.784483 C251.277953,107.529679 252.150742,109.571 252.150742,111.909586 L252.150742,126.109119 C252.150742,128.077074 253.375914,129.042235 255.825879,129.004602 L259,128.949102 L259,139.250739 L254.15557,139.250739 C251.407579,139.250739 249.552144,139.083861 248.587364,138.749722 C244.24395,137.228045 242.053237,134.425696 242.016743,130.341533 L241.961244,116.309259 C241.961244,114.379317 240.810197,113.413777 238.508865,113.413777 L212.504643,113.413777 C210.722574,113.413777 209.553281,113.711422 208.996384,114.304811 C208.475981,114.898961 208.216729,115.864122 208.216729,117.200293 L208.216729,130.84293 C208.253222,133.590541 206.97255,135.817747 204.374712,137.52493 C202.963274,138.453218 201.552976,139.010114 200.142678,139.19562 C199.882286,139.233253 198.490235,139.251119 195.966523,139.251119 L191.176833,139.25112 L191.176833,139.250359 Z M191.176833,187.138148 C199.009118,184.874449 206.91591,181.792321 214.897968,177.894804 C206.285267,171.621829 200.011152,165.459093 196.076763,159.407737 L207.881831,159.407737 C210.777313,162.378106 213.190025,164.661192 215.120727,166.256995 C217.236554,167.964938 220.373042,170.118398 224.53133,172.716236 L234.33157,166.646633 C239.305626,163.566025 242.664872,160.632909 244.410449,157.848426 C245.003838,156.921279 245.301484,156.197123 245.301484,155.67672 C245.301484,154.562926 243.945925,154.00603 241.236708,154.00603 L191.56647,154.00603 L191.56647,143.704392 L240.679812,143.704392 C246.618649,143.704392 250.442799,144.261289 252.150742,145.375082 C255.416855,147.528543 257.051052,150.55365 257.051052,154.451547 C257.051052,157.903926 255.361356,161.59845 251.983863,165.53246 C248.902115,169.096218 243.352915,173.551011 235.334364,178.896458 C244.057304,183.203379 251.574839,185.931982 257.886207,187.081888 L257.886207,197.550405 C247.380057,194.802414 236.503657,190.422888 225.255486,184.409165 C214.341452,189.791105 202.981901,194.172152 191.176833,197.550405 L191.177213,187.138148 L191.176833,187.138148 Z"/>
</svg>
