<svg xmlns="http://www.w3.org/2000/svg" width="300" height="300" style="background:#f5f5f5" viewBox="0 0 300 300">
  <path d="M124.054316,2.03945771e-06 L7.75089607,2.03945771e-06 C3.46956451,2.03945771e-06 0,3.44563055 0,7.69471626 L0,60.9355156 L109.067049,60.9355156 C111.335476,60.9355156 113.503085,61.8627157 115.062303,63.4975156 L140.374828,90.060401 C140.938024,90.6529725 140.9415,91.5766866 140.380043,92.1710011 L115.06578,118.990086 C113.506562,120.642315 111.792638,122.000001 109.510305,122.000001 L0,122.000001 L0,175.305286 C0,179.554371 3.46956451,183 7.75089607,183 L124.031719,183 C126.593912,183 129.050072,181.989143 130.861338,180.190514 L209.423682,102.136658 C212.359921,99.2304827 214.00879,95.2635305 213.999965,91.1267506 C213.99114,86.9899707 212.325361,83.0301272 209.376749,80.1365725 L130.856123,2.78160201 C129.039633,0.997103975 126.597401,-0.00164726517 124.054316,2.03945771e-06 Z" transform="translate(50 64)"/>
</svg>
