<svg xmlns="http://www.w3.org/2000/svg" width="300" height="300" style="background:#e12214" viewBox="0 0 300 300">
  <g fill="#FFF" transform="translate(31 102)">
    <path d="M177.313353 55.2530791C180.148455 55.2582786 182.982409 55.2542347 186.367331 55.2542347 185.653539 56.8608345 185.261383 57.8533327 184.784949 58.8025034 182.33455 63.6823837 179.820512 68.5316457 177.411966 73.4317459 175.432842 77.4571993 177.249141 80.9020589 181.587505 80.9292109 197.880881 81.0314649 214.175404 81.0181777 230.469926 80.9199675 234.274523 80.8974369 235.998517 78.0256616 234.586986 74.4323318 233.773435 72.3629901 232.696154 70.3987901 231.727805 68.390685 229.209753 63.169958 228.63528 62.9071021 222.493229 64.4201137 223.987319 67.6425566 225.453316 70.8049179 227.004165 74.1469453 212.712273 74.1469453 198.86299 74.1469453 184.637604 74.1469453 186.76522 69.7604258 189.138793 65.9123278 190.536563 61.7332041 192.375222 56.2346007 195.687332 54.8405967 201.198723 55.1161623 211.040451 55.6072125 220.922887 55.2848525 230.788121 55.236325 235.37359 55.2143719 237.272448 53.7926384 238 50 216.433737 50 194.892127 50 173.384917 50 172.570794 55.0797675 172.696352 55.2421026 177.313353 55.2530791zM237.729204 40.3830833C237.229288 37.6701284 239.407332 34.5099377 236.240817 32.2604385 226.871932 25.6040525 218.973822 17.3829237 211.609146 8.56683299 207.574595 3.73935985 202.889016 3.81698885 198.901047 8.77017442 192.112411 17.1998587 184.77898 25.0513814 176.162809 31.5849513 172.81337 34.1241104 172.239603 36.4437075 173.897848 40.7393645 186.124209 33.3489804 196.211157 23.5185008 204.459775 13.1515708 211.71481 20.7760002 218.725 28.1449497 225.288674 35.0423325 212.518653 35.0423325 198.207413 35.0423325 183.960935 35.0423325 183.20822 40.9728307 183.20822 40.9745687 188.414167 40.9751478 199.075449 40.975727 209.736164 40.9282227 220.396311 40.9994794 224.384279 41.0267072 227.515573 39.997256 228.343844 35.2427776 231.405831 37.2564935 234.20309 39.0969932 237.001484 40.9386508 237.244058 40.7538483 237.486631 40.5678864 237.729204 40.3830833zM60.9771988 75.2937852C60.9771988 70.0777128 60.9771988 65.1382594 60.9771988 59.6864003 65.4198816 59.9003339 69.6081551 60.0009746 73.7774772 60.3414283 76.0051359 60.5237318 77.5677699 60.1873037 77.6728646 57.5901947 77.7681959 55.2536012 76.8102857 54.2575441 74.2989296 54.3679618 69.9039125 54.5623426 65.4945385 54.4214451 60.9800699 54.4214451 60.9800699 49.8063425 60.9800699 45.6484372 60.9800699 41.1742321 65.4319414 41.1742321 69.6563949 40.9142914 73.8291628 41.2771731 76.112527 41.4761543 77.4724386 41.5670186 77.5918901 38.8100341 77.7147874 35.9817382 76.1952244 35.6056288 73.8463914 35.683266 69.5679546 35.8253134 65.281478 35.7235222 60.7681582 35.7235222 60.7681582 30.3297468 60.7681582 25.4690811 60.7681582 20.0810565 65.2562096 20.0810565 69.7775699 20.1408662 74.2966325 20.0620786 77.9249768 19.9988189 79.1464848 18.5760443 78.9862587 14.5078528 65.6249022 14.5078528 52.2428707 14.5078528 38.4485015 14.5078528 40.2500392 10.2539072 41.8528737 6.46866048 43.5073938 2.56149484 37.3562078 1.32217474 36.3110061 1.90991691 33.8260671 6.61243312 30.918453 12.1126001 27.8397017 17.5230527 24.8005757 22.9513334 24.4893122 23.5085964 23.9414427 23.933013 22.8950922 25.0946965 22.8950922 20.9195385 22.8950922 17.6489978 22.8950922 14.2542379 15.1203973 14.2542379 7.71324603 14.2542379 0 14.2542379 0 35.3485627 0 56.1024345 0 77.2686456 5.40691049 77.2686456 10.5984629 77.3261545 15.7877183 77.2519679 20.6978707 77.1806565 23.1196378 74.690514 23.1345694 69.798793 23.1604124 61.5657954 23.6135247 53.2948413 22.9909977 45.1084263 22.5040024 38.6984659 26.063432 34.8833144 30.1908312 29.9036043 30.1908312 31.9572529 30.1908312 33.1327384 30.1908312 34.3070735 30.1908312 44.6546797 30.1896825 55.0034358 30.1914054 65.3510415 30.1919795 69.2449801 30.1799197 73.1394941 30.2109309 77.0340081 30.2310312 79.5143742 31.2452216 81.0182361 34.0006495 80.999833 47.555541 80.9124194 61.1104325 80.9198956 74.6647493 80.7807234 77.9025784 80.7462181 79.1556718 79.0123198 78.938592 75.2932086 73.0033386 75.2937852 67.0462622 75.2937852 60.9771988 75.2937852zM15.8043733 71.0904476C13.060431 71.0904476 10.3676003 71.0904476 7.45309454 71.0904476 7.45309454 54.4657274 7.45309454 37.8467575 7.45309454 20.9011365 10.0976855 20.9011365 12.7767329 20.9011365 15.8043733 20.9011365 15.8043733 37.7305894 15.8043733 54.2713467 15.8043733 71.0904476zM53.4603589 75.1741665C48.1344229 75.1741665 42.9669906 75.1741665 37.3228995 75.1741665 37.3228995 70.5625146 37.2671934 65.9341849 37.4032999 61.3121816 37.4176573 60.8153032 38.5334965 59.9520924 39.1554489 59.9359896 43.8002806 59.8186711 48.4497063 59.8721544 53.4603589 59.8721544 53.4603589 65.2751308 53.4603589 70.1179695 53.4603589 75.1741665zM53.6073763 54.2190132C48.0729745 54.2190132 42.9377017 54.2190132 37.3194542 54.2190132 37.3194542 50.3089719 37.2528371 46.4823186 37.3981317 42.663717 37.4176573 42.14441 38.4846821 41.2518693 39.0876836 41.2340417 43.2817 41.1069468 47.4843309 41.0919944 51.6783473 41.2392177 52.3393514 41.2616463 53.4942424 42.261729 53.5212337 42.851772 53.691222 46.5697322 53.6073763 50.2991954 53.6073763 54.2190132zM53.6223079 35.5302924C48.0448344 35.5302924 42.9032447 35.5302924 37.5284942 35.5302924 37.5284942 30.4643191 37.5284942 25.5444186 37.5284942 20.1195885 42.4053378 20.1195885 47.2368128 20.0557533 52.0602474 20.2087275 52.6012258 20.2254052 53.5304218 21.4612747 53.5528185 22.1559845 53.691222 26.4668641 53.6223079 30.7840694 53.6223079 35.5302924z"/>
    <path d="M56.9384682 13C57.9818983 12.4211154 58.5912657 12.1211579 59.1586086 11.7636443 62.7019475 9.52115835 62.770389 9.19131546 60.2554709 6.02073243 58.6260876 3.96807173 56.9576799 1.94086868 55.3865315 0 54.0879475.874968164 52.7167195 1.45385273 51.9344475 2.43175801 51.2818533 3.24695597 50.714511 4.86185623 51.1569781 5.54865889 52.7917648 8.08944207 54.8618146 10.3933586 56.9384682 13zM99.5183323 40.9980409C114.304972 40.6825027 129.092746 40.4640971 143.877685 40.0790144 147.979259 39.9715359 149.888602 37.6989712 149.964001 33.3705218 150.034297 29.373704 149.979874 25.3740122 149.980441 21.3754701 149.980441 17.635566 149.980441 13.8956619 149.980441 10 132.19883 10 114.921767 10 97.5460617 10 97.3289365 10.4609503 97.1554624 10.6575151 97.1543289 10.8546544 97.0965044 20.1811372 97.0664584 29.5064708 97.00013 38.8329541 96.9870917 40.6526155 97.9553695 41.0313767 99.5183323 40.9980409zM104.228197 15.6308348C117.110029 15.6308348 129.961815 15.6308348 142.995578 15.6308348 142.995578 21.4145534 142.995578 27.0574577 142.995578 32.9521028 130.113179 32.9521028 117.252322 32.9521028 104.228197 32.9521028 104.228197 27.2011454 104.228197 21.5691615 104.228197 15.6308348zM160.98883 57.3927196C160.98883 53.2689691 160.98883 49.1440584 160.98883 45 149.78855 45 138.971502 45 128 45 128 57.1043414 128 68.850676 128 80.9532766 137.573282 80.9532766 146.76333 81.0983361 155.944669 80.8772654 159.282862 80.7954518 160.949927 78.4472292 160.976637 74.9042971 161.020766 69.0676851 160.98883 63.2293316 160.98883 57.3927196zM153.461782 75.1450957C147.480441 75.1450957 141.520003 75.1450957 135.312786 75.1450957 135.312786 67.1546408 135.312786 59.0580016 135.312786 50.7443539 141.528132 50.7443539 147.402051 50.7443539 153.461782 50.7443539 153.461782 58.9651639 153.461782 66.8732252 153.461782 75.1450957zM120.989062 45.7888057C120.22203 45.5421861 119.913612 45.3596532 119.603475 45.3556478 109.849328 45.2366296 100.096328 45.173687 90.3444741 45.0008814 88.248608 44.9642607 88.0238873 46.0720461 88.0279001 47.7068314 88.0542704 57.7758956 88.0926791 67.8455324 88.000383 77.913452 87.9797454 80.2285874 88.7903456 81.026239 91.0857088 80.9993451 98.6218833 80.9060757 106.161498 81.0205165 113.698246 80.943269 118.632359 80.892915 120.947786 78.4662001 120.979316 73.470292 121.018872 67.2750451 120.989635 61.0786537 120.989062 54.8822628 120.989062 51.8141083 120.989062 48.7442366 120.989062 45.7888057zM113.598497 75.3253767C107.480586 75.3253767 101.546694 75.3253767 95.4184642 75.3253767 95.4184642 67.1720495 95.4184642 59.1737898 95.4184642 50.9414985 101.507138 50.9414985 107.424406 50.9414985 113.598497 50.9414985 113.598497 58.9941176 113.598497 66.9958106 113.598497 75.3253767z"/>
  </g>
</svg>
