<svg xmlns="http://www.w3.org/2000/svg" width="300" height="300" style="background:#cb1429" viewBox="0 0 300 300">
  <path fill="#FFF" fill-rule="evenodd" d="M46,116.337558 L58.6112638,116.337558 L71.4136074,168.215712 L71.7957669,168.215712 L85.2668896,116.337558 L96.8272148,116.337558 L110.298338,168.215712 L110.680497,168.215712 L123.482841,116.337558 L136.094104,116.337558 L116.41289,184.553031 L104.565945,184.553031 L91.2859019,133.248117 L90.9037424,133.248117 L77.5281595,184.553031 L65.5856749,184.553031 L46,116.337558 Z M162.717883,115 C169.596755,115 175.233607,116.624178 179.437362,119.968074 C183.545577,123.311969 185.647454,127.897883 185.647454,133.821356 C185.647454,141.273466 181.825859,146.24154 174.278209,148.725577 C178.290883,149.967595 181.443699,151.782853 183.545577,154.26689 C185.838534,156.846466 186.985012,160.190362 186.985012,164.203037 C186.985012,170.508669 184.787595,175.667822 180.392761,179.680497 C175.806847,183.788712 169.787834,185.890589 162.335724,185.890589 C155.265773,185.890589 149.53338,184.075331 145.234086,180.444816 C140.457092,176.432141 137.781975,170.508669 137.208736,162.865479 L148.577982,162.865479 C148.769061,167.260313 150.10662,170.699749 152.781736,173.088245 C155.170233,175.285663 158.323049,176.432141 162.240184,176.432141 C166.539479,176.432141 169.978914,175.190123 172.462951,172.801626 C174.660368,170.604209 175.806847,167.929092 175.806847,164.680736 C175.806847,160.763601 174.564828,157.897405 172.271871,156.082147 C169.978914,154.17135 166.635018,153.311491 162.240184,153.311491 L157.46319,153.311491 L157.46319,144.903982 L162.240184,144.903982 C166.252859,144.903982 169.310135,144.044123 171.412012,142.324405 C173.41835,140.604687 174.469288,138.02511 174.469288,134.681215 C174.469288,131.337319 173.51389,128.853282 171.698632,127.133564 C169.692295,125.413847 166.730558,124.553988 162.813423,124.553988 C158.800748,124.553988 155.743472,125.509387 153.546055,127.515724 C151.253098,129.522061 149.91554,132.579337 149.53338,136.687552 L138.546294,136.687552 C139.119534,129.808681 141.603571,124.458448 146.189485,120.636853 C150.488779,116.815258 156.030092,115 162.717883,115 Z M223.831558,115 C231.856908,115 238.544699,117.101877 243.703853,121.305632 C248.671926,125.318307 251.633663,130.85962 252.684601,137.738491 L241.793055,137.738491 C240.646577,133.248117 238.544699,129.999761 235.391883,127.897883 C232.334607,125.796006 228.417472,124.840607 223.640478,124.840607 C216.474988,124.840607 211.124755,127.229104 207.494239,132.197178 C204.150343,136.592012 202.526166,142.706564 202.526166,150.540834 C202.526166,158.566184 204.150343,164.776276 207.398699,169.075571 C210.933675,173.661485 216.474988,176.049982 223.927098,176.049982 C228.799632,176.049982 232.812307,174.807963 235.869583,172.515006 C239.117939,169.93543 241.410896,166.018295 242.748454,160.859141 L253.64,160.859141 C252.111362,168.884491 248.576386,175.094583 242.939534,179.584957 C237.68484,183.788712 231.379209,185.890589 224.022638,185.890589 C212.653393,185.890589 204.150343,182.260074 198.609031,175.190123 C193.736497,169.075571 191.348,160.859141 191.348,150.540834 C191.348,140.413607 193.832037,132.101638 198.89565,125.796006 C204.628043,118.534975 212.940012,115 223.831558,115 Z"/>
</svg>
