<svg xmlns="http://www.w3.org/2000/svg" width="300" height="300" style="background:#0059c1" viewBox="0 0 300 300">
  <path fill="#FFF" d="M216.630578,221.762127 L170.705471,221.762127 L156.920062,159.136981 C156.289872,156.537447 155.265813,151.338378 153.847885,143.539775 C152.429957,135.741172 151.405898,129.202949 150.775708,124.00388 C150.224292,128.257664 149.436554,133.535506 148.254948,139.837408 C147.073341,146.139309 145.891735,151.968568 144.788902,157.246411 C143.607295,162.524253 138.880869,184.029492 130.53085,221.683353 L84.6057431,221.683353 L49,78.0787738 L86.4175398,78.0787738 L102.014746,150.077998 C105.559565,165.990299 108.001552,178.672875 109.261932,188.125728 C110.128444,181.429957 111.625146,172.370974 113.830811,160.870004 C116.036477,149.369034 118.084594,139.916182 119.975165,132.3539 L132.657742,78 L168.657354,78 L180.946061,132.3539 C183.072953,141.097788 185.199845,151.102057 187.326737,162.524253 C189.453628,173.946449 190.95033,182.454016 191.659294,188.046954 C192.525805,180.799767 194.810244,168.195964 198.670159,150.235545 L214.58246,78 L252,78 L216.630578,221.762127 Z"/>
</svg>
