<svg xmlns="http://www.w3.org/2000/svg" width="300" height="300" style="background:#fff" viewBox="0 0 300 300">
  <g fill="none" transform="translate(57 32)">
    <path fill="#2F302F" d="M98.2103218,171.416451 C98.2103218,171.416451 78.9351939,182.794254 66.3797714,183.067793 C57.4442659,183.263515 49.2994515,179.231174 45.3413329,176.884871 C44.0305122,176.111416 43.8415861,174.279177 44.9448213,173.225109 L133.462534,88.3761732 C133.462534,88.3761732 139.872028,105.495935 135.097561,112.71406 C130.323095,119.932186 121.31995,122.273773 121.31995,122.273773 C121.31995,122.273773 170.797599,163.806882 186.842323,235.084987 L104.696785,235.8608 C104.696785,235.8608 121.534533,173.774545 98.2103218,171.416451"/>
    <path fill="#2F302F" d="M113.790195,8.42476219 C111.476433,6.73636696 108.514259,9.45524926 109.958027,11.9453965 C112.061871,15.574503 114.193704,19.5761884 115.236296,22.5049411 C125.536268,43.2986136 124.943833,72.8974086 112.087528,96.4406183 C103.366605,112.411989 90.4170032,122.891358 76.5554248,125.1905 C73.0497957,125.772949 63.8087433,125.914435 56.4219658,123.273369 C48.6643333,120.497893 42.8029591,114.916285 41.3568583,114.784231 C37.9351964,114.465889 41.8559961,120.47667 42.6373571,121.200605 C50.8054961,128.75358 60.6786345,132.729326 70.9832706,132.729326 C73.2037356,132.729326 75.4428599,132.545395 77.6889815,132.172816 C93.6777282,129.517602 108.448951,117.738923 118.212465,99.8598547 C133.925987,71.0863925 132.64782,33.7247521 116.500468,10.8936866 C115.975674,10.1532451 114.989059,9.29725696 113.790195,8.42476219"/>
    <path fill="#2F302F" d="M92.5637636,120.969512 C82.2917813,120.969512 72.2670354,115.545896 65.4447038,108.539999 C64.0895672,107.148723 66.0091497,106.019196 67.7351412,106.896407 C76.7149622,111.452244 91.1619787,117.224859 102.04039,111.617311 C103.759385,110.730668 105.867894,111.419231 106.747216,113.161862 C107.624207,114.902136 106.940807,117.033853 105.21948,117.920496 C101.098092,120.042781 96.8087702,120.969512 92.5637636,120.969512"/>
    <path fill="#E96D4E" d="M153.974312 14.369517C163.574557 9.523634 175.392935 13.7682031 175.392935 13.7682031 175.392935 13.7682031 171.644734 25.8675831 162.044489 30.7134661 152.441911 35.5593491 140.623534 31.3147801 140.623534 31.3147801 140.623534 31.3147801 144.374066 19.2154001 153.974312 14.369517M144.496752 62.6446518C152.968105 60.8171291 161.357824 66.542581 161.357824 66.542581 161.357824 66.542581 156.014247 75.2321575 147.542894 77.0620382 139.071541 78.8919192 130.679489 73.164109 130.679489 73.164109 130.679489 73.164109 136.023066 64.4721746 144.496752 62.6446518M128.222051 12.4108842C127.790553 5.7563431 132.982522.000235809394 132.982522.000235809394 132.982522.000235809394 138.871885 5.03005016 139.303383 11.6845913 139.732549 18.3391324 134.540579 24.0952397 134.540579 24.0952397 134.540579 24.0952397 128.651216 19.0654253 128.222051 12.4108842M85.5347796 59.0016325C78.2949443 59.1124629 72.3356086 53.0403713 72.3356086 53.0403713 72.3356086 53.0403713 78.1200127 46.789064 85.359848 46.6782336 92.6020154 46.5674032 98.559019 52.6394952 98.559019 52.6394952 98.559019 52.6394952 92.7746146 58.8908021 85.5347796 59.0016325M19.6359534 131.876875C10.161659 134.840999.00163269476 129.120263.00163269476 129.120263.00163269476 129.120263 5.2005993 118.598448 14.6748938 115.634324 24.1491882 112.672558 34.3115469 118.390936 34.3115469 118.390936 34.3115469 118.390936 29.1102479 128.915109 19.6359534 131.876875M36.4991247 108.130162C29.588161 106.099843 25.6906854 98.5327193 25.6906854 98.5327193 25.6906854 98.5327193 32.9981606 94.2574951 39.9067919 96.2878138 46.8177555 98.3157746 50.7152313 105.885256 50.7152313 105.885256 50.7152313 105.885256 43.4077559 110.160481 36.4991247 108.130162M57.8657346 89.4875427C57.7561106 80.9936882 64.7860281 74.0160883 64.7860281 74.0160883 64.7860281 74.0160883 71.9978741 80.8097568 72.1074976 89.3012531 72.219454 97.7951076 65.1872045 104.772708 65.1872045 104.772708 65.1872045 104.772708 57.9753585 97.9813969 57.8657346 89.4875427M100.756859 20.7552354C108.617119 28.1384275 108.836366 40.8131825 108.836366 40.8131825 108.836366 40.8131825 96.3135969 41.5182525 88.4533381 34.1350604 80.5930789 26.7518683 80.3738313 14.0771134 80.3738313 14.0771134 80.3738313 14.0771134 92.8966001 13.3720433 100.756859 20.7552354"/>
    <path fill="#2F302F" d="M124.274661 41.9745436C129.674216 38.1685801 134.280747 30.3326339 137.326889 25.7107698 138.124578 24.4939933 139.988182 25.4372309 139.512368 26.8143578 136.858073 34.4781631 132.21189 44.5000622 125.070017 49.1502237M124.853335 62.3546065C124.853335 62.3546065 113.734684 54.4196202 107.910628 49.6303315 106.476189 48.4512846 105.219014 47.0765158 104.006155 45.6663758 101.592099 42.8531693 99.9384125 43.8247042 101.298214 47.4184393 103.427715 53.054284 108.822605 60.2818419 123.236967 69.648191"/>
    <path fill="#FEFEFE" d="M96.2014077,142.065727 C96.2690477,144.317707 94.9605595,146.142872 93.2788838,146.142872 C91.5972086,146.142872 90.1790964,144.317707 90.1137887,142.065727 C90.0461482,139.813748 91.3546365,137.988583 93.0363121,137.988583 C94.7179878,137.988583 96.1337676,139.813748 96.2014077,142.065727"/>
  </g>
</svg>
