<svg xmlns="http://www.w3.org/2000/svg" width="300" height="300" style="background:#fd6500" viewBox="0 0 300 300">
  <path fill="#FFF" fill-rule="evenodd" d="M149.931494,145.278667 L203.320184,61.9173793 C205.427632,58.4049655 208.471724,57 211.749977,57 C213.857425,57 215.964874,57.7024828 218.072322,58.8732874 C221.584736,60.7465747 224.394667,64.2589885 224.394667,68.2397241 C224.394667,69.8788506 223.926345,71.7521379 222.75554,73.3912644 L160.937057,166.118989 L160.937057,232.854851 C160.937057,239.177195 156.253839,242.455448 149.931494,242.455448 C143.140828,242.455448 138.69177,239.177195 138.69177,232.854851 L138.69177,166.118989 L76.4049655,72.9229425 C75.4683218,71.2838161 75,69.8788506 75,68.2397241 C75,64.2589885 78.044092,60.7465747 81.7906667,58.6391264 C83.8981149,57.7024828 86.0055632,57 88.1130115,57 C91.1571034,57 94.2011954,58.4049655 96.5428046,61.9173793 L149.931494,145.278667 Z"/>
</svg>
