<svg xmlns="http://www.w3.org/2000/svg" width="300" height="300" style="background:#fff" viewBox="0 0 300 300">
  <g fill="none" fill-rule="evenodd">
    <path fill="#E64422" fill-rule="nonzero" d="M100.574395,114.783281 C94.4474195,116.135586 88.9889411,119.894348 85.3240804,125.249108 C77.9395641,136.038934 79.1971054,151.832752 88.1597128,160.891812 C92.7615653,165.488727 98.3268934,167.652415 105.524194,167.625646 C113.01556,167.571184 118.660341,165.272727 123.235709,160.43212 C126.580021,156.862588 128.694188,152.372751 129.603782,146.748453 C130.21931,143.043229 130.058579,137.012778 129.22935,133.984169 C126.740752,124.680493 120.265829,117.757429 111.677653,115.216203 C108.386311,114.242359 103.811856,114.053128 100.574395,114.783281 Z M109.323302,127.791257 C112.506882,129.278331 115.156212,132.874633 116.225624,137.120779 C117.08225,140.527849 116.520603,146.15307 115.075846,149.07368 C111.383587,156.348436 103.918705,158.214894 98.5944743,153.184134 C92.6008332,147.532144 92.3067677,136.363857 97.9789457,130.278945 C101.323257,126.736182 105.283097,125.87126 109.323302,127.791257 Z"/>
    <path fill="#E64422" d="M36.0406979 114.40482C33.284518 115.432203 31.384964 117.62266 31.0908982 120.191579 30.7429511 123.27465 30.8762852 123.57188 41.3649287 141.637386 46.6891594 150.885677 51.0773121 158.593355 51.0773121 158.782585 51.0773121 158.945046 49.3914579 162.893039 47.3311724 167.544415 45.2444025 172.195792 43.3713328 176.739168 43.1302356 177.631782 42.0334258 181.958235 43.9603772 185.338537 48.2407665 186.609611 51.5321092 187.610225 53.7796106 186.717611 55.9193486 183.581001 56.9631901 182.066235 82.300319 125.383877 82.8089978 123.46388 83.2902791 121.598345 83.2902791 120.65127 82.7816004 118.947273 82.2738351 117.216507 80.6418623 115.648202 78.5815767 114.864511 73.8993586 113.106053 71.1166945 114.21559 69.0299249 118.704505 68.4682779 119.921118 65.9257978 125.6008 63.3842309 131.360789 60.81618 137.147548 58.6755285 141.853385 58.5951629 141.853385 58.488313 141.826616 55.3577017 136.445087 51.6124751 129.872792 46.180481 120.380809 44.49554 117.62266 43.3174511 116.432816 41.1503157 114.187897 38.5557805 113.457745 36.0406979 114.40482zM135.676875 116.459585C134.366366 116.865739 132.814758 118.568812 132.252198 120.24604 131.770917 121.598345 131.744433 122.760497 131.744433 136.715548 131.744433 151.426598 131.744433 151.77829 132.359048 154.023209 132.680511 155.293361 133.322524 157.105357 133.777321 158.02474 134.794678 160.16166 137.549945 163.1635 139.636715 164.434575 145.335377 167.922876 154.540908 168.92349 162.458761 166.895493 169.335512 165.110266 173.644212 161.026581 175.543766 154.428439 176.157468 152.292443 176.157468 152.156751 176.157468 136.715549 176.157468 121.489423 176.157468 121.138654 175.595821 119.947887 174.793077 118.190352 173.483481 117.027277 171.771142 116.514047 168.775692 115.648202 165.589372 116.811277 164.331831 119.245427 163.396666 121.084192 163.341871 121.759884 163.20945 136.309395L163.048719 150.912446 162.351911 152.400443C161.361951 154.563208 160.184776 155.780744 158.152801 156.781358 156.520828 157.592741 156.14457 157.673972 153.950951 157.646279 151.889752 157.646279 151.303447 157.53828 149.857777 156.889358 147.904341 155.969975 146.566434 154.5909 145.54999 152.427212L144.854096 150.912446 144.720762 136.038934 144.586514 121.165423 143.78377 119.542657C142.606594 117.162969 141.296085 116.324816 138.620271 116.243586 137.496063 116.216817 136.15907 116.297124 135.676875 116.459585z"/>
    <path fill="#2DA0D6" d="M228.357762 116.567585C226.994284 117.054969 225.949529 118.109121 225.20158 119.786349L224.585138 121.165423 224.585138 136.715548C224.585138 152.156751 224.585138 152.292443 225.20158 154.428439 227.742234 163.2715 234.939534 167.814876 246.524075 167.841645 252.035521 167.869338 256.826416 166.841032 260.357029 164.921035 261.132376 164.515805 262.631015 163.325961 263.675769 162.325348 265.948841 160.16166 267.420996 157.53828 268.383558 154.023209 269 151.751521 269 151.56229 269 136.579856L269 121.435884 268.383558 120.083579C267.338804 117.785122 265.78811 116.595278 263.408188 116.270355 261.399957 115.973125 259.581682 116.595278 258.162496 118.02789 256.157005 120.083579 256.209973 119.623887 256.050155 136.174627L255.889424 150.912446 255.192616 152.427212C254.283022 154.373978 252.624565 156.051206 250.69944 156.94382 249.413588 157.565049 248.852855 157.673972 246.658322 157.673972 244.463789 157.673972 243.902142 157.565049 242.643687 156.970589 240.770617 156.077975 239.273805 154.563209 238.390695 152.670904L237.693888 151.182907 237.560554 136.445088C237.399822 120.543271 237.399822 120.678963 235.928581 118.434044 234.991589 117.081739 233.03998 116.162356 231.03175 116.162356 230.122156 116.189124 228.94498 116.351586 228.357762 116.567585zM182.686272 116.784508C181.107268 117.378968 180.117308 118.244813 179.474382 119.623887 178.858853 120.868193 178.833283 121.192192 178.61867 130.901097 178.512733 136.390626 178.457938 145.909378 178.484422 152.021982L178.564788 163.109039 179.368445 164.705036C180.037855 166.029649 180.412287 166.409032 181.509097 166.976724 182.660701 167.598877 183.16664 167.679184 185.521905 167.679184 187.769406 167.679184 188.385848 167.571184 189.322839 167.084724 192.050709 165.597649 192.345687 164.407805 192.345687 154.644439 192.345687 150.425985 192.399569 146.991222 192.479935 146.991222 192.585871 146.991222 197.162153 151.210599 202.672686 156.375205 208.264498 161.621964 213.240782 166.08411 213.936676 166.462571 215.595133 167.355185 218.352226 167.544415 220.090135 166.868724 222.924855 165.759188 224.075546 163.785653 223.862759 160.324121 223.648146 156.781358 223.353167 156.402897 215.113852 148.721988 211.154012 145.017687 207.89098 141.853385 207.89098 141.717693 207.86267 141.556155 209.949439 139.473697 212.492833 137.066317 220.599728 129.359562 220.838998 129.089101 221.776903 127.277104 222.257271 126.30326 222.685584 124.950955 222.766863 124.140494 223.060015 121.273423 221.428043 118.434043 218.671863 117.081738 217.414321 116.459585 216.959524 116.378355 215.541251 116.486354 214.631657 116.567585 213.321148 116.892508 212.679135 117.21743 211.822509 117.649429 208.691898 120.678962 201.92291 127.602027L192.371258 137.391239 192.345687 130.035253C192.345687 125.87126 192.212353 122.084806 192.051622 121.327884 191.67719 119.569426 190.500928 117.947583 189.081742 117.21743 187.636072 116.459585 184.1566 116.243586 182.686272 116.784508z"/>
  </g>
</svg>
