<svg xmlns="http://www.w3.org/2000/svg" width="300" height="300" style="background:#fff" viewBox="0 0 300 300">
  <g fill="none" transform="translate(41 74)">
    <path fill="#F00" d="M213.456888,23.8888636 C210.959911,14.5002273 203.573019,7.09363636 194.174674,4.55522727 C177.181355,0 109,0 109,0 C109,0 40.8533248,0 23.8253261,4.55522727 C14.4616608,7.05886364 7.07476933,14.4654545 4.54311168,23.8888636 C0,40.9275 0,76.5 0,76.5 C0,76.5 0,112.0725 4.54311168,129.111136 C7.04008909,138.499773 14.4269806,145.906364 23.8253261,148.444773 C40.8533248,153 109,153 109,153 C109,153 177.181355,153 194.174674,148.444773 C203.538339,145.941136 210.925231,138.534545 213.456888,129.111136 C218,112.0725 218,76.5 218,76.5 C218,76.5 218,40.9275 213.456888,23.8888636 Z"/>
    <polygon fill="#FFF" points="88 109 146 76.5 88 44"/>
  </g>
</svg>
