<svg xmlns="http://www.w3.org/2000/svg" width="300" height="300" style="background:#2f85fc" viewBox="0 0 300 300">
  <path fill="#FFF" d="M136,209.947106 C136.236789,203.591461 136.081766,192.233336 136.081766,185.868186 C136.081766,156.280122 136.156915,120.710469 136,91.1233552 C136,91.1233552 136.946213,91.178014 141.733049,91.1532986 C148.217586,91.1190774 153.065393,91.1176515 158.535184,91.0373265 C162.891451,90.9731619 164.824524,91.0111852 164.824524,91.0111852 C164.370323,101.656843 164.731888,118.387227 164.754574,129.052847 C164.75741,130.337094 164.919051,131.621341 165.006961,132.905588 C165.51457,133.024412 166.022179,133.143711 166.529788,133.262535 C168.939275,128.404544 171.367196,123.55606 173.753525,118.686663 C177.408403,111.228334 183.551225,98.6776941 187.046826,91.144268 C187.046826,91.144268 188.196744,91.1257314 191.714086,91.144268 C199.905304,91.1870447 208.157965,91.144268 217,91.144268 C214.531433,96.1809692 212.217418,101.182974 209.818801,105.806644 C203.747346,117.511734 197.593652,129.173572 191.461227,140.846817 C190.746604,142.207587 186.80531,149.275699 185.786311,150.866036 C185.786311,150.866036 186.472576,152.573771 188.392415,156.327651 C196.849726,172.859362 204.543733,189.837375 214.136784,205.730765 C214.987997,207.140489 215.379338,207.755046 216.743832,209.978001 C207.084613,209.978001 198.724665,210.007944 189.773924,209.997963 C188.566817,209.996537 188.492613,209.983704 188.492613,209.983704 C183.230307,199.52864 175.971123,187.050245 170.799562,176.548127 C169.433178,173.773354 167.832367,171.115505 166.338844,168.403472 C165.899767,168.51374 165.46069,168.624484 165.021613,168.734752 C164.929922,170.5038 164.763555,172.272373 164.758829,174.041896 C164.731416,184.707516 164.742286,199.156484 164.655322,209.978001 L136,209.947106 Z M221.057081,210 C220.889194,192.95274 221.124616,172.748403 221.33721,155.702097 C221.438038,147.606161 226.331978,143.126687 234.420533,143.009934 C241.766674,142.972764 255.522021,143.05187 255.522021,143.05187 L260.858271,143.078556 C260.858271,143.078556 260.852563,162.069145 261,167.058995 C261,167.058995 260.124417,167.141436 256.612576,167.203386 C245.351283,167.403056 245.351283,167.403056 245.351283,167.403056 C245.352234,177.698223 245.355087,199.04149 245.355087,209.999524 L221.057081,210 Z M65.6065242,124.463731 C56.935991,124.463731 48.8911811,124.463731 40.9292925,124.463731 C39.6969082,118.146431 40.1958667,117.492395 46.0527894,117.467294 C52.3943739,117.440299 58.7364344,117.461137 65.3453692,117.461137 C65.3453692,110.979499 65.3453692,105.064283 65.3453692,98.70578 C57.1561615,98.70578 49.1289846,98.70578 40.5775912,98.70578 C40.5775912,96.0735321 40.5775912,93.8675211 40.5775912,91.0794599 C49.7404107,91.0794599 58.845567,90.7844094 67.8987775,91.3314132 C69.6825417,91.4389197 72.6758151,94.7569347 72.7234713,96.6536874 C73.1185397,112.392237 72.9946339,128.144521 72.9264857,143.892068 C72.9093295,147.798764 71.4786964,150.177637 66.7250098,149.98962 C58.1512182,149.650998 49.5540752,149.893953 40.5733016,149.893953 C40.3893495,147.780767 40.2335144,145.986784 40,143.303862 C46.6580202,143.303862 52.9586203,143.040542 59.2244316,143.388162 C64.1449137,143.661427 66.1702941,142.081036 65.6803903,137.026344 C65.3043852,133.134804 65.6065242,129.178855 65.6065242,124.463731 Z M117.993222,144.667912 C118.112995,148.337938 116.655439,150.042234 112.814988,149.993364 C105.130704,149.895149 97.4440054,149.935479 89.7587554,149.999532 C85.8560029,150.03227 83.9956632,148.34885 84.0077372,144.424983 C84.0565156,128.63794 84.020294,112.850422 84.0000099,97.0629053 C83.9942143,92.6588741 86.5427635,91.0034481 90.6546354,91.0010756 C97.2923578,90.99728 103.929597,91.0039224 110.567319,91.0148352 C117.037939,91.025748 117.231121,91.2791153 115.74652,98.3653259 C109.276866,98.3653259 102.670052,98.5769392 96.0859383,98.2865637 C92.102532,98.11101 90.8318794,99.6981123 90.8690671,103.323538 C91.0419648,120.240769 89.5882726,117.093609 104.020392,116.797539 C117.952654,116.511434 117.954586,116.580706 117.95845,130.25446 C117.959899,135.059418 117.837228,139.868172 117.993222,144.667912 Z M101.807496,143.439509 C111.223654,143.500241 111.269534,143.448998 111.210131,134.316398 C111.131409,122.295224 112.275527,124.36676 100.931417,124.147555 C90.1233857,124.357746 90.6536693,122.263434 90.6710556,133.89412 C90.6869931,144.864342 89.9833289,143.363119 101.807496,143.439509 Z"/>
</svg>
