<svg xmlns="http://www.w3.org/2000/svg" width="300" height="300" style="background:#fd4c5b" viewBox="0 0 300 300">
  <g fill="#FFF" transform="translate(36 116)">
    <path d="M49.1363612 21.1538502C44.5709152 14.1357597 40.1057563 7.0532917 35.5956739 0 35.4444521 0 35.2935466 0 35.1423245 0 23.4558456 19.5291924 11.7690501 39.0580678 0 58.7248947 5.58413769 61.8451385 10.750675 64.7297542 16.143096 67.7421736 17.8369077 64.1757276 19.4699777 60.8008287 21.0397751 57.398022 21.5687355 56.2515963 22.243223 55.7365772 23.6086493 55.7010583 31.2254244 55.502852 38.8403013 55.2022127 46.4529636 54.8733485 47.8335752 54.8140452 48.6440995 55.2688098 49.3280779 56.4907123 51.4562572 60.2965913 53.7090839 64.0323846 56.0334089 68 61.7804738 64.542964 67.3579676 61.1858243 73 57.791263 72.6111888 57.1160927 72.3745488 56.6521313 72.0907705 56.2198831 64.4391949 44.5317341 56.7553508 32.863564 49.1363612 21.1538502zM27.3357313 43.2502112C29.915678 37.8367993 32.3140321 32.8042607 34.9278299 27.320129 37.5384641 32.54358 39.9092944 37.2872128 42.4765866 42.4237702 37.3189076 42.7053814 32.606036 42.9625741 27.3357313 43.2502112zM217.834485 22.9668566C217.834485 29.7036124 217.834485 36.3070308 217.834485 43.6289894 208.142667 36.2947923 198.917296 29.3139067 189.253756 22 188.483863 36.1672521 187.748286 49.6922951 187 63.4550262 190.901257 63.4550262 194.505424 63.4550262 198.373001 63.4550262 198.373001 56.7691576 198.373001 50.0794243 198.373001 43.1980586 207.769318 50.4642989 216.910169 57.5289229 226.572756 65 227.406515 50.5625305 228.197062 36.8684003 229 22.9665347 225.24268 22.9668566 221.578777 22.9668566 217.834485 22.9668566zM181.940036 22C177.569114 22 173.48192 22 169.508786 22 169.508786 24.9931779 169.566606 27.7877611 169.497096 30.5782263 169.347649 36.5424106 169.318897 42.518631 168.868345 48.4622272 168.631063 51.592553 166.307214 53.4670109 163.517015 53.7074154 160.155254 53.9981812 157.770109 52.5744421 156.687331 49.3753841 156.159686 47.8192484 155.747997 46.1443355 155.71103 44.5134494 155.566323 38.0918949 155.590967 31.6659059 155.555264 25.2411838 155.549577 24.4417359 155.554001 23.6416548 155.554001 22.7753752 151.286396 22.7753752 147.242488 22.7753752 143.167616 22.7753752 143.167616 30.4318927 142.73065 37.8679606 143.267773 45.2321285 144.132226 57.085747 150.282291 62.7173557 161.631079 62.991968 171.460124 63.2307887 178.635462 58.1335176 180.739091 49.0792332 182.813336 40.1487944 181.626925 31.0536508 181.940036 22zM111 63C115.934316 63 120.716448 63 125.695914 63 125.695914 57.22895 125.695914 51.6137535 125.695914 45.7956594 130.290498 45.7956594 134.687748 45.7956594 139.024693 45.7956594 139.024693 42.2523185 139.024693 38.922436 139.024693 35.3694943 136.696458 35.4776636 134.603447 35.6139949 132.508541 35.6603989 130.330281 35.7093632 128.14918 35.6712797 125.750221 35.6712797 125.750221 32.2965933 125.750221 28.9068654 125.750221 25.1468663 130.620127 25.1468663 135.335638 25.1468663 140 25.1468663 140 21.2390146 140 17.7103949 140 14 130.188832 14.3561904 120.650459 14.7014996 111 15.0522493 111 31.1473758 111 47.0613669 111 63zM100.641845 52.8247519C98.018598 52.5001557 95.2612933 52.3681909 92.8444121 51.4456874 87.2776511 49.3208021 85.8286105 43.8670864 89.8423477 39.5247527 91.8500164 37.3535858 94.7516173 35.8478726 97.4772473 34.4744368 99.5725814 33.4184048 102.024657 33.0387712 104.372429 32.3417338 103.550805 28.9003266 102.762135 25.597764 101.904036 22 99.168168 22.8164938 96.6572225 23.4222189 94.2566588 24.3112622 86.9685821 27.0093505 80.5510814 30.894185 76.5456626 37.7222746 72.3613932 44.8561978 73.3481103 52.2649957 79.4114294 57.1292473 87.2069426 63.382883 96.4131025 63.4995252 106 62.5854649 105.791074 59.1221679 105.599746 55.9475048 105.414177 52.8591506 103.661187 52.858525 102.1296 53.0089399 100.641845 52.8247519z"/>
  </g>
</svg>
