<svg xmlns="http://www.w3.org/2000/svg" width="300" height="300" style="background:#fff" viewBox="0 0 300 300">
  <g fill="#003395" transform="translate(46 46)">
    <path d="M188.606725 172.405647C194.043978 168.076683 199.263087 163.922745 204.580055 159.689251 200.994466 155.966978 197.72029 152.567556 194.314617 149.032629 195.428774 148.955637 196.460874 148.884292 197.758006 148.793956 197.758006 146.665916 197.758006 144.658496 197.758006 142.363643 200.265625 142.363643 202.514327 142.363643 204.81094 142.363643 204.81094 133.150351 204.81094 124.237325 204.81094 115.140547 203.786486 115.140547 202.951632 115.140547 202.117288 115.140547 191.844204 115.13952 181.570101 115.091272 171.297527 115.181608 169.526394 115.19752 168.680327 114.717094 168.366874 112.933976 168.020293 110.960946 167.418362 109.033083 166.905626 107 159.679401 108.103542 152.766119 109.158836 145.707069 110.236714 146.068432 112.031638 146.358949 113.477021 146.714704 115.238582 134.55428 115.238582 122.715973 115.238582 110.85524 115.238582 110.85524 124.370263 110.85524 133.224263 110.85524 142.443201 112.887839 142.443201 114.77365 142.443201 116.932649 142.443201 116.932649 144.816072 116.932649 146.823492 116.932649 149.037762 121.40508 149.037762 125.59209 149.037762 130.550754 149.037762 124.330126 154.510303 117.107979 155.433686 110.053006 157.31638 111.183983 159.209339 112.216083 160.960634 113.270608 162.698584 117.132953 169.073464 117.127856 169.044207 124.29139 166.975194 131.966642 164.759898 138.890117 161.019148 145.482811 156.577263 146.02358 156.21335 146.629588 155.949527 147.274841 155.60204 147.727946 156.185634 148.100011 156.636803 148.433341 157.114662 148.507754 157.221936 148.444044 157.42622 148.444044 157.799371 136.453853 164.700358 123.924931 170.533219 110.040774 173.631862 112.436773 177.517356 114.702295 181.025079 116.783313 184.641104 117.682387 186.204027 118.640073 186.398558 120.300096 185.979213 129.017641 183.777775 137.162307 180.236175 144.847242 175.596166 148.032734 173.674463 151.129542 171.604424 154.276298 169.595464 155.772715 171.122459 154.740106 171.854902 153.589251 172.627895 141.136781 180.995823 127.785748 187.365569 113.241047 191.092975 112.232393 191.351665 111.229345 191.624215 110 191.950144 112.939827 196.157462 115.693111 199.95108 118.270556 203.861724 119.267997 205.374347 120.273593 205.6161 121.869397 205.002735 127.494721 202.83928 133.173052 200.817488 138.782575 198.61605 140.250959 198.039642 141.054213 198.237253 141.918119 199.576388 143.487929 202.009314 145.192295 204.361141 146.966996 206.647782 147.470559 207.297589 148.4364 208.041325 149.145872 207.99821 155.490862 207.618386 161.837891 207.201093 168.157397 206.526649 172.242981 206.089339 174.953453 203.515263 176.289321 199.676477 177.113471 197.309765 177.556382 194.808574 178.20979 192.214994 183.804533 196.691268 189.339134 201.119294 194.970574 205.624312 199.436379 200.301133 203.684041 195.237672 208 190.091574 200.952672 184.599528 194.124507 179.192173 188.606725 172.405647zM150.641779 193.306217C153.406276 191.51694 156.038257 189.814406 158.702857 188.090314 159.406723 192.407986 156.073934 194.606857 150.641779 193.306217zM173.557443 155.741137C173.13339 155.938748 172.053381 155.425473 171.702722 154.933241 170.440248 153.157822 169.360238 151.249978 167.9469 148.964363 172.823505 148.964363 177.254652 148.964363 182.462039 148.964363 179.470225 151.866422 176.825502 154.220302 173.557443 155.741137zM131.997222 133.95106C131.997222 133.006633 131.997222 132.183853 131.997222 131.175267 149.218755 131.175267 166.379637 131.175267 183.835113 131.175267 183.88863 132.032437 183.943675 132.909625 184.009423 133.95106 166.596761 133.95106 149.357388 133.95106 131.997222 133.95106zM63.2676239 185.814447C58.9807488 185.271165 54.7272601 184.455735 50.7367575 181.7048 51.8154107 181.051339 52.5735497 180.564416 53.3583978 180.121159 69.2279523 171.164119 82.9653694 159.778052 93.9594121 145.275477 94.8223346 144.137124 96.1454821 142.905855 96.1958193 141.675601 96.4336367 135.876196 96.3011162 130.063082 96.3011162 123.971727 85.010187 123.971727 74.0099804 123.971727 63.0744933 123.971727 61.7821644 118.817659 60.5602044 113.945387 59.3212946 109 51.1764368 110.125659 43.5015634 111.18582 35.7177977 112.261721 36.5755837 116.240371 37.3732731 119.940272 38.241846 123.971727 27.1183648 123.971727 16.2101008 123.971727 5.21708508 123.971727 5.21708508 130.538327 5.21708508 136.79876 5.21708508 143.347589 26.2693106 143.347589 47.0719049 143.347589 68.2078547 143.347589 67.7645799 144.048778 67.6048363 144.442277 67.3269545 144.721026 56.6128481 155.467849 43.9540841 163.377421 30.1016106 169.51498 29.4292503 169.813532 28.4219935 169.730262 27.6900506 169.480454 22.8453574 167.829284 18.2980647 168.557383 14.903903 172.201432 9.47776463 178.027747 4.50979678 184.270917 0 189.571722 5.29618638 195.217282 10.3057596 200.559721 15.1386385 205.712265 18.209718 201.860551 21.0424662 198.16065 24.0411218 194.597331 26.013516 192.255127 28.0922345 192.025121 30.537695 193.955548 37.6984102 199.609232 46.0271527 202.434297 54.8705669 204.089529 67.2452858 206.405331 79.7140011 206.247424 92.2109671 205.527449 97.967379 205.195387 97.9833018 205.267486 99.0968824 199.735152 100.057911 194.964427 100.985039 190.187103 102 185.04319 99.754861 185.237654 97.9036865 185.395054 96.0540534 185.558038 85.1314077 186.515636 74.1995156 187.201592 63.2676239 185.814447zM141.925341 5.62487095C138.085613 11.4018343 134.66848 12.7285369 127.459257 12.9469135 121.373369 13.1313775 115.228062 13.0301534 108.986455 13.0301534 108.986455 19.4951318 108.986455 25.6949751 108.986455 32.2647742 113.99101 32.2647742 118.853676 32.2647742 124.107178 32.2647742 123.46432 33.1788734 123.149807 33.6685511 122.793802 34.12483 120.436487 37.1461358 115.974391 43.2647944 115.974391 43.2647944 115.974391 43.2647944 115.720834 51.2250108 115.728006 55.2482803 115.72903 55.8484308 115.728006 56.4475539 115.728006 57.046677 115.728006 58.891318 115.728006 60.7359589 115.728006 62.7779098 126.352825 62.7779098 136.566318 62.7779098 146.901211 62.7779098 146.901211 64.9647596 146.901211 66.9419683 146.901211 69.2480264 133.437575 69.2480264 120.189589 69.2480264 107 69.2480264 107 75.6960485 107 81.8105961 107 88.1835996 120.383728 88.1835996 133.575879 88.1835996 147.15733 88.1835996 147.15733 92.6456779 147.15733 96.8544398 147.15733 101 154.235932 101 160.918576 101 167.863997 101 167.863997 96.6365763 167.863997 92.4827943 167.863997 88.158422 169.141004 88.158422 170.153184 88.158422 171.165364 88.158422 181.321999 88.158422 203.881427 88.1070394 203.881427 88.1070394 203.881427 88.1070394 203.880915 87.3876808 203.891672 86.9740495 204.040733 81.1010008 203.992583 75.223327 203.992583 69.0450646 191.771121 69.0450646 179.866734 69.0450646 167.971054 69.0450646 167.971054 66.8181361 167.971054 64.8995038 167.971054 62.6813103 177.749658 62.6813103 187.336173 62.6813103 196.862244 62.6813103 196.862244 55.928075 196.862244 49.4841633 196.862244 42.8264997 187.116423 42.8264997 177.582669 42.8264997 167.823018 42.8264997 167.823018 39.9911994 167.823018 37.3711926 167.823018 34.2466071 163.308161 34.2466071 146.833595 34.2573972 146.833595 34.2573972L146.814643 42.5269379C146.814643 42.5269379 140.692899 42.5351592 139.576734 42.5351592 140.868084 40.6083056 146.662508 32.1933518 146.662508 32.1933518 146.662508 32.1933518 182.680451 32.1851305 198.896849 32.1871857 199.874197 32.1871857 200.851545 32.1871857 201.857066 32.1871857 201.857066 25.6358844 201.857066 19.507463 201.857066 12.9859638 187.887339 12.9859638 174.065137 12.9859638 159.689207 12.9859638 161.164449 10.7903785 162.285223 9.1230081 163.543277 7.25164851 157.429217 4.79709426 151.51749 2.42372473 145.479752 0M25 30.792877C29.9481202 34.8749986 34.7840601 38.8646964 39.7951228 43 41.4412811 41.393691 42.9260219 39.946412 44.5244658 38.3870894 44.6077129 39.8281723 44.6884217 41.230014 44.7772522 42.7738467 60.164241 42.7738467 75.4065626 42.7738467 90.7894903 42.7738467 90.7894903 38.3411359 90.7894903 34.0881088 90.7894903 29.4813938 77.6303738 29.4813938 64.6052651 29.4813938 51.4070629 29.4813938 52.1501945 27.2570354 53.4872223 26.8894067 55.2567289 26.8961191 68.5320868 26.9441378 81.8079516 26.9198704 95.0833094 26.9183213 95.9949654 26.9183213 96.9061139 26.9183213 98 26.9183213 98 20.7884269 98 15.061788 98 8.95925916 85.418029 8.95925916 72.9852932 8.95925916 60.2449498 8.95925916 61.2291933 6.60271965 62.0337451 4.67731744 62.9758571 2.42197871L41.8422879 1C41.8422879 1 41.5042236 2.0042661 41.2681882 2.71215737 38.8007272 10.1008691 35.287602 16.926263 30.7719606 23.2157041 28.9471257 25.7581229 26.9837147 28.1977918 25 30.792877zM96.4885994 71.227239C95.589245 72.3870137 94.9666934 73.2504183 94.2792504 74.0593876 93.5735566 74.8890223 92.8871273 75.7685555 92.0475947 76.4495011 89.5563732 78.4696561 88.1500553 77.9978832 87.4894809 74.9570659 87.2415753 73.8149324 87.0205393 72.6385247 87.0174974 71.4772378 87.0012744 64.8537701 87.0565335 58.2318145 87.0823889 51.6083468 87.0910072 49.3865793 87.083403 47.1648123 87.083403 45 68.3196504 45 49.6385326 45 31 45 31 51.123973 31 57.0387738 31 63.2650651 43.3567411 63.2650651 55.5314828 63.2650651 67.8897448 63.2650651 67.8897448 64.409719 67.8344858 65.2428814 67.8983631 66.066972 68.3738952 72.1617115 68.6527258 78.2816524 69.4400408 84.3370774 69.9921245 88.583032 71.4166936 92.6853383 74.2987841 96.0537752 76.8837937 99.0749353 80.15067 100.53108 84.1911733 99.823925 90.3497724 98.7458031 95.6394349 95.9247433 100.200591 91.7327197 100.660914 91.3093341 101.102986 90.423248 100.97878 89.8829271 99.5800662 83.7866764 98.0693136 77.7156267 96.4885994 71.227239zM1 90.1955324C5.99619613 93.8797882 11.4045974 97.8687458 17.0062847 102L32 68.4797667C26.0035395 65.1981701 20.2547093 62.0521681 14.6766064 59 10.1172249 69.3995415 5.62910762 79.6366796 1 90.1955324zM33 40.195696L13.1868929 28C13.1868929 28 12.6617113 28.6545798 12.3365007 29.0525316 8.5143742 33.7254058 4.78656411 38.4748089 1 43.2461508 7.77530617 47.5379096 14.3872342 51.7250781 21.1352253 56 25.1980385 50.588364 29.0608807 45.4435598 33 40.195696zM35 11.7080869C28.2900825 8.51350407 14.481363 2 14.481363 2 14.481363 2 13.9091116 2.70424505 13.5052909 3.16032321 11.5861114 5.32758459 9.7833391 7.59625294 7.94142145 9.83026941 5.96506821 12.2278626 3.99129009 14.6264751 2 17.0439421 9.07871331 20.7949907 15.8298374 24.3732903 22.6752204 28 26.7139445 22.6610872 30.6522285 17.4551762 35 11.7080869z"/>
  </g>
</svg>
