<svg xmlns="http://www.w3.org/2000/svg" width="300" height="300" style="background:#fff" viewBox="0 0 300 300">
  <g fill="#3187FD" transform="translate(48 39)">
    <path d="M76.011118 68C89.2938025 68 100 52.7888784 100 33.9831534 100 15.1995696 89.2938025 0 76.011118 0 62.7593709 0 52 15.1995696 52 33.9831534 52.0038672 52.7888784 62.7593709 68 76.011118 68zM133.32436 70.8054804C151.050039 73.1384549 162.425602 53.9994599 164.699363 39.4931694 167.01464 24.9986122 155.590802 8.16619169 143.032498 5.28272916 130.477091 2.3611334 114.79152 22.7409265 113.362575 36.0249965 111.64591 52.2736844 115.658543 68.5018392 133.32436 70.8054804zM31.133611 118.357155C55.4894104 113.12419 52.1768098 84.023419 51.4258622 77.6576253 50.2347379 67.8433666 38.704849 50.7205968 23.0418074 52.0758758 3.32796229 53.829017.455538632 82.2977165.455538632 82.2977165-2.22865772 95.473224 6.81604535 123.596979 31.133611 118.357155zM177.511861 67C155.913521 67 153 86.7202492 153 100.666093 153 113.992622 154.152385 132.581863 180.991708 131.986028 207.838924 131.400956 204.90567 101.823518 204.90567 94.8378771 204.906657 87.8972416 199.090467 67 177.511861 67zM55.4717491 168.344808C54.7682826 170.308403 53.1626077 175.340941 54.5419926 179.728379 57.2860041 189.571819 66.1949409 190 66.1949409 190L79 190 79 160 65.2917487 160C59.1307591 161.760822 56.1525866 166.373668 55.4717491 168.344808z"/>
    <path d="M178.054728,156.424713 C178.054728,156.424713 150.307667,135.051554 134.090341,111.927487 C112.131131,77.8597545 80.9150764,91.720951 70.4895128,109.036248 C60.0981795,126.373942 43.9033475,137.340979 41.592315,140.25072 C39.2695464,143.088399 8.07207409,159.868101 15.0022377,190.50121 C21.9284891,221.118737 46.2486103,220.514001 46.2486103,220.514001 C46.2486103,220.514001 64.1813621,222.282439 84.979677,217.642239 C105.762344,213.062416 123.672601,218.799124 123.672601,218.799124 C123.672601,218.799124 172.278613,234.996488 185.565828,203.781042 C198.84913,172.584099 178.054728,156.424713 178.054728,156.424713 Z M94.9084128,202.844238 L63.3373413,202.844238 C49.6794617,200.147761 44.2397822,190.862493 43.5747368,189.272263 C42.8871974,187.693719 39.0133083,180.230447 41.0612568,167.555349 C46.95571,148.558284 63.7842911,147.185214 63.7842911,147.185214 L80.605048,147.185214 L80.605048,126.6135 L94.9084128,126.837476 L94.9084128,202.844238 Z M153.757101,202.620262 L117.394769,202.620262 C103.313412,199.010352 102.647389,189.058999 102.647389,189.058999 L102.647389,149.00721 L117.394769,148.771549 L117.394769,184.756711 C118.296492,188.597413 123.076017,189.272263 123.076017,189.272263 L138.070833,189.272263 L138.070833,149.00721 L153.757101,149.00721 L153.757101,202.620262 Z"/>
  </g>
</svg>
