<svg xmlns="http://www.w3.org/2000/svg" width="300" height="300" style="background:#e5698c" viewBox="0 0 300 300">
  <path fill="#FFF" d="M176.134351,32.1366275 C176.73108,32.236521 181.405453,31.1876386 181.604362,31.537266 C181.902726,31.9867871 183.991276,47.0707161 183.444275,47.1706098 C182.897274,47.2705034 179.018539,48.1695455 179.018539,48.1695455 C178.720175,46.1217273 176.184079,33.4352439 176.134351,32.1366275 M183.593457,30.6881707 L185.632279,46.9208759 C186.676554,46.8709291 190.903381,46.5712484 191.3012,46.5213016 C190.704471,40.377847 189.660196,30.6881706 189.660196,30.6881707 C187.671101,30.2885964 185.582552,30.2885964 183.593457,30.6881707 M179.56554,53.2141707 C179.56554,53.2141707 188.765104,50.8666719 192.096837,52.0154479 C193.787568,58.1589025 196.870665,92.6221842 197.169029,94.0206943 C195.08048,94.2704281 188.218102,94.8697896 187.671101,95.0196299 C187.223555,92.422397 179.56554,54.8624147 179.56554,53.2141707 M213.62879,32.5362017 C214.175791,32.6860421 219.049073,32.0367339 219.0988,32.3863614 C219.198255,33.5850843 219.695529,48.0696519 219.148528,48.1195987 C218.601527,48.1695455 214.722792,48.519173 214.722792,48.519173 C214.623337,46.5213016 213.529335,33.884765 213.62879,32.5362017 M221.137623,32.1366275 L221.535442,48.1695455 C222.579716,48.1695455 226.756816,48.4192794 227.204362,48.3693327 C227.104907,42.2258781 227.204362,32.5362017 227.204362,32.5362017 C225.215267,32.1865742 223.176445,32.0367339 221.137623,32.1366275 M214.722792,53.6636919 C214.722792,53.6636919 224.121265,52.4150223 227.303817,53.9134258 C228,61.1057628 227.900545,94.6200556 228,96.0185656 C225.861723,96.0185656 219.049073,96.1184591 218.502072,96.2183528 C218.402617,93.6211199 214.57361,55.3119357 214.722792,53.6636919 M192.892475,12.4575941 C198.312759,40.2280066 202.440131,87.6774525 202.589313,90.7242064 C202.589313,90.7242064 206.865867,90.8240999 211.689422,91.1237807 C208.854962,61.2056564 205.374046,13.406583 205.423773,11.8582327 C204.230316,10.5096695 192.892475,12.4575941 192.892475,12.4575941 M180.957906,78.1376165 C179.913631,70.345918 152.165758,61.505337 136.551363,64.3523038 C136.551363,64.3523038 134.611996,47.1706098 133.866085,30.5383304 C133.219629,16.2535499 133.76663,2.36834356 133.915812,0.0707914178 C132.871538,-0.678410325 121.633152,4.71584242 115.566412,6.96344775 C115.566412,6.96344775 122.826609,37.830561 128.09771,101.862339 C128.09771,101.862339 136.501636,102.761382 150.922574,99.9643617 C165.343511,97.1673418 182.4,88.4266543 180.957906,78.1376165 M147.043839,92.1726632 L144.607197,74.541448 C145.203926,74.2417673 160.171865,79.8358073 161.763141,80.834743 C161.514504,81.9335722 147.043839,92.1726632 147.043839,92.1726632 M60.567939,32.1366275 C61.1646674,32.236521 65.8390404,31.1876386 66.0379498,31.537266 C66.336314,31.9867871 68.4248636,47.0707161 67.8778626,47.1706098 C67.3308616,47.2705034 63.4521265,48.1695455 63.4521265,48.1695455 C63.1537623,46.1217273 60.6176664,33.4352439 60.567939,32.1366275 M68.0270447,30.6881707 L70.0658669,46.9208759 C71.1101417,46.8709291 75.3369683,46.5712484 75.7347874,46.5213016 C75.0883315,40.377847 74.0937841,30.6881706 74.0937841,30.6881707 C72.1046891,30.2885964 70.0161395,30.2885964 68.0270447,30.6881707 M63.9991276,53.2141707 C63.9991276,53.2141707 73.1986914,50.8666719 76.5304253,52.0154479 C78.2211559,58.1589025 81.304253,92.6221842 81.6026172,94.0206943 C79.5140676,94.2704281 72.6516903,94.8697896 72.1046892,95.0196299 C71.6571429,92.422397 63.9991277,54.8624147 63.9991276,53.2141707 M98.0623773,32.5362017 C98.6093784,32.6860421 103.482661,32.0367339 103.532388,32.3863614 C103.631843,33.5850843 104.129117,48.0696519 103.582116,48.1195987 C103.035115,48.1695455 99.1563795,48.519173 99.1563795,48.519173 C99.0569248,46.5213016 98.01265,33.884765 98.0623773,32.5362017 M105.571211,32.1366275 L105.969029,48.1695455 C107.013304,48.1695455 111.190403,48.4192794 111.63795,48.3693327 C111.538495,42.2258781 111.63795,32.5362017 111.63795,32.5362017 C109.648855,32.1865742 107.610033,32.0866807 105.571211,32.1366275 M99.1563795,53.6636919 C99.1563795,53.6636919 108.554853,52.4150223 111.737405,53.9134258 C112.433588,61.1057628 112.334133,94.6200556 112.433588,96.0185656 C110.295311,96.0185656 103.482661,96.1184591 102.93566,96.2183528 C102.885932,93.6211199 99.0071974,55.3119357 99.1563795,53.6636919 M77.3260632,12.4575941 C82.7463468,40.2280066 86.8737186,87.6774525 87.0229007,90.7242064 C87.0229007,90.7242064 91.2994547,90.8240999 96.1230098,91.1237807 C93.2885497,61.2056564 89.8076336,13.406583 89.857361,11.8082859 C88.663904,10.5096695 77.3260632,12.4575941 77.3260632,12.4575941 M65.391494,78.1376165 C64.3472193,70.345918 36.5993458,61.505337 20.9849509,64.3523038 C20.9849509,64.3523038 19.0455834,47.1706098 18.2996729,30.5383304 C17.653217,16.2535499 18.2002182,2.36834356 18.3494002,0.0707914178 C17.3051254,-0.628463609 6.06673936,4.71584242 0,6.96344775 C0,6.96344775 7.26019633,37.830561 12.5312977,101.862339 C12.5312977,101.862339 20.9352236,102.761382 35.3561614,99.9643617 C49.7770991,97.1673418 66.8335877,88.4266543 65.391494,78.1376165 M31.4774264,92.1726632 L29.0407852,74.541448 C29.6375136,74.2417673 44.6054526,79.8358073 46.1967284,80.834743 C45.9480916,81.9335722 31.4774264,92.1726632 31.4774264,92.1726632" transform="translate(36 99)"/>
</svg>
