<svg xmlns="http://www.w3.org/2000/svg" width="300" height="300" style="background:#fff" viewBox="0 0 300 300">
  <g fill="none" transform="translate(21 114)">
    <path fill="#0A090A" d="M43.2955831,0 L55.3764501,0 C57.9240931,0 60,2.22182377 60,4.73239344 L60,5.94411311 C60,8.38241188 57.9244281,10.4745533 55.3764501,10.4745533 L44.8273853,10.4745533 C29.0533741,10.4745533 13.5514152,19.4199352 14.0811133,36.3299763 C14.4818209,52.1576422 29.5974788,61.5065931 44.8273853,61.5065931 L55.3764501,61.5065931 C57.9240931,61.5065931 60,63.5268013 60,65.9651 L60,67.2494283 C60,69.5580447 57.5233854,71.8521394 55.1047327,71.9963435 L43.8256162,71.9963435 C27.3071464,72.1986345 9.58688869,64.002641 2.67334137,48.5792193 C-2.82332242,36.330314 0.25401861,21.8443877 11.0037722,11.9756943 C19.9928914,3.64968072 31.4723618,0 43.2955831,0"/>
    <path fill="#0A090A" d="M45.1618709,15.0159069 L55.3515258,15.0159069 C57.9130881,15.0159069 60,17.082514 60,19.6905421 L60,20.9591953 C60,23.5672235 57.9134249,25.7762747 55.3515258,25.7762747 L44.6868837,25.7762747 C41.1753469,25.9757631 37.7931684,26.5745621 35.0298208,28.8546686 C30.5827951,32.5885722 30.1654127,39.0732817 34.4254754,43.1491179 C37.0591279,45.62938 41.2474372,47.0261329 44.7444885,47.0261329 L55.3515258,47.0261329 C57.9130881,47.0261329 60,49.3065729 60,51.914601 L60,53.1829207 C60,55.8623377 57.9134249,58 55.3515258,58 L44.7444885,58 C37.1167327,58 28.4096443,55.2491942 23.2861829,49.576783 C16.6084016,42.0802868 15.3272835,30.9212757 24.9122561,21.7001048 C32.5400119,14.3460527 45.1618709,15.0159069 45.1618709,15.0159069"/>
    <path fill="#E53928" d="M104.29475,0 L116.376219,0 C118.92399,0 121,2.22216148 121,4.73239343 L121,5.94445081 C121,8.45502048 118.924325,10.4171418 116.376219,10.4171418 L105.840701,10.4171418 C90.0518303,10.4171418 74.5490981,19.4202729 75.0928949,36.3299762 C75.4936225,52.2295753 90.5959621,61.5072683 105.840701,61.5072683 L116.376219,61.5072683 C118.92399,61.5072683 121,63.5413228 121,66.0373708 L121,67.191679 C121,69.6299777 118.523262,71.8521392 116.104489,71.9963433 L104.824474,71.9963433 C88.3199229,72.1986343 70.5843737,64.0033163 63.6701465,48.5218077 C58.1735435,36.2725647 61.2654455,21.8585717 72.001328,11.9034233 C80.9908956,3.65035614 92.413644,0 104.29475,0 Z M106.241428,14.211702 L116.376219,14.211702 C118.92399,14.211702 121,16.3761143 121,19.0163664 L121,20.3003569 C121,22.940609 118.924325,25.1050213 116.376219,25.1050213 C112.811888,25.1050213 109.319258,25.1624327 105.769334,25.1050213 C102.276369,25.3647237 98.9268086,25.9128344 96.2356342,28.2791999 C91.7408504,32.0737602 91.3401228,38.6382548 95.5628407,42.7647884 C98.1823129,45.2611741 102.348071,46.689031 105.840701,46.689031 L116.376219,46.689031 C118.92399,46.689031 121,48.9257142 121,51.6237155 L121,52.9080437 C121,55.6198913 118.924325,57.7843036 116.376219,57.7843036 L105.840701,57.7843036 C98.254015,57.7843036 89.593808,55.0140314 84.4835252,49.185079 C77.8416989,41.6101425 76.5674788,30.3132544 86.1011783,21.0358991 C93.6875291,13.5913205 106.241428,14.211702 106.241428,14.211702 Z"/>
    <path fill="#0A090A" d="M184.570926,14.2302265 C188.980853,14.2302265 191.393101,16.3142085 192.934454,19.5629866 L206.792267,53.1264031 C206.792267,53.1264031 210.331968,62.0962065 215.027182,61.8230077 C219.76549,61.4926121 222.320047,55.0815241 222.320047,55.0815241 L243.399905,6.74148357 C244.670335,3.78037178 245.954462,0.402396284 249.964853,0.143664894 L258,0 L230.555296,59.1354312 C230.012782,60.34262 226.131004,69.915345 217.496554,71.1952074 C209.67554,72.4027327 203.038769,68.0187665 199.956062,61.4209479 L184.371158,28.1155899 C184.371158,28.1155899 182.758316,25.1548145 179.204585,25.284012 L174.123866,25.284012 C172.382745,25.4852101 171.512184,26.4340041 171.383571,28.1875905 L171.383571,67.0124394 C171.383571,69.7720166 168.77189,72 165.96044,72 L164.347932,72 C161.536149,72 159.19539,69.7720166 159.19539,67.0124394 L159.19539,19.347321 C159.19539,16.1853475 161.079489,14.2305629 164.347932,14.2305629 L184.570926,14.2305629 L184.570926,14.2302265 Z M129.552571,14.5609585 C127.069168,14.5609585 125,16.788942 125,19.2901242 L125,20.8425125 C125,23.3288909 127.069168,25.3560127 129.552571,25.3560127 L140.056755,25.3560127 C141.797876,25.4852101 142.668437,26.4340041 142.79705,28.2451238 L142.79705,67.0124394 C142.79705,69.7720166 145.337242,72 148.220181,72 L149.761534,72 C152.644472,72 154.913742,69.7720166 154.913742,67.0124394 L154.913742,19.6925205 C154.913742,16.5160796 153.044008,14.5609585 149.761534,14.5609585 L129.552571,14.5609585 Z M186.640428,0.143664894 L129.552571,0.143664894 C127.069168,0.143664894 125,2.35751736 125,4.85836316 L125,6.06588847 C125,8.56707072 127.069168,10.5218553 129.552571,10.5218553 L186.512149,10.5218553 C191.664358,10.6510528 194.533265,12.6058374 196.888055,18.2693296 L210.745868,51.7038851 C211.545274,54.0038692 212.886859,57.2375069 214.827748,57.5827064 C216.825761,57.913102 218.167681,54.2047309 219.309498,52.9255414 C220.379492,51.6460154 225.460546,39.3127039 225.460546,39.3127039 L242.001864,0.000336451743 L234.837612,0.144001346 C230.01345,0.474733409 228.671865,5.13189843 228.671865,5.13189843 L216.897584,34.9869438 C216.826095,35.6625389 216.027358,37.0857298 215.084974,36.9417284 C214.086135,36.8845316 213.61511,34.9869438 213.61511,34.9869438 L205.051814,9.77425957 C201.369136,-0.876793241 187.982014,0.215665567 186.640428,0.143664894 Z"/>
  </g>
</svg>
