<svg xmlns="http://www.w3.org/2000/svg" width="300" height="300" style="background:#fff" viewBox="0 0 300 300">
  <g fill="#473B69" fill-rule="evenodd" transform="translate(60 59)">
    <path d="M86.4942804,0.975782665 C96.5086753,1.61911134 97.6647472,20.6594922 87.2036994,22.0431932 C86.8146583,22.0663882 86.4264677,22.0927438 86.0391528,22.1222348 C86.0161004,22.122393 85.9929993,22.1224722 85.9698492,22.1224722 C49.6426023,24.928192 21.0351759,55.3161636 21.0351759,92.3906734 C21.0351759,131.312345 52.5642287,162.864594 91.4572864,162.864594 C130.350344,162.864594 161.879397,131.312345 161.879397,92.3906734 C161.879397,79.5200159 158.431697,67.4552043 152.410105,57.0706882 C147.295138,46.0689514 163.862345,39.2254201 168.158434,43.6297535 C176.929097,57.6308397 182,74.189323 182,91.9330505 C182,142.227938 141.257912,183 91,183 C40.7420878,183 0,142.227938 0,91.9330505 C0,43.1500628 38.3294325,3.32598005 86.4942804,0.975782665 Z"/>
    <circle cx="130" cy="23" r="14"/>
    <rect width="23" height="95" x="80" y="42" rx="11.5" transform="rotate(30 91.5 89.5)"/>
  </g>
</svg>
