<svg xmlns="http://www.w3.org/2000/svg" width="300" height="300" style="background:#fff" viewBox="0 0 300 300">
  <g fill="#5B5C5C" transform="translate(47 73)">
    <path d="M63.3783027,86 C65.2590073,86 66.7566054,87.7777778 66.7566051,90 C66.7566051,92.2222222 65.259007,94 63.3783027,94 C61.4975981,94 60,92.2222222 60,90 C60,87.7777778 61.4975981,86 63.3783027,86 Z M143.621697,86 C145.502402,86 147,87.7777778 147,90 C147,92.2222222 145.502402,94 143.621697,94 C141.740993,94 140.243395,92.2222222 140.243395,90 C140.243395,87.7777778 141.740993,86 143.621697,86 Z"/>
    <path d="M191.627903,64.0478662 C186.098168,64.0478662 181.22922,67.5597198 178.51652,72.8448859 C169.300296,52.747347 150.102727,34.1449538 126.383993,26.4606007 C113.585614,21.3492889 104.612837,11.4743736 103.499934,0 C102.387032,11.5091442 93.4142552,21.3492886 80.6158763,26.4606007 C56.8971414,34.1101829 37.6995727,52.747347 28.4833489,72.8448859 C25.7706491,67.5597201 20.9364788,64.0478662 15.3719661,64.0478662 C6.88608431,64.0478662 0,72.3580944 0,82.6154888 C0,92.8728833 6.88608431,101.183111 15.3719661,101.183111 C17.9455532,101.183111 20.3800273,100.418153 22.5362759,99.0620907 C23.2666183,132.337774 59.227281,153.930458 103.499934,154 C147.772588,153.930458 183.733251,132.337774 184.463593,99.0620907 C186.585063,100.418153 189.054316,101.183111 191.627903,101.183111 C200.113785,101.183111 206.999869,92.8728833 206.999869,82.6154888 C207.034647,72.3580944 200.148563,64.0478662 191.627903,64.0478662 Z M22.3971633,88.4222172 C21.6668209,91.099571 18.4672263,92.2470083 15.2328534,90.9604876 C11.9984805,89.7087378 9.94656654,86.5098215 10.6769086,83.8324679 C11.407251,81.1551141 14.6068456,80.0076768 17.8412185,81.2941972 C21.0755914,82.545947 23.0927274,85.7448633 22.3971633,88.4222172 Z M103.499934,144.716189 C67.9913883,144.646647 39.2298138,127.852337 39.2298138,103.790923 C39.2298138,103.269361 39.2645922,102.782569 39.2645922,102.295778 C39.2645922,102.121924 39.2645922,101.98284 39.2993702,101.808986 C39.3341485,101.461278 39.3689265,101.11357 39.3689268,100.800632 C39.4037051,100.348612 39.4732614,99.8965907 39.5428177,99.4445698 C39.5428177,99.4097989 39.5428177,99.3402573 39.577596,99.3054866 C40.3079384,94.576654 42.1164048,87.3443215 44.8986612,83.2065929 C51.5412982,73.5403025 63.4006655,67.1424701 76.8946086,67.1424701 C87.2932916,67.1424701 96.7181847,70.9672612 103.534713,77.121698 C110.351241,70.9672612 119.741356,67.1424701 130.174817,67.1424701 C143.703538,67.1424701 155.528127,73.5750735 162.170764,83.2065929 C164.953021,87.3790924 166.761487,94.576654 167.491829,99.3054866 C167.491829,99.3402576 167.491829,99.4097991 167.526608,99.4445698 C167.596164,99.8965904 167.630942,100.348611 167.700499,100.800632 C167.735277,101.14834 167.770055,101.461278 167.770055,101.808986 C167.770055,101.98284 167.804833,102.121924 167.804833,102.295778 C167.839612,102.782569 167.839612,103.304132 167.839612,103.790923 C167.804833,127.852337 139.043259,144.646647 103.499934,144.716189 Z M191.801794,90.9604876 C188.567421,92.2122373 185.367826,91.099571 184.637484,88.4222172 C183.907141,85.7448633 185.959056,82.5459472 189.193429,81.2941972 C192.427802,80.0424475 195.627396,81.1551138 196.357738,83.8324679 C197.053303,86.4750508 195.036167,89.6739672 191.801794,90.9604876 Z"/>
  </g>
</svg>
