<svg xmlns="http://www.w3.org/2000/svg" width="300" height="300" style="background:#fff" viewBox="0 0 300 300">
  <g fill="none" fill-rule="evenodd" transform="translate(40 125)">
    <path fill="#000" fill-rule="nonzero" d="M148.876188,4.00410615 C141.530931,2.48976212 133.92489,1.78507242 126.415297,1.63301171 C116.332697,1.42859402 116.188653,1.78857952 115.070117,11.535494 C113.690799,23.5548011 112.567254,35.6034182 111.241295,48.5365925 C118.843577,48.6949161 126.08362,49.0749424 133.313642,48.9346559 C141.260378,48.7805912 148.967625,47.3651993 155.454879,42.2209388 C162.760806,36.4273518 165.146681,28.640442 163.807695,19.7562904 C162.521567,11.2206003 157.11427,5.70257636 148.876188,4.00410615 Z M145.351236,35.0119595 C139.500532,39.4367499 132.791074,40.071046 125.108628,39.079019 C126.033768,29.7667428 126.936863,20.6776724 127.92413,10.7381145 C132.371467,11.0505028 136.358613,11.0550119 140.248059,11.6730247 C145.185898,12.4576277 149.066326,14.9742696 150.230455,20.2377738 C151.52009,26.0681863 150.302102,31.2678097 145.351236,35.0119595 Z M107.595095,2.91087258 C107.154695,6.10013865 106.744858,9.06795244 106.320741,12.1407306 C100.169423,11.6093951 94.3162141,10.880155 88.4452189,10.6880124 C85.3446339,10.5865551 82.1152859,11.0923385 79.1397064,11.9796515 C77.7761704,12.3862322 76.8840979,14.373793 75.7780881,15.644389 C76.9559948,16.6582103 77.976079,18.1520124 79.3396147,18.5994265 C84.3067633,20.2292565 89.4685597,21.2783999 94.4053963,22.9846361 C99.5844779,24.7747937 104.715962,27.1754485 104.962466,33.7075447 C105.213479,40.354375 100.776413,44.0318887 95.2887011,46.2757233 C83.0554568,51.2781939 70.5020586,50.7561273 57.9431489,47.5668612 C57.2336994,47.3867433 56.3235898,46.0557739 56.3463864,45.2851994 C56.4230431,42.6974122 56.8799766,40.1208981 57.1407594,37.9587304 C64.6323158,38.5451787 71.8297711,39.2696588 79.0452635,39.5772873 C81.2785766,39.6724817 83.724073,38.9730526 85.759231,37.9892928 C87.0200571,37.3797975 88.4494775,35.5182442 88.3983732,34.2767074 C88.3532811,33.1812192 86.5303066,31.6756431 85.1935754,31.2116952 C81.8231891,30.0413039 78.2228333,29.5422843 74.829901,28.4239997 C71.4434822,27.3079695 67.9854168,26.1280588 64.9319281,24.3389033 C57.6876269,20.0939802 57.2665167,12.7482219 63.7467566,7.36973291 C68.7296875,3.23403309 74.7612608,1.92510874 80.9892353,1.12046486 C88.7523465,0.117665442 101.620638,0.867197051 107.595095,2.91087258 Z M219.178075,21.3452867 C218.541775,30.1086914 217.464323,38.8402814 216.567241,47.7437225 C211.837076,47.7437225 207.474914,47.7437225 202.590935,47.7437225 C203.48902,39.3891529 204.238301,31.2249723 205.276171,23.0978676 C206.313541,14.9745205 203.472486,11.4052279 195.323587,11.111628 C185.346452,10.7521436 185.315138,10.7486362 184.242196,20.6120386 C183.27497,29.5049582 182.386404,38.406395 181.42519,47.6705729 C176.667219,47.6705729 172.325098,47.6705729 167.880517,47.6705729 C169.275868,33.421961 170.599822,19.4499141 172.110158,5.49790824 C172.210614,4.57051333 173.615734,3.23328129 174.60225,3.03863357 C184.095897,1.16405361 193.647412,-0.0406579088 203.335957,1.56587455 C214.72197,3.45398203 220.013281,9.83977929 219.178075,21.3452867 Z"/>
    <path fill="#C70C17" d="M45.9814594,0.281500362 C48.8300295,0.503203337 51.6525463,1.05733543 54.779435,1.49973939 C54.3723531,5.22835738 54.005103,8.59022635 53.7185173,11.2155904 C46.2349774,11.2155904 39.4922008,10.8142703 32.8170626,11.3162961 C24.2966542,11.9568549 18.8926129,16.3074939 17.3038668,22.7463994 C15.3365973,30.719189 18.567699,36.8669997 26.6419459,38.2009754 C32.7912597,39.2168009 39.2151347,38.5930263 45.5170104,38.6421266 C46.7054386,38.6513955 47.8961212,38.3948715 48.9279794,38.2788845 C49.1957765,38.6168249 49.3583587,38.7262986 49.3561041,38.832265 C49.1491813,49.1012461 49.1466762,49.5539209 38.8691778,49.5123359 C31.2365834,49.4815228 23.4186101,48.8705247 16.0312666,47.080868 C7.86959108,45.1033277 1.61406016,39.8160249 0.281337211,30.8539642 C-1.13255152,21.3475411 2.86336266,13.8133977 10.4538712,8.33219902 C21.0921069,0.65075472 33.3188379,-0.704013284 45.9814594,0.281500362 Z"/>
  </g>
</svg>
