<svg xmlns="http://www.w3.org/2000/svg" width="300" height="300" style="background:#2794ea" viewBox="0 0 300 300">
  <path fill="#FFF" d="M164.283962,130.41547 C161.001062,128.611496 159.108309,127.139056 159.196562,122.713574 C159.309852,117.006535 148.621806,108.947988 144.213518,110.448056 C134.762897,113.663563 131.698439,117.372604 132.253621,127.465567 C133.035383,141.683874 128.953195,153.589601 119.082588,164.051145 C106.098077,177.812336 80.0871164,179.677217 67.0656759,169.583626 C55.5263912,160.639103 51.3215249,147.272238 50.7613351,133.063351 C50.4408688,124.93385 51.5061683,116.749722 51.9474352,108.590082 C43.5802647,124.150224 43.3843546,140.075806 49.1590043,156.282691 C54.8353861,172.21518 66.5180042,183.170259 79.7754133,192.867013 C58.8962932,186.630021 45.6219847,172.421762 39.5756898,152.290464 C30.7541079,122.919527 42.8360572,94.2675433 69.3033059,79.4200755 C72.3696411,77.6996128 76.495643,77.8804496 80.1309305,77.1797062 C79.4004932,80.1296094 78.512326,83.0518845 77.995324,86.0388335 C77.6610875,87.9702728 77.0877538,90.6991529 78.0547854,91.7797794 C79.0049176,92.8415687 81.9466965,92.8604058 83.7023753,92.3191507 C93.1235793,89.4163405 98.6678937,82.2638625 102.172367,73.5824322 C105.909678,64.3233288 112.65887,59.1506379 121.948633,56.5479671 C129.651087,54.3898541 137.27405,51.9479271 145.624321,49.4224884 C131.196459,40.4867562 131.196459,40.4867562 131.605805,35.1432756 C133.456622,36.619483 135.032664,37.8972718 136.629988,39.1480608 C143.677113,44.6654721 151.716307,47.5287239 160.570436,46.4625392 C165.19967,45.9049585 171.07071,44.9210295 170.999356,38.3719692 C170.931132,32.1456523 165.497603,31.0581185 160.718151,29.8337016 C160.058441,29.6647951 159.313608,29.6886551 158.628862,29.7809573 C154.170502,30.3780959 152.057428,28.3091452 150.578402,24.0915003 C143.46493,3.80448163 123.30811,-2.03818466 106.44045,0.591485933 C87.9172569,3.47922603 70.9206595,10.8910302 55.7147913,22.2624098 C53.2743665,24.0877328 49.3905922,24.9416854 46.2798172,24.7225461 C34.0814485,23.8641982 22.5553083,25.4760332 12.3924004,32.6756048 C5.82659998,37.3271331 0.598996265,43.0844045 0,53.6577156 C4.80198475,52.0270435 8.15999437,50.2594878 11.6644666,49.890279 C14.5843386,49.582605 18.5313298,50.0139763 20.4140684,51.8129278 C21.8661803,53.1999721 21.3047391,57.316525 20.7458007,60.0347302 C20.2482022,62.4540526 18.5106748,64.6121657 17.3446034,66.8977442 C-2.41914477,105.623226 5.60064603,151.023977 36.9556292,177.850638 C63.7464733,200.772979 94.2470887,205.066601 126.960298,194.582452 C150.435694,187.058881 165.361781,170.825625 170.310854,146.15017 C171.600855,139.701573 170.499253,133.830652 164.283962,130.41547 Z M120.749388,16.4253942 C117.840156,21.4072011 116.604609,26.1133574 124.878519,29.5128413 C117.528452,30.9890486 114.475887,28.8453774 113.763602,23.3599895 C113.186512,18.9156696 115.409746,16.6903704 120.749388,16.4253942 Z" transform="translate(65 50)"/>
</svg>
