<svg xmlns="http://www.w3.org/2000/svg" width="300" height="300" style="background:#f03e70" viewBox="0 0 300 300">
  <path fill="#FFF" d="M150,238 C101.479,238 62,198.521 62,150 C62,101.479 101.479,62 150,62 C198.5265,62 238,101.479 238,150 C238,198.521 198.5265,238 150,238 Z M224,162.438675 C221.416187,161.627266 200.646306,155.428535 177,159.215115 C186.871491,186.328349 190.885234,208.41305 191.65817,213 C208.585458,201.557464 220.63221,183.430457 224,162.438675 Z M179,219.0296 C177.890872,212.431907 173.552706,189.436278 163.067895,162 C162.903985,162.055027 162.740074,162.110053 162.576164,162.16508 C120.462082,176.945233 105.338603,206.36247 104,209.124806 C116.659357,219.068119 132.569607,224.999989 149.834851,224.999989 C160.177606,225.005492 170.039557,222.875961 179,219.0296 Z M94.232177,200 C95.9292946,197.096774 116.458942,163.079732 155.049205,150.595861 C156.023679,150.27815 157.009102,149.982349 158,149.702982 C156.122222,145.452222 154.074731,141.190505 151.934173,137 C114.570215,148.185636 78.3121196,147.720024 75.0383251,147.654291 C75.0164268,148.415703 75.0000031,149.177115 75.0000031,149.944005 C74.9945285,169.171029 82.2811848,186.727328 94.232177,200 Z M76,134.992487 C79.3369479,135.036791 110.090391,135.175239 145,125.771828 C132.63527,103.481645 119.29294,84.7357392 117.326817,82 C96.4476809,91.9848944 80.8388476,111.506111 76,134.992487 Z M132,77.0911586 C134.096232,79.8683928 147.860382,98.4198783 160.276953,121 C187.228511,111.00525 198.635785,95.823768 200,93.9027562 C186.618496,82.1516525 169.0168,75 149.762518,75 C143.645735,75.0054886 137.700864,75.7354731 132,77.0911586 Z M207.298684,103 C205.740039,105.152925 193.346646,121.360583 166,132.749002 C167.721004,136.34273 169.371653,139.997181 170.90865,143.679234 C171.455258,144.98203 171.98563,146.279305 172.499767,147.571059 C197.107959,144.413437 221.564617,149.47557 224,150 C223.837641,132.191449 217.597649,115.840263 207.298684,103 Z"/>
</svg>
