<svg xmlns="http://www.w3.org/2000/svg" width="300" height="300" style="background:#008cdf" viewBox="0 0 300 300">
  <path fill="#FFF" fill-rule="evenodd" d="M195.897059,207.035257 C193.97668,208.571561 192.056301,209.723788 190.135922,211.260091 C156.337251,233.152412 110.63223,223.550517 88.7399088,189.751846 C66.8475878,155.953175 76.449483,110.63223 110.248154,88.7399088 C144.046825,66.8475878 189.751846,76.449483 211.644167,110.248154 C212.796394,112.168533 213.948622,114.088912 215.100849,116.009291 C215.869001,117.92967 215.484925,120.234125 213.564546,121.002277 L145.199052,165.55507 C143.278673,166.707298 140.974219,166.323222 139.437915,164.402843 L135.981233,159.025781 C132.908627,154.032796 134.060854,147.503507 139.05384,144.430901 L182.838481,116.009291 C184.758861,114.857064 185.142936,112.168533 183.990709,110.248154 C183.606633,109.864078 183.606633,109.480002 183.222557,109.480002 C165.939146,95.6532733 141.358294,93.3488185 121.770428,106.02332 C97.5736523,121.770428 90.6602878,154.032796 106.407396,177.845496 C122.154504,202.042272 154.416872,208.955636 178.613648,193.208528 C183.606633,190.135922 190.135922,191.672225 193.208528,196.281135 L196.665211,201.658196 C197.817438,203.578575 197.433362,205.88303 195.897059,207.035257 Z M218.219873,171.746701 L211.306509,176.35561 C209.38613,177.507838 207.081675,177.123762 205.545372,175.203383 L196.711628,161.376654 C195.559401,159.456275 195.943476,157.15182 197.863856,155.615517 L211.690585,146.781773 C213.610964,145.629546 215.915418,146.013622 217.451722,147.934001 L222.060631,154.847365 C225.517314,160.608502 223.596935,168.290018 218.219873,171.746701 Z"/>
</svg>
