<svg xmlns="http://www.w3.org/2000/svg" width="300" height="300" style="background:#fff" viewBox="0 0 300 300">
  <path d="M20,163.977654 C20,166.748603 22.2388889,169 25.1666667,169 L45.8333333,169 L45.8333333,163.804469 L25.1666667,163.804469 L25.1666667,158.608939 L45.4888889,158.608939 C48.2444444,158.608939 51,156.357542 51,153.586592 L51,153.759777 L51,143.541899 C51,140.77095 48.4166667,138 45.4888889,138 L25.1666667,138 C22.4111111,138 20,140.77095 20,143.541899 L20,163.977654 Z M46,153 L25,153 L25,143 L46,143 L46,153 Z M115.005556,138 L94.5111111,138 C91.7555556,138 89,140.733333 89,143.466667 L89,163.795833 L89,163.625 C89,166.358333 91.7555556,168.75 94.5111111,168.75 L114.833333,168.75 L114.833333,173.875 L94.1666667,173.875 L94.1666667,179 L115.005556,179 C117.761111,179 120,176.608333 120,173.875 L120,143.466667 C120,140.733333 117.761111,138 115.005556,138 Z M115,164 L94,164 L94,143 L115,143 L115,164 Z M74.6666667,138 L59.3388889,138 C56.5833333,138 54,140.755556 54,143.511111 L54,169 L59.1666667,169 L59.1666667,143.166667 L74.6666667,143.166667 C77.4222222,143.166667 79.8333333,145.75 79.8333333,148.677778 L79.8333333,169 L85,169 L85,148.677778 C85,142.994444 80.35,138 74.6666667,138 Z M148.833333,163.833333 L128.166667,163.833333 L128.166667,148.505556 C128.166667,145.75 130.922222,142.994444 133.85,142.994444 L148.833333,142.994444 L148.833333,168.827778 L154,168.827778 L154,143.511111 C154,140.755556 151.933333,138 149.177778,138 L133.85,138 C128.166667,138 123,142.994444 123,148.677778 L123,164.005556 C123,166.761111 125.927778,169 128.683333,169 L137.638889,169 C142.288889,169 147.111111,167.105556 148.833333,163.833333 L148.833333,169 L148.833333,163.833333 Z M265.25,122 L260,122 L260,169 L265.25,169 L265.25,142.888889 L281,142.888889 L281,137.666667 L265.25,137.666667 L265.25,122 Z M193,163.795833 C193,166.529167 194.535294,168.75 197.264706,168.75 L216.882353,168.75 L216.882353,173.875 L198.117647,173.875 L198.117647,179 L217.564706,179 C220.294118,179 222,176.608333 222,173.704167 L222,173.875 L222,143.466667 C222,140.733333 220.294118,138 217.564706,138 L197.264706,138 C194.535294,138 193,140.733333 193,143.466667 L193,163.795833 Z M218,164 L199,164 L199,143 L218,143 L218,164 Z M182.833333,137.666667 L162.855556,137.666667 C160.1,137.666667 157,140.451852 157,143.237037 L157,163.951852 L157,163.777778 C157,166.562963 160.1,169 162.855556,169 L188,169 L188,122 L182.833333,122 L182.833333,137.666667 Z M184,164 L163,164 L163,143 L184,143 L184,164 Z M226,163.977654 C226,166.748603 228.927778,169 231.683333,169 L251.833333,169 L251.833333,163.804469 L231.166667,163.804469 L231.166667,158.608939 L252.177778,158.608939 C254.933333,158.608939 257,156.357542 257,153.586592 L257,153.759777 L257,143.541899 C257,140.77095 254.933333,138 252.177778,138 L231.683333,138 C228.927778,138 226,140.77095 226,143.541899 L226,163.977654 Z M252,153 L231,153 L231,143 L252,143 L252,153 Z"/>
</svg>
