<svg xmlns="http://www.w3.org/2000/svg" width="300" height="300" style="background:#ffc300" viewBox="0 0 300 300">
  <g fill="none" transform="translate(-78 57)">
    <path fill="#FFC300" d="M157.568412,319 C112.35042,319 71.8599864,303.134404 43.1333341,274.30844 C14.8047274,245.8678 -0.265895319,209.18855 0.00355100395,162.992388 C0.248502207,119.462919 17.9094839,76.99768 48.9325538,47.6579492 C83.9728234,14.5077843 129.539871,0 195.27865,1.08869545 L378,0 L375.109576,13.5169492 C372.084428,30.4100775 365.342147,58.6916941 351.59426,76.171984 L376.438436,75.7132641 L372.782539,92.300579 C369.616545,106.881759 354.202991,159.212535 309.413663,179.335053 C306.921285,211.543312 291.275027,249.445816 266.424727,274.302324 C237.789931,302.926451 202.418978,318.993884 157.58066,318.993884 L157.568412,319 Z"/>
    <path fill="#3D3D3D" d="M155.674902,289 C119.330025,289 86.7629967,276.156388 63.9359282,253.463977 C41.2934452,230.942002 29.7876182,199.679067 30.0029679,163.071728 C30.3721388,98.3362692 77.281457,31.7990524 189.226385,33.0164564 L333,33.0164564 L329.720532,48.7392293 C325.991905,66.5985463 319.260689,81.7065302 313.230897,91.2266297 L332.563148,91.2266297 L329.486723,103.985024 C329.179081,105.890261 319.149938,148.29853 280.768468,170.102236 C279.107199,203.446932 266.659986,233.102894 245.291142,254.285724 C222.605589,276.777264 191.613691,289 155.662596,289 L155.674902,289 Z"/>
    <path fill="#FFF" d="M302,51.0186767 C302,51.0186767 213.113936,51.3857357 184.376702,51.0186767 C92.2449359,49.8257347 48.3246203,105.979655 48.0024812,162.359928 C47.6013269,232.498798 95.8978711,270 152.989419,270 C217.356447,270 257.909498,223.628204 257.77578,161.289339 C294.292975,144.630975 300.7236,104.113771 300.7236,104.113771 L277.353324,104.113771 C285.619534,94.802706 297.714943,77.3429296 302,51.0247943 L302,51.0186767 Z"/>
    <g fill="#3D3D3D" transform="translate(86 118)">
      <ellipse cx="11.124" cy="10.487" rx="10.48" ry="10.368"/>
      <ellipse cx="125.296" cy="10.487" rx="10.48" ry="10.368"/>
    </g>
    <path fill="#FF6D6D" d="M164.333494,219 L141.666506,219 C120.343863,219 103,201.506548 103,180 C103,158.493452 120.337835,141 141.660477,141 L164.327466,141 C185.673725,141.023451 202.973421,158.469635 203,180 C202.973421,201.530365 185.673725,218.976549 164.327466,219 L164.333494,219 Z"/>
    <circle cx="138.5" cy="179.5" r="8.5" fill="#3D3D3D"/>
    <circle cx="170.5" cy="179.5" r="8.5" fill="#3D3D3D"/>
  </g>
</svg>
