<svg xmlns="http://www.w3.org/2000/svg" width="300" height="300" style="background:#fff" viewBox="0 0 300 300">
  <g fill="#161614" transform="translate(41 44)">
    <path d="M109.000427,0 C48.8089048,0 0,48.8878992 0,109.195964 C0,157.442415 31.2318859,198.373452 74.5414005,212.812446 C79.9886435,213.823005 81.9890435,210.443629 81.9890435,207.559256 C81.9890435,204.955784 81.8873138,196.353192 81.8411507,187.22905 C51.5162837,193.834504 45.1175684,174.345287 45.1175684,174.345287 C40.159312,161.723585 33.0151485,158.368189 33.0151485,158.368189 C23.1259916,151.590597 33.7605967,151.729335 33.7605967,151.729335 C44.7063751,152.5001 50.4699207,162.982501 50.4699207,162.982501 C60.1915227,179.676411 75.9690364,174.84971 82.1890835,172.060398 C83.1670568,165.001905 85.9924081,160.185481 89.1092707,157.458687 C64.8993016,154.69678 39.4480587,145.3337 39.4480587,103.49316 C39.4480587,91.571998 43.7061751,81.8303872 50.6793643,74.1835439 C49.547514,71.4327699 45.8168535,60.3269054 51.7351309,45.2858583 C51.7351309,45.2858583 60.8882432,42.3509572 81.7180492,56.4790761 C90.4120953,54.0588746 99.7370367,52.8462047 109.000427,52.8050972 C118.263818,52.8462047 127.595599,54.0588746 136.306742,56.4790761 C157.111757,42.3509572 166.252046,45.2858583 166.252046,45.2858583 C172.184856,60.3269054 168.452486,71.4327699 167.320636,74.1835439 C174.309213,81.8303872 178.538263,91.5711416 178.538263,103.49316 C178.538263,145.433043 153.039148,154.668518 128.767628,157.371334 C132.676956,160.760129 136.160559,167.405835 136.160559,177.592777 C136.160559,192.203052 136.034038,203.962354 136.034038,207.559256 C136.034038,210.465039 137.995969,213.870107 143.52186,212.797888 C186.807438,198.342622 218,157.426143 218,109.195964 C218,48.8878992 169.197934,0 109.000427,0"/>
    <path d="M40.8947544,155.850039 C40.6574136,156.391665 39.8114631,156.554239 39.0426484,156.182887 C38.2585761,155.826936 37.8178003,155.087655 38.072094,154.543461 C38.3051966,153.985577 39.1511471,153.829849 39.9335241,154.204624 C40.7192917,154.559718 41.1668487,155.305845 40.8947544,155.850039 M46.2111886,160.638257 C45.69582,161.120844 44.6879692,160.896663 44.0039191,160.134279 C43.2969825,159.373606 43.1647498,158.357094 43.6877472,157.866806 C44.2192211,157.385075 45.1965566,157.610111 45.9051885,158.37164 C46.6121251,159.140869 46.7494437,160.151392 46.210341,160.639113 M49.8586083,166.764712 C49.1957493,167.22933 48.1124581,166.793804 47.4436656,165.823497 C46.7816542,164.854045 46.7816542,163.690361 47.4580755,163.224032 C48.129411,162.757703 49.1957493,163.176971 49.873866,164.139577 C50.5350297,165.126142 50.5350297,166.289826 49.8577607,166.765568 M56.0260789,173.860619 C55.4335745,174.519469 54.1722776,174.343205 53.2483437,173.443062 C52.3040664,172.563453 52.0404485,171.31506 52.6346482,170.655353 C53.2339338,169.994791 54.5028595,170.180468 55.4335745,171.072911 C56.3719184,171.950808 56.6584226,173.208613 56.0269265,173.860619 M63.9973396,176.256439 C63.7371124,177.110378 62.5215884,177.498843 61.2975879,177.136048 C60.0752827,176.762128 59.2751051,175.761018 59.52177,174.897667 C59.7760637,174.037738 60.9966736,173.633016 62.2299982,174.021481 C63.4506081,174.393689 64.252481,175.387099 63.9981873,176.256439 M73.0705399,177.272096 C73.1010551,178.17224 72.0626891,178.918367 70.7776581,178.934624 C69.4849983,178.962861 68.4398511,178.234702 68.4262887,177.34996 C68.4262887,176.44126 69.4409207,175.701978 70.7327329,175.680587 C72.0177638,175.654917 73.0705399,176.377942 73.0705399,177.272096 M81.9826874,176.927269 C82.1369589,177.805166 81.2435403,178.707021 79.9678334,178.946603 C78.7133177,179.177629 77.552043,178.636002 77.391838,177.765806 C77.2358711,176.865662 78.1462427,175.964663 79.3982155,175.73107 C80.6764653,175.50689 81.8199394,176.034826 81.9826874,176.927269"/>
  </g>
</svg>
