<svg xmlns="http://www.w3.org/2000/svg" width="300" height="300" style="background:#fff" viewBox="0 0 300 300">
  <g fill="none" transform="translate(55 62)">
    <path fill="#E24329" d="M11 67.422543L61 115 61 67.422543 39.6780384 2.50574607C38.5852878-.83524869 33.4093817-.83524869 32.3219616 2.50574607L11 67.422543zM181 67.422543L131 115 131 67.422543 152.321962 2.50574607C153.414712-.83524869 158.590618-.83524869 159.678038 2.50574607L181 67.422543z"/>
    <polygon fill="#E24329" points="95.5 176 16 68 175 68"/>
    <polygon fill="#FC6D26" points="96 176 60.831 68 11 68 32.25 126.292"/>
    <polygon fill="#FC6D26" points="96 176 131.169 68 181 68 159.75 126.292"/>
    <path fill="#FCA326" d="M10.3942467 68L.359856443 100.643768C-.590769999 103.63788.359856443 107.002944 3.00048545 108.910697L95 176 10.3942467 68zM180.594184 68L190.639743 100.643768C191.591428 103.63788 190.639743 107.002944 187.996175 108.910697L96 176 180.594184 68z"/>
  </g>
</svg>
