<svg xmlns="http://www.w3.org/2000/svg" width="300" height="300" style="background:#fc0033" viewBox="0 0 300 300">
  <g fill="#FFF" transform="translate(17 93)">
    <path d="M170.083039 80C173.905021 68.4654619 177.745804 56.8713765 181.587139 45.2789457 182.314267 45.3120274 183.041948 45.3456609 183.769075 45.3781914 183.769075 51.1068648 183.564484 56.8432577 183.826582 62.559801 184.078174 68.04808 185.144812 73.4084422 190.149552 76.850057 193.883063 79.4188625 195.005549 78.6541203 196.422757 74.4676126 198.199381 69.2219339 200.652816 64.2028665 202.595878 59.6050405 206.245893 65.1368772 209.286559 70.3483707 212.953162 75.0779723 215.008473 77.728931 217.688063 77.8899294 219.88327 74.3628533 223.700276 68.2267216 226.632563 62.0310426 223.980621 54.5760482 217.622816 52.4417178 219.317051 59.9705951 215.303195 61.6279956 214.670622 59.6645879 213.811892 57.845086 213.519382 55.9384687 212.60204 49.9324591 211.769299 43.9082545 211.148338 37.8658544 210.535671 31.9127756 208.812682 26.8021814 202.601408 23.8915299 199.491071 35.47955 196.492982 46.644674 193.494894 57.8114526 192.904344 57.6945636 192.312689 57.577123 191.72214 57.4618876 191.72214 53.7572717 191.746469 50.0526563 191.717163 46.3474892 191.662421 39.0876773 191.703339 31.8245577 191.44843 24.5708107 191.33784 21.4379597 190.294425 17.7824151 186.630034 18.0101287 184.810832 18.1237099 182.718474 21.2036301 181.571658 23.3743505 178.102457 29.9438543 174.861071 36.6478909 171.858559 43.442903 168.655879 50.6894817 165.374681 57.9537048 162.962718 65.4787227 160.506518 73.1371703 162.704489 76.6377813 170.083039 80zM228.714342 37.0221131C229.824654 39.3827822 233.416157 39.7545324 235.947137 36.7579166 236.992169 35.5213231 238.872009 34.9868631 240.071943 34.3051372 238.690554 42.6695166 236.624278 50.6957916 236.220981 58.8036967 235.745765 68.3963965 244.432421 74.1645919 253.67285 71.2347148 258.839922 69.5971386 263.300533 66.9932324 265.318125 61.5250849 266.310048 58.837342 270.101263 56.1738675 266.433969 53.3245181 262.664883 50.3957442 261.575593 55.1601035 259.344458 56.6211813 256.953442 58.1854005 254.698519 60.0380841 252.135452 61.23662 249.680263 62.3816545 246.583339 63.2718695 245.380086 59.5488518 244.236028 56.0028846 245.755723 54.2665792 249.592301 53.1750455 253.86537 51.9594115 258.243551 49.956152 261.582785 47.1305196 263.239125 45.7284588 262.672628 41.7131155 263.110778 38.8814156 260.978669 38.8941014 258.753619 38.5273154 256.737687 39.0165476 254.255943 39.6177462 251.949017 40.9315575 248.723193 42.2950094 249.783162 33.2174649 256.21766 26.1249784 252.618966 17 244.846782 20.5586531 236.794669 23.7268032 229.415825 28.0372303 227.829191 28.9643995 227.548155 34.543962 228.714342 37.0221131zM124.256253 73.5132996C125.378657 83.0420129 134.601791 87.1121083 142.040019 81.3341363 152.864435 72.9276302 158.237016 61.0785716 159.925366 47.7499859 160.698937 41.6465176 155.302915 33.2640188 150.971809 31.6817622 145.470858 29.6707216 141.389795 32.4477663 137.381848 35.6022302 129.365395 41.9161824 129.604834 48.3295135 138.022584 53.2783923 140.884686 50.8073029 143.608371 48.1687194 146.65968 45.9918603 147.683294 45.2604716 149.724384 45.2755459 150.956181 45.7836101 151.6438 46.067233 152.182956 48.2574914 151.837472 49.2585449 148.574073 58.7135611 143.448186 66.7231068 134.230633 71.3146662 133.690361 71.0773837 133.149531 70.8378675 132.609259 70.5983519 133.395667 67.3612584 133.958264 64.0476753 135.034343 60.9105194 136.011633 58.0636857 134.04645 52.4420411 131.147511 52.5548199 129.068468 52.633542 125.67335 54.9661702 125.324518 56.7700764 124.265741 62.2337193 123.610494 68.0222993 124.256253 73.5132996zM117.0368 35.4687322C105.482853 41.9275741 91.4787396 37.1382068 79.4896495 44.3858728 84.3016307 44.3858728 88.3272617 44.3858728 92.3539967 44.3858728 92.4406942 44.7725406 92.5279438 45.1614204 92.6157454 45.5491947 73.9089885 52.493722 55.2033356 59.4388028 36.4971301 66.382777 36.1260434 65.9839398 35.7549561 65.5834425 35.3844214 65.1823927 36.9267512 63.3386687 38.1024123 60.7348861 40.0738117 59.7839825 48.6176466 55.664507 57.3983805 52.0373552 66.0808206 48.2077418 67.4387116 47.6075497 68.7386203 46.8779153 70.0661396 46.208023 69.9010279 45.8573116 69.7353643 45.5071537 69.5713567 45.1564422 60.10864 47.9405595 50.6453712 50.7230172 39.9053862 53.8827382 49.9959689 35.6319183 62.2081524 21.5072121 80.300849 13.3965967 85.4828128 11.0738255 90.9856124 10.475846 95.6700326 15.0953894 100.507968 4.29082422 97.0494601-.801128155 85.9444625.102202152 84.6064511.211177176 83.2518734.477806531 81.9701877.881068883 54.1795316 9.6294917 36.3546578 28.404166 26.818497 55.6584212 26.016684 57.9502148 24.1468923 60.1485224 22.222431 61.709575 15.7792132 66.9348423 9.05105366 71.8049731 2.50291587 76.9041167-.570700035 79.2960344-.512717667 82.5215835 1.06164065 85.6459018 2.62605939 88.7497528 5.24299515 89.0268921 8.38232426 87.8348056 14.1927061 85.6320728 20.0875767 83.6483961 26.3645782 81.4257491 30.6387044 96.0837135 41.839787 100.559432 55.1961552 99.1123332 63.0375754 98.2632134 70.749778 94.7284415 78.1168472 91.4829782 83.4241633 89.1441649 88.0660634 85.2913187 93.683171 81.6768893 93.519164 83.7258405 93.3490823 85.1414087 93.3021442 86.5608491 93.0227245 95.0492808 91.2909854 103.710856 95.92405 111.654966 96.6684327 112.931135 97.9495663 113.891996 98.9844129 115 100.19652 113.610431 101.739402 112.382941 102.515813 110.78206 103.133739 109.509763 102.747743 107.773908 102.918376 106.254343 104.534151 91.9526215 106.062675 77.6392833 107.861784 63.3596889 108.540454 57.9673634 111.315323 53.6376827 115.698235 50.2102257 122.476647 44.9124927 122.569971 43.3193565 117.0368 35.4687322zM13.6774931 74.5553471C17.0012615 71.790038 20.3244773 69.0252815 23.7448828 66.1769964 25.7063426 71.6672335 24.0756581 73.1458636 13.6774931 74.5553471zM93.5749393 68.8023533C83.228682 78.8794967 71.4693126 86.789863 57.0234289 89.5291731 45.8676278 91.6417391 39.2388666 87.5410713 35.3142913 75.8497709 55.6114209 68.7204838 75.594342 61.7034908 96.0444349 54.5199927 97.7021768 60.5849761 97.235005 65.2377097 93.5749393 68.8023533z"/>
  </g>
</svg>
