<svg xmlns="http://www.w3.org/2000/svg" width="300" height="300" style="background:#fff" viewBox="0 0 300 300">
  <g fill="none" fill-rule="evenodd" transform="translate(43 80)">
    <polygon fill="#85BE46" points="200.612 79.827 197.59 88.898 211.418 89 214 68.846 114.099 68 107 84.317"/>
    <path fill="#85BE46" d="M166.669847,98.0877112 L166.808214,113.150582 C166.940564,121.112243 170.976257,125.000309 178.967429,124.84988 L190.613285,124.638278 C194.783333,124.546016 198.099118,123.621384 200.621802,121.839312 C203.132454,120.02916 204.775808,117.408702 205.562893,113.933812 C206.33895,110.462933 208.128691,105.317288 209,99.4886986 C208.692184,99.4084703 195.040013,98.5209442 195.040013,98.5209442 C194.591826,107.270848 194.005272,109.34475 193.299402,110.895163 C192.587515,112.476664 191.101578,113.261899 188.794466,113.300008 L185.269125,113.382242 C182.300259,113.46247 180.822344,112.1026 180.794269,109.313662 L181.190319,88 C181.190319,88 134.485575,88.9838 133.768676,89.00486 C142.693321,126.680089 112,125.634112 112,125.634112 L117.63493,140 C117.63493,140 156.968142,135.631567 149.698883,98.6924323 L166.669847,98.0877112 Z"/>
    <polygon fill="#85BE46" points="154.604 41.811 154.806 49.479 121.208 49.538 121.182 60.949 155.106 60.88 176.11 60.93 203.879 61 203.9 49.588 175.821 49.519 175.614 40.899 210.965 39.38 211 27.981 175.317 29.508 174.679 7 153.673 10.16 154.287 30.409 114.015 32.16 114 43.569"/>
    <path fill="#2EA1CF" d="M60.4955546,84.5647505 L87.3342586,83.6518004 L92.3199033,69.4341507 L55.9797822,69.8257004 L55.9797822,63.8086201 L73.3590577,63.8086201 L73.3450615,63.9254857 L86.6234519,63.9254857 L91.5491129,0 L3.77897271,4.05134096 L5.0786194,14.6601408 L77.2879897,10.3291215 L75.9493536,28.377366 L55.9797822,30.023473 L55.9797822,17.2881187 L42.5804247,18.2719872 L42.6404084,31.1371922 L20.5804053,32.973081 L19.0238285,13.8300954 L5.0786194,14.6601408 L10.9480238,63.8086201 L24.2464087,63.8086201 L42.6404084,63.8086201 L42.6404084,69.9665385 L0.807780409,70.4150227 L0.807780409,86.590421 L37.9536825,85.3248764 C24.9782098,103.075463 0,106.657344 0,106.657344 L5.1705944,126.742246 C5.1705944,126.742246 29.1100866,117.737602 42.6394087,100.838036 L42.6394087,137.441942 L55.9787825,140 L55.9787825,97.1802427 C70.2469038,113.585377 97.7194355,119.149978 97.7194355,119.149978 L103,100.135844 C103.001,100.136843 74.2368191,97.6636868 60.4955546,84.5647505 Z M74.8076639,44.192179 L74.115852,53.4784997 L55.9797822,53.4784997 L55.9797822,44.192179 L74.8076639,44.192179 Z M23.0097449,53.4784997 L21.9160422,44.192179 L42.6404084,44.192179 L42.6404084,53.4784997 L23.0097449,53.4784997 Z"/>
  </g>
</svg>
