<svg xmlns="http://www.w3.org/2000/svg" width="300" height="300" style="background:#59a700" viewBox="0 0 300 300">
  <g fill="#FFF" transform="translate(43 63)">
    <path d="M38.1918463 130.400255C45.9775571 134.158943 54.2687249 135.102893 62.8065839 134.402488 63.855451 134.316934 64.682354 134.168924 64.9853982 135.603956 65.9416843 140.124934 68.4031295 142.184798 73.0249877 142.720368 76.876009 143.166106 80.7324933 142.939958 84.5863901 142.961061 86.1651535 142.969616 86.9155768 142.187935 86.9618671 140.615731 87.015633 138.797416 87.0064324 136.975107 86.9719304 135.155366 86.9359906 133.255489 86.22467 132.594724 84.2626446 132.582176 82.0513406 132.567347 79.8394614 132.591302 77.62787 132.568202 76.8926854 132.560788 76.1166734 132.652331 75.3935647 132.07598 75.7158727 131.523299 76.2316809 131.492214 76.6385194 131.287739 81.5286323 128.825199 84.9943791 125.307774 85.0050172 119.504052 85.0446947 98.0795285 85.0300314 76.6547201 85.0130678 55.2299118 85.0096175 51.0810955 83.2396543 47.7804082 79.9461312 45.227181 77.4314953 43.2759712 74.4962199 42.325177 71.4818771 41.5389325 64.2220374 39.6453293 56.8506408 39.7471389 49.4778065 40.524543 45.5275912 40.941478 41.6736947 41.9741189 38.2421624 44.0285644 33.7545753 46.7152566 30.9765724 50.4123456 31.0001489 55.9713829 31.0875545 76.9755489 31.0516147 97.9805705 31.0234379 118.985307 31.0168245 124.313062 33.4500928 128.11082 38.1918463 130.400255zM51.4415565 57.1075448C51.4415565 56.3632219 51.4381062 55.6037842 51.5798528 54.8788537 51.8785843 53.3491418 52.7687413 52.2491979 54.2971892 51.7601119 56.734195 50.9812821 59.2080034 50.9462047 61.662548 51.6263618 63.5147417 52.139973 64.2850034 53.1398185 64.3784467 55.0844691 64.4529139 56.6210255 64.4175493 58.162715 64.4175493 59.7021232 64.4204245 68.8935134 64.4186993 78.0851888 64.4186993 87.2765791 64.4181242 97.4946216 64.4209993 107.712379 64.4175493 117.930422 64.4158241 121.821149 63.3982967 122.986969 59.4782708 123.445541 57.4003753 123.688801 55.3420311 123.584995 53.4737365 122.463947 52.2569586 121.733598 51.6192428 120.637932 51.4889969 119.252807 51.4326433 118.650504 51.4378185 118.041072 51.4378185 117.435062 51.4358062 97.3263649 51.435231 77.2168124 51.4415565 57.1075448zM1.59216699 36.9839192C7.27561491 36.9717812 12.9587783 36.9538633 18.6425107 36.997502 19.8739103 37.0070389 20.3309539 36.5538902 20.4903214 35.3065752 21.1721873 29.9832342 23.6358398 25.9635626 28.8366316 24.0755395 30.4653117 23.48425 32.1449328 23.0955478 33.8507355 22.8293807 51.1244787 20.1344755 68.5100637 18.6707012 85.9670794 18.0499337 92.293974 17.8248042 98.6299756 17.9742163 104.962277 17.7892576 109.890721 17.6462035 114.830264 17.8719111 119.764684 17.9727711 122.834787 18.0354836 125.906883 18.0866364 128.97784 18.1799828 139.220056 18.4912335 149.428406 19.2423391 159.61712 20.2983371 166.702719 21.0326808 173.777787 21.8866696 180.796793 23.1331175 187.83515 24.3833225 191.528495 28.271211 192.500922 35.4458726 192.669112 36.6862515 193.207831 36.9998141 194.322835 36.9931672 200.006283 36.9613773 205.689447 36.9506845 211.373179 36.9998141 212.699061 37.0113739 213.100326 36.4845309 212.979662 35.217275 212.673163 32.0151784 212.330238 28.8220408 211.549906 25.6942167 209.154839 16.1017989 203.593193 9.85424246 193.801476 7.60844002 184.650074 5.50973727 175.400491 4.19306291 166.097975 3.15382654 159.297531 2.3940511 152.478589 1.86258401 145.654524 1.36175057 137.622111.771905875 129.583153.334941064 121.537649.0797560361 116.511877-.0800597022 111.476145.0497002121 106.444966.0497002121 98.0178334.0303372169 89.589278-.0586740447 81.1718215.549666633 75.6949822.945304686 70.2016372 1.10801067 64.7262207 1.51896554 56.3266932 2.14984781 47.9362723 2.90731139 39.5825629 4.01388418 31.9642212 5.02306473 24.3763302 6.17992334 16.9415457 8.2592631 10.1157734 10.1683832 5.66941668 14.6360014 2.95504439 21.0760305 1.0044984 25.7034647.393494418 30.6305895.00845093159 35.5964403-.0868848983 36.8200573.635961188 36.986231 1.59216699 36.9839192z"/>
    <path d="M211.266268 138.02702C205.632297 138.118225 199.997187 138.212307 194.364354 138.193606 193.037039 138.18929 192.658538 138.608778 192.466157 139.902053 191.857426 143.992485 190.398917 147.632069 186.552437 149.787048 184.445353 150.967251 182.186585 151.685961 179.827643 152.058839 166.849046 154.109666 153.793611 155.479185 140.686381 156.282195 133.53243 156.720096 126.364249 157.018168 119.199768 157.1111 110.586738 157.223308 101.971431 157.170369 93.3541331 157.014428 81.8963703 156.806986 70.4670663 156.272413 59.0559757 155.234628 50.3370795 154.441688 41.6426577 153.432099 33.0017385 152.018847 30.0528465 151.536638 27.2012834 150.651917 24.8198583 148.635328 21.977402 146.228312 20.9622795 142.951823 20.4366472 139.443724 20.311998 138.61223 20.1053879 138.165986 19.1611277 138.20569 15.2025207 138.37429 11.2510281 137.84576 7.78617973 138.046009 5.28693548 138.046009 3.28429571 138.055503 1.28108693 138.041981.326012383 138.035651-.0578956496 138.483622.00699026999 139.440847.321458961 144.11016.950396622 148.725958 2.63828292 153.111585 5.25591531 159.914011 9.77885887 164.656691 16.9293952 166.664361 23.4575396 168.497675 30.1111869 169.607389 36.7995538 170.531814 49.994152 172.355634 63.2690037 173.324368 76.5512544 174.192977 85.8475778 174.800917 95.1618303 174.891259 104.468114 174.97671 114.101958 175.065326 123.741209 174.916002 133.363954 174.269221 138.703662 173.910154 144.055039 173.711343 149.390763 173.30394 157.556991 172.679601 165.712974 171.915719 173.836798 170.847149 181.413362 169.850507 188.947237 168.667714 196.32772 166.582362 202.999296 164.696971 207.295139 160.239128 209.992172 154.029393 211.965499 149.488401 212.555163 144.616825 212.985744 139.723958 213.104132 138.369975 212.481171 138.00688 211.266268 138.02702zM170.143069 87.0492815C174.994037 73.4794632 179.849822 59.9107862 184.686057 46.3352626 185.49186 44.0742443 184.754057 43.0247509 182.384815 43.0147665 177.423346 42.9950832 172.461878 42.9976506 167.499559 43.016193 165.598102 43.0230392 165.183017 43.3354057 164.605865 45.1802209 162.780625 51.0121989 160.959068 56.8456031 159.172645 62.690133 157.949207 66.6949824 156.787535 70.7189445 155.499781 75.0666836 155.290963 74.3415376 155.18443 73.9886634 155.086396 73.6335073 152.466403 64.0939271 149.472408 54.6684533 146.518364 45.2312838 145.939795 43.3833306 145.469176 43.0273186 143.635153 43.0193313 138.581034 42.9967954 133.526348 42.9896636 128.471663 43.0216133 126.307555 43.0353062 125.539718 44.2054673 126.266471 46.2280032 126.960357 48.1595392 127.656793 50.089649 128.348412 52.0220408 133.04553 65.1534052 137.625914 78.3292711 142.495015 91.3958799 144.47694 96.7123824 145.696977 101.980104 145.459826 107.720797 145.154959 115.084368 145.376526 122.471046 145.392393 129.84774 145.397493 132.385751 146.025929 132.995935 148.503405 132.997647 153.187205 133.000784 157.87129 133.000784 162.554524 132.997647 165.071383 132.995935 165.473152 132.595992 165.473718 130.082513 165.476552 120.65162 165.477402 111.220441 165.471452 101.789262 165.470885 100.851022 165.519902 99.9338913 165.845453 99.0347329 167.290175 95.0444317 168.714497 91.0461437 170.143069 87.0492815zM115.547664 43.0026757C110.847284 42.9989669 106.14749 42.9992521 101.44711 43.0026757 98.5640107 43.0043874 98.0020977 43.5518505 98.0012187 46.3636261 97.9988751 60.2347862 98.0006327 74.1059462 98.0006327 87.9771063 98.0012187 101.988627 97.997117 115.999862 98.0044413 130.011383 98.0059062 132.38068 98.6536587 132.993759 101.085001 132.996897 105.928642 133.002033 110.77287 132.99975 115.61739 132.997468 118.440138 132.996897 118.995606 132.467692 118.99707 129.73865 119.001758 121.004914 118.999414 112.270893 118.999414 103.537443 118.998535 84.4820715 119.000879 65.4264148 118.996191 46.3710435 118.995605 43.5655443 118.410255 43.0043871 115.547664 43.0026757zM211.008569 43.0056434C206.343095 42.9970851 201.677339 42.9996527 197.011866 43.0042169 194.507656 43.0067844 194.002129 43.5134377 194.001282 46.0281607 193.999024 60.0347257 194.000436 74.0412904 194.000436 88.0478554 194.000436 102.101206 193.999024 116.153986 194.002129 130.207336 194.002694 132.496119 194.490721 132.989935 196.778719 132.994214 201.53621 133.003057 206.294546 133.000205 211.052883 132.995926 213.410882 132.993644 213.995443 132.417953 213.995443 130.011065 214.00137 101.99822 214.00137 73.9848053 213.996289 45.9719608 213.995443 43.6172789 213.375035 43.0104931 211.008569 43.0056434zM2.19429885 132.981679C7.41410251 133.013984 12.6339062 132.993972 17.853992 132.992829 19.141585 132.992257 19.8138879 132.289279 19.9510581 131.039413 20.0125872 130.483949 19.9970637 129.917908 19.9970637 129.357297 19.9993216 120.045912 19.9987572 110.734812 19.9987572 101.423712 19.9987572 91.8787627 20.0032732 82.3338131 19.9950881 72.788578 19.9936767 70.4718095 19.517815 70.0061115 17.2178161 70.0035386 12.4137565 69.9986787 7.60941476 69.9989645 2.80535515 70.0035386.413062859 70.0061115.00183472064 70.4280699.00183472064 72.881203-.000140941408 84.0173585.000423375854 95.153228.00127012756 106.289097.00127012756 114.336609-.00381038268 122.384407.0063506378 130.432491.00860845848 132.275843.571401291 132.971388 2.19429885 132.981679zM.0171112192 61.6203368C.0343210934 63.1736789.748950218 63.9663138 2.21629615 63.9753944 7.34199095 64.0079082 12.4674037 64.0084942 17.5930985 63.9753944 19.2446735 63.9645565 19.9674847 63.2073644 19.9773592 61.4867665 20.0075469 56.1650394 20.0075469 50.8433123 19.9773592 45.5215852 19.968049 43.7921995 19.254266 43.0364721 17.602691 43.0256342 12.522983 42.9919488 7.44355711 42.9896053 2.3644135 43.029735.665440889 43.0429164.02698604 43.7675944.0117512954 45.5125046-.0105367352 48.1490559.0058267337 50.7861933.00667286334 53.4230375.00751871727 56.15508-.0144872701 58.8880014.0171112192 61.6203368z"/>
  </g>
</svg>
