<svg xmlns="http://www.w3.org/2000/svg" width="300" height="300" style="background:#e12214" viewBox="0 0 300 300">
  <g fill="#FFF" transform="translate(71 48)">
    <path d="M34 130.095L34 16.905C34 7.35 26.6086957 0 17 0 7.39130435 0 0 7.35 0 16.905L0 130.095C0 139.65 7.39130435 147 17 147 26.6086957 147 34 139.65 34 130.095M141.122302 57L72.8776978 57C63.3381295 57 56 64.3913043 56 74 56 83.6086957 63.3381295 91 72.8776978 91L141.122302 91C150.661871 91 158 83.6086957 158 74 158 64.3913043 150.661871 57 141.122302 57"/>
    <path d="M108.088235 113L16.9117647 113C7.35294118 113 0 120.391304 0 130 0 139.608696 7.35294118 147 16.9117647 147L108.088235 147C117.647059 147 125 139.608696 125 130 125 120.391304 117.647059 113 108.088235 113M141.122302 204L72.8776978 204C63.3381295 204 56 196.608696 56 187 56 177.391304 63.3381295 170 72.8776978 170L141.122302 170C150.661871 170 158 177.391304 158 187 158 196.608696 150.661871 204 141.122302 204"/>
  </g>
</svg>
