<svg xmlns="http://www.w3.org/2000/svg" width="300" height="300" style="background:#fff" viewBox="0 0 300 300">
  <path fill="#0078BA" d="M255.5875,255.65 L211.1625,255.65 L211.1625,186.0375 C211.1625,169.4375 210.825,148.075 188.0125,148.075 C164.85,148.075 161.3125,166.1375 161.3125,184.8125 L161.3125,255.65 L116.8875,255.65 L116.8875,112.5 L159.5625,112.5 L159.5625,132.0125 L160.1375,132.0125 C166.1,120.7625 180.6,108.8875 202.2625,108.8875 C247.275,108.8875 255.6,138.5125 255.6,177.075 L255.6,255.65 L255.5875,255.65 Z M66.7125,92.9124999 C59.8678771,92.9158265 53.3030018,90.196572 48.4654675,85.3543478 C43.6279331,80.5121237 40.9150411,73.9446165 40.9250001,67.1000001 C40.9319052,52.851056 52.4885539,41.3056019 66.737498,41.312506 C80.9864421,41.31941 92.531897,52.8760578 92.524994,67.1250019 C92.518091,81.373946 80.9614441,92.9194018 66.7125,92.9124999 Z M88.9875,255.65 L44.4375,255.65 L44.4375,112.5 L88.9875,112.5 L88.9875,255.65 Z M22.1375001,4.90024687e-14 C17.7161051,4.90024687e-14 10.3369384,3.20021787e-14 0,-1.99840144e-15 C2.18575158e-14,10.7630053 3.27862737e-14,17.967172 3.27862737e-14,21.6125001 L3.27862737e-14,278.3875 C3.27862737e-14,282.286348 2.18575158e-14,289.490515 0,300 C10.5926487,300 17.9718154,300 22.1375001,300 L277.775,300 C281.943864,300 289.352197,300 300,300 C300,289.483247 300,282.279081 300,278.3875 L300,21.6125001 C300,17.6511833 300,10.4470166 300,-1.99840144e-15 C289.276613,3.20021787e-14 281.86828,4.90024687e-14 277.775,4.90024687e-14 L22.1375001,4.90024687e-14 Z"/>
</svg>
