<svg xmlns="http://www.w3.org/2000/svg" width="300" height="300" style="background:#fff" viewBox="0 0 300 300">
  <path fill="#7D7D7D" fill-rule="evenodd" d="M218.468966,120.547126 C205.65894,129.609241 199.254023,140.517178 199.254023,153.271264 C199.254023,168.542605 207.16927,180.261645 223,188.428736 C218.748638,200.735311 212.595443,211.447464 204.54023,220.565517 C196.485017,229.68357 189.129152,234.242529 182.472414,234.242529 C179.339831,234.242529 175.060564,233.207673 169.634483,231.137931 L167.033333,230.131034 C161.719131,228.061292 157.020327,227.026437 152.936782,227.026437 C149.076992,227.026437 144.853663,227.83754 140.266667,229.45977 L136.994253,230.634483 L132.882759,232.312644 C129.638298,233.59924 126.365917,234.242529 123.065517,234.242529 C115.289999,234.242529 106.703495,227.837612 97.3057471,215.027586 C83.7685147,196.679602 77,176.681717 77,155.033333 C77,139.650115 81.2233294,127.259817 89.6701149,117.862069 C98.1169005,108.464321 109.304528,103.765517 123.233333,103.765517 C128.435658,103.765517 133.302276,104.716466 137.833333,106.618391 L140.937931,107.877011 L144.210345,109.21954 C147.119172,110.450198 149.468573,111.065517 151.258621,111.065517 C153.552119,111.065517 156.097304,110.534105 158.894253,109.471264 L163.173563,107.793103 L166.362069,106.618391 C171.452516,104.772405 177.074299,103.849425 183.227586,103.849425 C197.827659,103.849425 209.574668,109.41527 218.468966,120.547126 Z M183.898851,65 C184.066668,66.9578642 184.150575,68.4681939 184.150575,69.5310345 C184.150575,79.2084775 180.626472,87.6970899 173.578161,94.9971264 C166.52985,102.297163 158.334913,105.947126 148.993103,105.947126 C148.713409,103.765506 148.573563,102.199238 148.573563,101.248276 C148.573563,93.0252462 151.845944,85.3057832 158.390805,78.0896552 C164.935665,70.8735271 172.515283,66.6501977 181.129885,65.4195402 C181.745214,65.3076623 182.668193,65.1678169 183.898851,65 Z"/>
</svg>
