<svg xmlns="http://www.w3.org/2000/svg" width="300" height="300" style="background:#ffd400" viewBox="0 0 300 300">
  <path fill="#333" fill-rule="evenodd" d="M69,178.130865 C69,138.937803 69,139.456027 69,97.429393 C69,90.7883804 81.5030735,69.1949189 105.771505,79.9546143 C119.552801,93.0780376 131.3713,104.80037 141.227001,115.121612 C146.820749,120.825264 152.55851,120.825264 158.440283,115.121612 L190.122557,83.5658222 C201.048557,75.3372139 211.8566,75.3372139 222.546685,83.5658222 C227.44883,89.2051299 229.899903,94.8203482 229.899903,100.411477 L229.899903,177.071963 C228.496761,180.228544 226.513363,181.806834 223.949706,181.806834 C220.104222,181.806834 217.149586,179.629042 217.149586,177.071963 L217.149586,100.411477 C214.285813,91.6918101 208.419659,89.0148793 199.551123,92.3806848 L161.579339,129.470281 C151.280436,133.629243 142.876903,133.220909 136.36874,128.245279 C113.624059,105.918041 101.586644,94.1366095 100.256496,92.9009842 C97.7392665,91.4746906 86.5251578,86.7242709 82.8989141,99.6397493 C82.8989141,126.823921 82.8989141,152.987626 82.8989141,178.130865 C82.8989141,181.806834 79.8466859,182.47499 76.2844011,182.47499 C72.7221163,182.47499 69,181.309335 69,178.130865 Z M75.9620678,197.853396 C91.9171046,202.201924 112.451317,208.321984 152.457939,208.321984 C179.129021,208.321984 203.449146,204.547989 225.418315,197 C228.89945,197.06526 231.274101,198.684604 232.54227,201.858032 C233.810439,205.03146 233.080798,207.632447 230.353347,209.660992 C206.19488,218.101653 180.447211,222.321984 153.110342,222.321984 C112.105038,222.321984 85.5100481,215.425436 69.5097056,209.660992 C61.1561495,202.523182 69.5097056,196.027986 75.9620678,197.853396 Z"/>
</svg>
