<svg xmlns="http://www.w3.org/2000/svg" width="300" height="300" style="background:#e40065" viewBox="0 0 300 300">
  <g fill="#FFF" fill-rule="evenodd" transform="translate(23 95)">
    <path fill-rule="nonzero" d="M151.793806 96.1251824C150.260343 90.4697986 142.592118 90.2110436 140.720004 94.447361 139.537902 97.1783603 140.889783 100.46591 143.983039 100.218958 145.880575 100.036467 146.427138 98.6201245 146.360861 97.7875692 146.296399 97.2800464 146.009499 96.4365962 144.906386 96.4093588 144.24361 96.4093588 143.892248 96.6699296 143.696139 96.9695405 143.606256 97.1901631 143.671626 97.1774524 143.814168 97.0476209 144.332586 96.5782304 145.165141 96.7216805 145.451133 97.2800464 145.802495 98.0871802 145.244129 99.2829003 143.983039 99.3074139 143.111444 99.3074139 142.280704 99.0350403 141.851262 98.1371153 141.681482 97.748529 141.53894 97.2546249 141.488097 96.6308893 141.488097 96.0062459 141.60431 95.3834183 141.851262 94.953068 143.372015 91.796258 149.650226 92.3664267 149.650226 97.9827703 149.650226 104.195612 142.852689 105.506637 138.627267 105.506637L121.587574 105.506637C121.48498 105.506637 121.38057 105.506637 121.275253 105.506637 114.738286 104.856572 115.165913 99.1267394 115.165913 99.1267394L115.165913 88.0792663 145.620005 88.0792663 145.620005 73.6525447 109.356184 73.6525447 109.356184 99.4781014C109.356184 99.4781014 109.707546 107.602098 120.638806 107.602098L137.782 107.602098C144.308072 107.626612 148.518968 105.950606 150.558138 102.96176 151.793806 101.115067 152.430253 98.6346511 151.793806 96.1251824zM130.634009 75.7579926L139.887448 75.7579926 139.887448 86.0119507 130.634009 86.0119507 130.634009 75.7579926zM115.166821 75.7579926L124.863321 75.7579926 124.863321 86.0119507 115.166821 86.0119507 115.166821 75.7579926zM115.37564 71.0150603L121.185369 71.0150603 121.185369 64.1775751 135.716501 64.1775751 135.716501 71.0150603 141.46086 71.0150603 141.46086 64.1775751 150.611705 64.1775751 150.611705 62.0603243 141.46086 62.0603243 141.46086 57.1984556 135.716501 57.1984556 135.716501 62.0603243 121.185369 62.0603243 121.185369 57.1984556 115.37564 57.1984556 115.37564 62.0603243 106.225703 62.0603243 106.225703 64.1775751 115.37564 64.1775751 115.37564 71.0150603zM67.1006773 70.3014415C67.1006773 70.3014415 63.1884845 68.8841909 60.3158509 64.8548775L59.6666939 64.8548775C59.6666939 64.8548775 59.9899105 68.9368498 63.9429594 72.7173953L67.1006773 70.3014415zM81.2813547 64.8548775L80.5404985 64.8812069 80.5404985 64.178483 89.6777248 64.178483 89.6777248 62.0612323 80.5404985 62.0612323 80.5404985 57.1993635 75.4979553 57.1993635 75.4979553 62.0612323 68.6867995 62.0612323 68.6867995 64.178483 75.418967 64.178483C75.2891355 64.6860058 73.2481494 72.5103914 65.2812216 76.9037775L65.2812216 77.5937907C67.5700678 77.1380188 72.014297 75.7343869 75.4979553 71.3537115L75.4979553 80.2966447 80.5404985 80.2966447 80.5404985 65.0255649C80.7611211 66.2721281 82.269163 73.473686 88.7670891 77.5674612L92.4468564 74.7729081C92.4468564 74.7710923 85.5576202 73.0950867 81.2813547 64.8548775zM71.2207819 94.89133C66.2944514 90.2255702 60.2513892 91.0699284 60.2513892 91.0699284L59.5368624 91.5774512C65.1522981 93.9552727 67.7507423 98.1398391 67.7507423 98.1398391L71.2207819 94.89133zM54.6368614 71.7432058L54.6368614 80.2948288 59.6666939 80.2948288 59.6666939 64.8539696 59.6666939 64.1775751 66.2944514 64.1775751 66.2944514 62.0603243 59.6666939 62.0603243 59.6666939 57.1984556 54.6368614 57.1984556 54.6368614 62.0603243 45.3053419 62.0603243 45.3053419 64.1775751 54.2982102 64.1775751C54.0249287 65.2053315 51.7497013 73.7959948 44.1731757 78.2148025L44.1731757 78.9302371C46.7988572 78.2801721 51.2830345 76.4625323 54.6368614 71.7432058zM64.9816107 81.7365931L59.4188339 81.7365931C59.4188339 81.7365931 57.8200009 88.3271262 51.8813485 91.2515108L51.8813485 92.0577366C54.6886124 91.7454149 59.0683799 89.7044287 62.2787567 85.7931439L78.9289547 85.7931439C75.7321966 98.2705784 60.9522972 108.407416 50.607548 108.485496 44.6026181 108.590814 41.3150687 105.651903 41.2878314 102.715716 41.2878314 102.689386 41.2878314 102.689386 41.2878314 102.689386 41.3141608 99.9865321 43.1081949 98.4793982 44.9004132 98.4013177 45.5259646 98.3486588 46.0970412 98.5701894 46.563708 98.7781012 47.3971712 99.285624 47.6295966 100.220773 47.6295966 100.739191 47.6295966 101.130501 47.5651349 101.493666 47.3971712 101.819606 46.955018 102.663965 46.1351735 102.832836 45.6412694 102.832836 45.3425663 102.832836 44.8749917 102.779269 44.5626699 102.534133 44.1468462 102.17006 44.1068981 101.519995 44.1068981 101.234003 44.1468462 100.816364 44.211308 100.583938 44.3275207 100.46591 44.3919825 100.336078 44.3538502 100.336078 44.2494403 100.387829 44.1713599 100.505858 44.1068981 100.556701 44.0415284 100.608452 43.9253157 100.856312 43.7428254 101.234003 43.7818656 101.765132 43.7818656 102.115586 43.9906854 102.635819 44.2757697 102.89639 44.6271317 103.285884 45.0947064 103.442045 45.7320606 103.468375 46.9268728 103.481993 47.6949663 102.831928 47.6949663 102.805599 47.8502193 102.7139 48.5774568 102.091072 48.6691559 100.738283 48.6691559 100.037375 48.5120871 98.8017069 47.2255758 97.9310193 46.6926315 97.5805653 45.6403615 97.1783603 44.5227218 97.2809543 42.1185708 97.5288143 39.9087131 99.5698005 39.9486612 102.908193L39.9486612 102.96176C39.9486612 104.350865 40.3899064 105.650995 41.5075461 107.081864 43.1717488 109.031151 46.4202579 110.395743 50.359688 110.487442 52.9590401 110.539193 55.3749939 110.317663 57.6765508 109.759297 63.8512602 108.225833 69.414037 105.184328 73.6122221 101.583549 82.8148181 93.6547538 85.4005514 83.7893821 85.4005514 83.7893821L63.7995093 83.7893821C64.2552811 83.1556595 64.6311566 82.4402249 64.9816107 81.7365931zM167.463459 74.4197303L166.983174 75.2504698C166.983174 75.2504698 171.739725 77.1216764 174.170205 80.5790053L176.771373 76.8229734C176.771373 76.8229734 173.182397 74.2109106 167.463459 74.4197303zM166.34582 83.4125986C166.34582 83.4125986 171.323901 85.791328 173.753474 89.2613677L176.210284 85.348267C176.210284 85.348267 173.181489 82.5410031 166.709892 82.6054649L166.34582 83.4125986zM193.016642 93.745545L197.824944 93.745545 197.824944 72.7155795 193.016642 72.7155795 193.016642 93.745545zM186.713009 106.041397C177.653864 108.198596 175.471243 103.714419 177.445952 101.67434 178.510933 100.607544 181.03402 100.386921 181.864759 102.532317 181.864759 102.532317 181.617807 99.9838083 178.719752 100.243471 174.78123 100.607544 174.481619 105.157091 177.120919 107.146326 178.628053 108.302098 180.629091 109.003914 183.137652 108.977585 191.288886 108.925834 203.40134 106.183939 209.692262 88.2608487L204.221184 88.2608487C204.221184 88.2608487 201.334932 102.686662 186.713009 106.041397zM204.765932 76.4334791L200.088369 76.4334791C200.088369 76.4334791 200.270859 87.1958679 213.16321 87.1958679L213.16321 86.2598106C213.16321 86.2598106 205.286165 84.7771903 204.765932 76.4334791zM178.4728 83.5042977C176.4073 88.9245323 172.091087 100.114548 164.332071 105.313252L169.907558 106.587052C169.907558 106.587052 176.939337 98.8407471 179.292645 83.5033898L178.4728 83.5033898 178.4728 83.5042977zM181.241932 93.9280353L181.970077 94.6425621C190.222089 90.2618867 190.027796 76.4607165 190.027796 76.4607165L185.219494 76.4852301C185.946732 89.8723925 181.241932 93.9280353 181.241932 93.9280353zM176.938429 71.0141524L182.735447 71.0141524 182.735447 64.4508566 196.293297 64.4508566 196.293297 71.0141524 202.076696 71.0141524 202.076696 64.4508566 212.695635 64.4508566 212.695635 62.2918419 202.076696 62.2918419 202.076696 57.1984556 196.293297 57.1984556 196.293297 62.2918419 182.735447 62.2918419 182.735447 57.1984556 176.938429 57.1984556 176.938429 62.2918419 166.281358 62.2918419 166.281358 64.4508566 176.938429 64.4508566 176.938429 71.0141524z"/>
    <path d="M118.146588,39.873679 L118.146588,15.0232198 C119.316886,15.1920914 119.993281,15.2828826 120.473566,15.2828826 C120.953852,15.2828826 121.630246,15.1911835 122.474604,15.0885894 L122.982127,15.0232198 L122.982127,19.8324296 C125.309105,16.5312616 128.531285,14.8025971 132.639587,14.762649 C139.346333,14.608304 142.582131,18.0002632 142.41326,24.9412504 L142.41326,39.873679 L141.11313,39.8092172 L140.009109,39.8092172 L138.682649,39.8482574 L137.617668,39.873679 L137.617668,26.1878136 C137.785632,20.2736748 135.524931,17.4019492 130.898212,17.5317806 C125.399897,17.311158 122.760597,20.7948163 122.982127,27.8783457 L122.982127,39.8745869 L121.657483,39.8101251 L120.473566,39.8101251 L119.355019,39.8491653 L118.146588,39.873679 Z M245.210687,34.6486454 L245.210687,27.0848306 L243.03987,27.369915 L241.870479,27.5778268 C235.644926,28.2932615 232.666975,30.2298378 232.810425,33.2976724 C232.874887,36.5988404 234.837793,38.2503323 238.710945,38.2884646 C240.309778,38.2240029 241.935849,37.5884645 243.534682,36.2738079 C244.56153,35.5329517 245.106277,35.0000074 245.210687,34.6486454 Z M250.007186,23.5230919 L250.007186,35.6373616 C249.577744,38.0151831 250.760753,38.7042883 253.425475,38.0805528 L253.425475,39.2245219 L252.789029,39.4061043 C252.242466,39.5749759 251.853879,39.6920966 251.541557,39.7175181 C247.836369,40.2114222 245.730921,39.2245219 245.393177,36.6514993 L244.834812,37.169917 C242.324435,39.2753649 239.350115,40.3539644 235.852838,40.2640811 C230.861138,39.9789967 228.157376,37.9107732 227.859581,34.1293198 C227.507311,29.7604473 231.238829,27.1756218 238.997845,26.5500704 C241.870479,26.2132351 243.611854,25.7837927 244.197457,25.3815877 C245.028197,24.9512374 245.432218,24.2121971 245.39227,23.1063602 C245.353229,19.1297057 242.961789,17.063298 238.33507,17.0233499 C235.00848,17.1023382 232.563473,18.2971504 231.133512,20.5578513 L230.547908,20.5578513 L230.547908,17.5817158 C233.681113,15.763168 236.929622,14.8007813 240.244409,14.7608332 C246.706018,14.8025971 249.968146,17.7006522 250.007186,23.5230919 Z M207.375271,34.9473485 L207.817424,34.9473485 C209.726763,37.4041583 212.06736,38.7042883 214.822873,38.8086982 C218.435455,38.4963765 220.372031,36.8839248 220.671642,34.1302277 C220.229489,31.2703049 218.085001,29.6324317 214.289928,29.2556482 C209.767619,28.9832746 207.141029,26.7352845 206.440121,22.4962434 C206.674363,17.5835316 210.013663,15.0241277 216.304585,14.762649 C219.034676,14.8025971 221.217297,15.2828826 223.076701,16.1935183 C222.491097,17.1949453 222.087984,18.4287977 221.647647,19.8324296 L221.062044,19.8324296 C219.983444,17.7006522 218.279294,16.5584989 215.993171,16.3741928 C212.431433,16.557591 210.598358,18.012066 210.454908,20.7939084 C210.948812,23.4985782 213.067879,25.1482543 216.966453,25.6421584 C221.426117,26.1487733 223.986428,28.2932615 224.687337,32.2054543 C224.389541,37.2352867 220.671642,39.9000084 213.653482,40.2640811 C210.66282,40.2640811 208.168786,39.7438475 206.114181,38.8077903 L206.504583,37.675624 C206.997579,36.52076 207.269953,35.5847027 207.375271,34.9473485 Z M195.417162,34.6486454 L195.417162,27.0848306 L193.259963,27.369915 L192.103283,27.5778268 C185.852309,28.2932615 182.849844,30.2298378 183.056848,33.2976724 C183.056848,36.5988404 185.033372,38.2503323 188.905617,38.2884646 C190.517161,38.2240029 192.142323,37.5884645 193.740248,36.2738079 C194.807045,35.5329517 195.339081,35.0000074 195.417162,34.6486454 Z M200.213661,23.5230919 L200.213661,35.6373616 C199.823259,38.0151831 200.914569,38.7042883 203.632857,38.0805528 L203.632857,39.2245219 L202.982792,39.4061043 C202.44894,39.5749759 202.020406,39.6920966 201.748032,39.7175181 C198.030132,40.2114222 195.978251,39.2245219 195.613271,36.6514993 L195.053997,37.169917 C192.545436,39.2753649 189.503931,40.3539644 186.084734,40.2640811 C181.05581,39.9789967 178.378377,37.9107732 178.079674,34.1293198 C177.715602,29.7604473 181.433501,27.1756218 189.258795,26.5500704 C192.104191,26.2132351 193.808342,25.7837927 194.418459,25.3815877 C195.275527,24.9512374 195.614179,24.2121971 195.614179,23.1063602 C195.560612,19.1297057 193.17008,17.063298 188.542452,17.0233499 C185.176822,17.1023382 182.798093,18.2971504 181.380842,20.5578513 L180.770725,20.5578513 L180.770725,17.5817158 C183.890311,15.763168 187.126109,14.8007813 190.427277,14.7608332 C196.937006,14.8025971 200.213661,17.7006522 200.213661,23.5230919 Z M161.493938,17.0242578 C155.554378,17.0242578 152.525583,21.0926114 152.407555,29.2157001 C152.693547,35.3259478 155.462679,38.5227059 160.765793,38.8086982 C166.36761,38.5481274 169.421826,34.6486454 169.851268,27.0848306 C169.643356,20.5342456 166.874224,17.1677079 161.493938,17.0242578 Z M147.677333,39.8092172 L147.677333,0.907911994 L148.769551,0.959662978 L150.029733,0.999611105 L151.212743,0.959662978 L152.525583,0.907911994 L152.525583,20.1447513 C155.241148,16.5584989 158.634015,14.7245167 162.883951,14.762649 C170.487714,15.0613521 174.595108,19.1315215 175.154382,26.8778267 C174.426236,35.3640801 169.8894,39.8092172 161.493938,40.264989 C157.73609,40.264989 154.813522,39.0819797 152.863327,36.7304876 C152.186932,37.2371025 151.160084,37.9634321 149.887191,39.0438474 L148.846724,39.8101251 L147.677333,39.8101251 L147.677333,39.8092172 Z M99.3528095,16.3741928 C92.9057264,16.5830126 89.6054663,20.467968 89.3067633,28.1243898 C89.6435986,34.9990995 92.7640922,38.5871677 98.7426926,38.8086982 C104.331799,38.5227059 107.413252,34.6885936 108.049698,27.2918345 C107.709231,20.2219238 104.823887,16.5948154 99.3528095,16.3741928 Z M84.0290709,27.369915 C84.6528064,19.5582402 89.774338,15.3219228 99.3528095,14.7617411 C108.229465,15.1394325 112.921554,19.4420274 113.338286,27.5133651 C112.676418,35.6364537 107.631151,39.9000084 98.2742101,40.2640811 C88.9154532,39.6530563 84.171613,35.3631722 84.0290709,27.369915 Z M66.4291969,16.3741928 C60.0601942,16.5830126 56.6945645,20.467968 56.4476124,28.1243898 C56.7599341,34.9990995 59.917652,38.5871677 65.870831,38.8086982 C71.4481344,38.5227059 74.5804307,34.6885936 75.1651261,27.2918345 C74.8137641,20.2219238 71.9538413,16.5948154 66.4291969,16.3741928 Z M51.1054582,27.369915 C51.7954713,19.5582402 56.8770548,15.3219228 66.4291969,14.7617411 C75.3594192,15.1394325 79.9997574,19.4420274 80.4537134,27.5133651 C79.7918456,35.6364537 74.7474866,39.9000084 65.4041642,40.2640811 C56.01817,39.6530563 51.2371055,35.3631722 51.1054582,27.369915 Z M41.8656379,4.36524087 L43.1784786,4.36524087 C44.9716048,19.8324296 46.5967673,31.6979314 47.9740698,39.873679 L46.4914495,39.8092172 L45.1268577,39.8092172 L43.710515,39.8482574 L42.2796457,39.873679 C40.8905404,25.8228329 39.8500732,16.9080451 39.2780887,13.1511052 C31.5962453,24.7968924 26.3457902,33.5972833 23.407787,39.4315258 L22.7459192,39.4315258 L19.4828835,33.6345077 C17.1041541,29.370953 13.4643349,23.366931 8.61608482,15.5025973 L7.22516365,13.1501973 C7.00454103,14.7227009 6.66679777,17.1023382 6.22464463,20.2727669 C4.82101269,30.2035083 4.18365847,36.7286718 4.27535758,39.872771 L3.15862583,39.8473495 L2.10544791,39.8083093 L1.05317791,39.8473495 L0,39.872771 C2.91167376,23.6402125 4.79649906,11.7983164 5.79701808,4.36433296 L7.27963837,4.36433296 C13.6350223,15.1911835 19.3412492,24.3547392 24.4101219,31.6852207 C26.9186827,27.6958554 29.5180347,23.6411204 32.0901494,19.5591481 C35.2496832,14.5538293 38.4727707,9.47406166 41.8656379,4.36524087 Z"/>
  </g>
</svg>
