<svg xmlns="http://www.w3.org/2000/svg" width="300" height="300" style="background:#fff" viewBox="0 0 300 300">
  <path fill-rule="evenodd" d="M257.964544,133.972956 C257.747627,129.616549 257.241488,125.24809 256.940215,120.921809 C256.777528,118.752644 255.946014,116.691936 254.560159,115.016859 C252.921233,113.016406 250.788221,111.479913 248.378036,110.558018 C243.509465,108.666023 238.60474,106.557112 233.706041,104.683194 C226.764711,102.303138 220.028246,99.3446366 213.568953,95.8137169 C209.230622,93.313151 206.338401,88.9025141 205.759957,83.9315095 C205.121258,78.3097551 201.819306,73.3146486 196.90253,70.5067842 C191.443463,67.5723851 185.074552,66.8192026 179.079219,68.3978731 C174.656531,69.4583541 170.041029,69.3920741 165.642443,68.1990329 L158.942131,66.1503765 L157.122442,65.6080851 L151.862215,64.0414654 C142.402243,61.2215501 138.43749,59.7453123 123.102694,62.3663875 C106.94241,66.0298673 92.149905,74.1762894 80.3821813,85.8476058 L42,126.579717 L76.4656322,126.579717 L55.3524198,148.934174 L91.6618428,148.934174 L70.5546558,171.288631 L99.7419849,171.288631 L90.4145725,195.751999 C126.145551,232.326543 164.22646,239.707731 164.22646,239.707731 C164.22646,229.627137 166.516135,190.05794 169.20349,183.429933 C170.209742,180.103879 171.76431,176.982691 173.79489,174.150725 C178.777946,168.040908 186.339899,164.582294 194.239277,164.829338 C202.090451,164.829338 209.887397,166.263397 217.226407,169.059211 C221.685248,170.927103 226.728558,170.649932 230.94638,168.324105 C234.001289,166.516467 237.014019,164.60037 239.97252,162.660172 C240.918517,161.90699 242.111558,161.527386 243.322675,161.575589 C246.576424,161.937117 249.67351,160.147555 250.97501,157.152902 C251.939083,155.1645 253.083921,153.296607 254.132351,151.308205 C256.976368,145.981698 258.289918,139.98034 257.946467,133.95488 L257.964544,133.972956 Z"/>
</svg>
