<svg xmlns="http://www.w3.org/2000/svg" width="300" height="300" style="background:#fff" viewBox="0 0 300 300">
  <defs>
    <linearGradient id="mtime-a" x1="100%" x2="0%" y1="54.295%" y2="54.295%">
      <stop offset="0%" stop-color="#AA9F16"/>
      <stop offset="100%" stop-color="#F7BB03"/>
    </linearGradient>
  </defs>
  <g fill="url(#mtime-a)" transform="translate(41 70)">
    <path d="M219,153.850508 C211.972278,158.250544 204.171875,159.717222 196.077117,159.937224 C188.644657,160.120559 181.285786,160.047225 174.074093,157.663872 C168.775706,155.903858 164.83871,152.8605 163.440524,147.397122 C160.86492,137.423708 158.362903,127.413626 156.192036,117.330211 C148.575605,82.1299257 141.106351,46.8929731 133.489919,11.6926872 C133.011593,9.45600253 132.091734,7.21931755 130.914315,5.27596854 C128.890625,1.93927476 125.100807,0.985933639 122.010081,3.33261953 C119.765625,5.05596672 117.631552,7.36598553 116.380544,9.89600617 C108.764113,25.1127965 101.405242,40.4395874 93.9727823,55.6930444 C92.8689518,57.9663962 91.6179437,60.1664141 90.4037298,62.366432 C86.9450604,68.6731497 77.4889113,69.2598213 73.625504,63.9064444 C70.6819556,59.7997446 67.6648185,55.6930444 65.3467741,51.2196748 C58.2454636,37.4695631 51.5488909,23.4994499 44.5579635,9.67600435 C43.4909271,7.54932028 42.0191529,5.45930359 40.2162297,3.91929085 C35.9848791,0.215927568 30.1713708,1.6459391 28.4788307,6.96264896 C26.5655241,12.9026972 25.0937499,19.0260802 23.8427418,25.1494632 C16.4102821,61.0097543 9.12499985,96.8700453 1.69254009,132.730336 C1.43497946,133.940346 0.58870957,135.040355 0,136.213698 L0,91.7733373 C0.110383082,90.2699916 0.331149247,88.7666462 0.331149247,87.2633006 C0.331149247,59.5797427 0.220766164,27.7528177 0.257560323,0.0325928177 L157.516633,0.0325928177 C158.694052,0.0325928177 157.737399,-0.0407410221 159.245968,0.0325928177 C159.245968,17.7060696 159.871472,35.4528802 159.871472,53.2730247 C171.130544,51.6230113 182.831149,48.7263212 194.16381,47.0396408 L194.16381,73.1465194 L215.136593,73.1465194 L215.136593,94.046689 L194.16381,94.046689 C194.16381,102.590092 192.912802,110.473489 193.207157,118.760223 C193.391129,123.673596 194.016633,128.660303 195.157258,133.463676 C196.77621,140.283731 200.16129,142.410415 207.189012,141.787077 C209.691028,141.567075 212.119456,140.980403 214.731855,140.5404 C216.166835,144.867101 217.56502,149.047135 218.926411,153.263836 C219,153.447171 219,153.667173 219,153.850508 Z"/>
    <path d="M2,161 C5.67402204,142.711103 9.79338016,124.167181 13.5416251,106.133309 C14.1725178,103.036583 15.3600805,99.9398574 16.7703111,97.0617242 C19.1083252,92.2891235 24.1183551,91.3783219 27.3841525,95.5680097 C30.9468406,100.15845 33.6188567,105.441099 36.5506521,110.468724 C40.1133401,116.589312 43.1935809,122.928491 47.0531595,128.830486 C49.7993983,133.020173 53.881645,136.153331 59.448345,134.696048 C61.7492477,134.076703 64.3841524,132.619421 65.6459378,130.724953 C68.9488466,125.697328 71.7321965,120.305382 74.4784353,114.913437 C77.3731192,109.266466 79.8224673,103.400904 82.7542629,97.7539334 C83.8304917,95.6408734 85.4633903,93.6735422 87.2447343,92.0705311 C91.1414243,88.5730528 96.2256772,89.5931506 97.7472417,94.4750475 C100.122367,102.162214 102.015045,109.995108 103.685055,117.828002 C106.542628,131.417162 110.327984,147.265111 113,160.890704 C113,160.890704 112.962889,160.162062 113,160.890704 C76.5937813,161 38.5175527,161 2,161 Z"/>
  </g>
</svg>
