<svg xmlns="http://www.w3.org/2000/svg" width="300" height="300" style="background:#d71c1c" viewBox="0 0 300 300">
  <path fill="#FFF" d="M203.306,108.734681 C195.139,103.448681 185.148,100.548681 174.842,100.035681 L172.55,91.6216807 L172.626,91.7026807 C172.522,91.4506807 172.455,91.2056807 172.36,90.9686807 L171.684,88.4776807 C170.125,81.2856807 172.968,77.8576807 174.432,76.6226807 C174.689,76.4376807 174.946,76.2476807 175.221,76.0666807 C181.933,71.6036807 191.497,78.7526807 192.039,79.1756807 C196.288,83.2546807 204.046,84.2646807 208.229,80.0856807 C212.469,75.8646807 211.461,67.9716807 207.24,63.7576807 C200.642,57.1836807 180.421,46.6376807 163.204,58.0816807 C147.736,68.3656807 147.422,82.8406807 149.97,91.2046807 L153.061,102.521681 C147.88,104.004681 142.936,106.126681 138.401,108.893681 C121.459,119.244681 112.969,136.706681 115.089,156.818681 C117.276,177.443681 132.744,192.431681 151.881,192.431681 C172.188,192.431681 188.721,175.943681 188.721,155.681681 C188.454,150.842681 188.502,150.901681 187.866,146.573681 C187.22,142.357681 180.982,122.527681 180.982,122.527681 C184.804,123.411681 188.398,124.854681 191.498,126.858681 C226.436,149.506681 211.9,185.555681 211.234,187.128681 C201.623,210.157681 180.63,223.904681 153.678,224.850681 C136.099,225.468681 119.253,218.917681 106.257,206.399681 C92.538,193.206681 84.685,174.717681 84.685,155.681681 C84.685,127.013681 102.758,100.975681 129.673,90.9056807 C135.273,88.8116807 139.807,82.8386807 136.708,75.8986807 C134.265,70.4466807 127.666,68.5716807 122.058,70.6766807 C86.729,83.8916807 63,118.055681 63,155.681681 C63,180.552681 73.277,204.704681 91.198,221.948681 C107.721,237.851681 128.989,246.505681 151.359,246.505681 C152.386,246.505681 153.403,246.488681 154.42,246.450681 C189.701,245.212681 218.422,226.145681 231.209,195.540681 C239.195,176.949681 243.654,134.883681 203.306,108.734681 Z M167.046,155.682681 C167.046,164.024681 160.238,170.812681 151.882,170.812681 C142.593,170.812681 137.469,162.382681 136.652,154.548681 C135.074,139.622681 142.889,131.501681 149.734,127.322681 C152.501,125.633681 155.553,124.304681 158.737,123.343681 C158.737,123.343681 166.115,146.747681 166.694,150.376681 C167.322,154.384681 167.046,155.682681 167.046,155.682681 Z"/>
</svg>
