<svg xmlns="http://www.w3.org/2000/svg" width="300" height="300" style="background:#0aab50" viewBox="0 0 300 300">
  <path fill="#FFF" fill-rule="evenodd" d="M11.4093038,154.875698 C20.1005795,162.842791 32.5922839,169.991512 44.5387791,169.991512 C53.222037,169.991512 62.9957133,166.140349 62.9957133,155.702093 C62.9957133,144.148605 49.6942129,142.231047 34.757085,135.627907 C17.9197428,128.206395 3.80844646,119.132093 3.80844646,97.4131395 C3.80844646,69.0990698 26.3384139,57 54.3044376,57 C69.5061523,57 85.7982853,60.5703488 97.4721759,68.2646512 L97.4721759,71.5622093 L86.6160991,93.2811628 C79.0152417,87.5044186 68.6963563,83.6532558 57.2950703,83.6532558 C47.2487894,83.6532558 41.0029372,87.7852326 41.0029372,95.7523256 C41.0029372,106.206628 52.9494324,108.405 67.8785425,114.173721 C88.5163134,122.140814 101,130.942326 101,153.20686 C101,182.347326 78.4700325,195 48.6037946,195 C29.6016512,195 14.3919187,189.77686 0,178.776977 L0,175.487442 L11.4093038,154.867674 L11.4093038,154.875698 Z M128.239142,196 C128.239142,193.275019 128.790841,119.231811 129.062693,93.6424142 C121.746684,93.9204734 114.166818,93.9204734 112,93.9204734 L112.271852,66.4243849 C114.430674,66.4243849 121.746684,66.4243849 128.790841,66.6944996 C128.790841,65.6060962 128.247138,43.0117952 128.247138,42.1935065 C128.247138,11.4322079 146.117391,0 169.400691,0 C179.419226,0 189.709613,1.63657736 200,5.99019091 L200,10.0736898 L192.148283,31.8417575 C187.814647,29.4027806 182.945303,28.0283734 178.611666,28.0283734 C171.031801,28.0283734 166.154461,31.8417575 166.154461,46.2690608 C166.154461,51.1708484 166.426313,65.5981517 166.426313,66.6865551 C174.549882,66.4164404 189.981465,66.4164404 192.140287,66.4164404 L191.876431,93.9045843 C189.709613,93.9045843 174.270035,93.9045843 166.154461,93.6424142 C166.698165,119.223866 166.698165,193.267075 166.698165,195.992055 L128.239142,195.992055 L128.239142,196 Z" transform="translate(51 52)"/>
</svg>
