<svg xmlns="http://www.w3.org/2000/svg" width="300" height="300" style="background:#fff" viewBox="0 0 300 300">
  <g fill="none" fill-rule="evenodd" transform="translate(42 104)">
    <path fill="#D80C18" fill-rule="nonzero" d="M15.394 89.999C13.749 90.958 11.316 91.978 10.14 91.978 7.104 91.978 5.585 90.33 5.585 87.033L5.585 78.314.926 78.314.926 75.625 5.585 75.625 5.585 71.879 8.968 70.854 8.968 75.625 14.988 75.625 14.988 78.314 8.968 78.314 8.968 86.441C8.968 87.433 9.144 88.152 9.496 88.595 9.848 89.038 10.43 89.415 11.194 89.259 12.59 88.976 14.902 87.642 15.393 87.296L15.393 89.999 15.394 89.999zM37.719 75.985L31.488 91.977 27.888 91.977 21.959 75.985 25.647 75.985 29.247 86.989C29.556 87.934 29.743 88.749 29.81 89.432L29.882 89.432C29.969 88.641 30.143 87.852 30.403 87.061L34.147 75.985 37.719 75.985zM42.324 89.938C42.324 89.35 42.535 88.864 42.96 88.477 43.384 88.092 43.89 87.899 44.479 87.899 45.057 87.899 45.558 88.09 45.982 88.471 46.406 88.852 46.619 89.34 46.619 89.938 46.619 90.497 46.416 90.977 46.012 91.377 45.607 91.777 45.086 91.977 44.45 91.977 43.862 91.977 43.36 91.782 42.946 91.391 42.532 91 42.324 90.516 42.324 89.938zM55.352 87.885C56.845 88.897 58.397 89.403 60.007 89.403 62.127 89.403 63.188 88.749 63.188 87.436 63.188 86.887 62.966 86.436 62.523 86.084 62.08 85.732 61.082 85.268 59.53 84.689 57.901 84.062 56.802 83.394 56.234 82.685 55.665 81.978 55.38 81.087 55.38 80.019 55.38 78.542 55.997 77.376 57.231 76.519 58.465 75.662 59.993 75.232 61.814 75.232 63.212 75.232 64.518 75.464 65.733 75.925L65.733 78.933C64.518 78.181 63.159 77.806 61.656 77.806 60.798 77.806 60.103 77.984 59.574 78.341 59.044 78.696 58.778 79.165 58.778 79.743 58.778 80.311 58.973 80.761 59.364 81.087 59.755 81.415 60.653 81.849 62.06 82.39 63.795 83.025 64.978 83.703 65.61 84.421 66.241 85.14 66.557 86.032 66.557 87.103 66.557 88.617 65.94 89.808 64.706 90.675 63.472 91.542 61.852 91.976 59.848 91.976 58.132 91.976 56.633 91.677 55.352 91.08L55.352 87.885zM113.392 91.977L109.994 91.977 109.994 82.809C109.994 79.821 108.89 78.327 106.683 78.327 105.565 78.327 104.635 78.757 103.893 79.614 103.15 80.473 102.78 81.567 102.78 82.897L102.78 91.977 99.383 91.977 99.383 68.307 102.78 68.307 102.78 78.543 102.852 78.543C104.066 76.586 105.777 75.609 107.984 75.609 111.589 75.609 113.392 77.787 113.392 82.144L113.392 91.977zM136.115 91.602L132.732 91.602 132.732 89.1 132.66 89.1C131.552 91.018 129.913 91.977 127.744 91.977 123.975 91.977 122.092 89.717 122.092 85.196L122.092 75.61 125.475 75.61 125.475 84.776C125.475 87.764 126.621 89.258 128.916 89.258 130.033 89.258 130.949 88.85 131.662 88.029 132.376 87.211 132.732 86.134 132.732 84.804L132.732 75.61 136.115 75.61 136.115 91.602zM143.402 89.938C143.402 89.35 143.614 88.864 144.038 88.477 144.462 88.092 144.969 87.899 145.557 87.899 146.135 87.899 146.636 88.09 147.06 88.471 147.485 88.852 147.697 89.34 147.697 89.938 147.697 90.497 147.495 90.977 147.09 91.377 146.685 91.777 146.165 91.977 145.528 91.977 144.94 91.977 144.438 91.782 144.024 91.391 143.61 91 143.402 90.516 143.402 89.938zM167.104 90.922C165.928 91.625 164.419 91.977 162.579 91.977 160.247 91.977 158.357 91.241 156.912 89.764 155.466 88.289 154.743 86.362 154.743 83.981 154.743 81.311 155.518 79.186 157.071 77.604 158.623 76.024 160.69 75.233 163.273 75.233 164.864 75.233 166.15 75.489 167.133 75.999L167.133 79.181C165.995 78.363 164.767 77.952 163.446 77.952 161.884 77.952 160.619 78.475 159.65 79.52 158.681 80.567 158.198 81.971 158.198 83.735 158.198 85.462 158.658 86.813 159.578 87.792 160.499 88.771 161.735 89.259 163.287 89.259 164.637 89.259 165.909 88.825 167.103 87.958L167.103 90.922 167.104 90.922zM216.333 91.977L212.936 91.977 212.936 82.809C212.936 81.229 212.68 80.086 212.169 79.383 211.658 78.68 210.844 78.326 209.726 78.326 208.762 78.326 207.933 78.769 207.24 79.656 206.546 80.545 206.199 81.629 206.199 82.91L206.199 91.976 202.815 91.976 202.815 82.578C202.815 79.744 201.731 78.326 199.562 78.326 198.559 78.326 197.728 78.756 197.068 79.613 196.408 80.472 196.078 81.58 196.078 82.939L196.078 91.976 192.681 91.976 192.681 75.985 196.078 75.985 196.078 78.5 196.15 78.5C197.297 76.572 198.974 75.609 201.181 75.609 203.427 75.609 204.946 76.673 205.736 78.804 206.931 76.673 208.715 75.609 211.086 75.609 214.585 75.609 216.334 77.773 216.334 82.101L216.334 91.977 216.333 91.977z"/>
    <path fill="#D80C18" d="M78.185,83.573 C78.185,80.553 80.632,78.106 83.652,78.106 C86.671,78.106 89.118,80.553 89.118,83.573 C89.118,86.593 86.671,89.04 83.652,89.04 C80.632,89.04 78.185,86.592 78.185,83.573 Z M75.21,83.571 C75.21,78.909 78.989,75.13 83.651,75.13 C88.313,75.13 92.092,78.909 92.092,83.571 C92.092,88.235 88.313,92.014 83.651,92.014 C78.989,92.014 75.21,88.235 75.21,83.571 Z"/>
    <path fill="#D80C18" fill-rule="nonzero" stroke="#D80C18" stroke-width="2.099" d="M210.976,2.067 C213.366,2.315 215.173,4.331 215.544,6.643 C217.233,20.135 217.226,33.778 215.517,47.27 C215.143,49.581 213.333,51.592 210.947,51.84 C177.951,54.057 150.092,54.057 117.095,51.842 C114.708,51.594 112.898,49.582 112.524,47.272 C110.816,33.78 110.808,20.135 112.498,6.641 C112.868,4.327 114.677,2.311 117.066,2.065 C150.083,-0.134 177.959,-0.134 210.976,2.067 Z"/>
    <g fill="#FFF" transform="translate(118 5)">
      <path d="M3.597 7.767L7.27 7.767C6.336 6.952 5.637 5.959 5.171 4.794 4.121 3.277 4.237 2.17 5.52 1.469 6.804.537 8.145.945 9.543 2.695 11.643 4.911 12.051 6.601 10.769 7.767L13.917 7.767C15.666 7.883 16.366 8.992 16.016 11.091 14.967 14.123 13.393 17.331 11.293 20.713 12.809 21.762 14.441 23.104 16.19 24.736 17.006 25.902 16.89 27.009 15.841 28.059 14.557 29.224 13.507 29.284 12.692 28.235 11.876 27.534 11.234 26.834 10.768 26.135L10.768 41.18C9.251 43.512 7.677 43.571 6.044 41.355L6.044 26.834C5.928 26.951 5.811 27.127 5.694 27.36 5.577 27.477 5.286 27.709 4.819 28.059 3.303 29.224 2.02 29.341.97 28.409.037 27.244.154 25.959 1.32 24.56 5.052 20.712 7.851 17.097 9.717 13.714 10.184 12.78 10.125 12.316 9.541 12.316L3.419 12.316C1.903 12.316 1.087 11.557.97 10.042 1.207 8.641 2.081 7.883 3.597 7.767zM17.066 25.786L17.066 6.543C16.95 4.443 18.174 3.395 20.74 3.395L35.784 3.395C38.467 3.395 39.749 4.501 39.633 6.718L39.633 26.136C39.517 27.534 38.642 28.236 37.009 28.236 35.492 28.119 34.735 27.361 34.735 25.96L34.735 9.167C34.735 8.467 34.503 8.116 34.035 8.116L22.84 8.116C22.258 8.233 21.966 8.524 21.966 8.991L21.966 25.959C21.849 27.478 20.974 28.235 19.342 28.235 17.824 28.119 17.066 27.301 17.066 25.786zM33.685 25.261L33.685 35.581C33.452 36.98 33.976 37.564 35.259 37.331 36.309 37.447 36.95 37.214 37.184 36.63 37.416 36.399 37.533 35.114 37.533 32.783 37.533 31.501 38.292 30.8 39.807 30.683 41.323 30.683 42.139 31.324 42.256 32.606 42.256 36.689 41.848 39.254 41.031 40.305 40.098 41.587 38.174 42.228 35.259 42.228 30.593 42.345 28.494 41.003 28.961 38.205L28.961 29.458C26.861 35.524 22.489 39.838 15.842 42.405 14.209 42.87 13.042 42.579 12.343 41.53 11.643 40.012 11.935 38.906 13.218 38.205 18.349 36.105 21.732 33.308 23.364 29.809 24.997 27.01 25.871 21.471 25.988 13.191 26.104 11.907 26.862 11.265 28.262 11.265 29.778 11.382 30.653 12.082 30.885 13.366 30.885 13.833 30.885 14.24 30.885 14.591 30.885 17.273 30.71 20.188 30.361 23.336 32.343 22.871 33.452 23.512 33.685 25.261zM57.054 14.24L58.979 14.24 58.979 3.044C58.979 1.877 59.679 1.178 61.079.944 62.596 1.061 63.412 1.702 63.527 2.868L63.527 5.318 67.377 5.318C67.493 5.318 67.668 5.376 67.901 5.492 68.017 5.609 68.193 5.609 68.425 5.492 68.075 3.859 68.717 2.928 70.35 2.694L89.767 2.694C90.933 2.81 91.575 3.626 91.692 5.141 91.575 6.66 90.933 7.417 89.767 7.417L82.071 7.417C81.954 8.583 81.72 9.808 81.37 11.09L86.969 11.09C88.951 11.09 89.943 12.081 89.943 14.065L89.943 30.683C89.827 32.199 89.01 33.016 87.494 33.132 85.978 33.132 85.221 32.374 85.221 30.857L85.221 16.164C85.104 15.931 84.929 15.757 84.697 15.64L75.25 15.64C74.901 15.757 74.726 15.931 74.726 16.164L74.726 30.858C74.61 32.259 73.851 33.017 72.452 33.133 70.935 33.017 70.178 32.259 70.178 30.858L70.178 14.415C70.062 12.2 71.17 11.092 73.502 11.092L76.477 11.092C76.592 10.508 76.709 9.693 76.826 8.642 76.826 8.294 76.885 7.884 77.002 7.419L70.355 7.419C70.121 7.535 69.831 7.477 69.48 7.243 69.48 8.992 68.78 9.867 67.381 9.867L63.531 9.867 63.531 14.24 68.08 14.24C69.13 14.357 69.713 15.173 69.83 16.69 69.713 18.206 69.13 18.964 68.08 18.964L63.531 18.964 63.531 29.11C63.764 28.293 64.289 26.309 65.106 23.161 65.106 23.277 65.164 23.103 65.281 22.637 65.748 21.355 66.68 21.004 68.08 21.588 69.247 22.286 69.713 23.335 69.479 24.736 67.729 34.765 62.599 40.713 54.085 42.579 52.219 42.93 51.053 42.463 50.586 41.18 50.354 39.664 51.111 38.614 52.86 38.032 57.057 36.748 59.857 35.175 61.256 33.308 59.739 33.308 58.982 32.607 58.982 31.208L58.982 18.964 52.509 18.964C51.111 18.964 50.353 18.205 50.236 16.69 50.353 15.172 51.111 14.357 52.509 14.24L52.509 4.969C52.509 3.803 53.209 3.103 54.609 2.869 56.126 2.986 56.942 3.627 57.057 4.795L57.057 14.24 57.054 14.24zM67.201 38.032C71.634 36.283 74.49 34.357 75.773 32.26 77.172 30.277 77.814 26.253 77.697 20.188 77.814 18.672 78.572 17.857 79.971 17.74 81.487 17.857 82.304 18.615 82.419 20.014 82.419 23.396 82.304 25.904 82.07 27.535 81.837 29.285 81.486 30.918 81.02 32.433 84.868 34.65 87.784 36.339 89.766 37.505 91.282 38.44 91.748 39.605 91.165 41.004 90.232 42.288 89.008 42.52 87.491 41.704 86.908 41.354 84.051 39.664 78.92 36.63 75.071 39.781 71.806 41.704 69.124 42.405 67.258 42.636 66.033 42.172 65.45 41.004 65.102 39.489 65.685 38.497 67.201 38.032zM51.283 29.983C51.515 28.818 51.866 27.245 52.332 25.261 52.799 23.628 53.09 22.577 53.207 22.113 53.674 20.831 54.606 20.304 56.006 20.538 57.172 20.888 57.697 21.82 57.58 23.336 56.881 26.604 56.238 29.111 55.656 30.858 55.073 32.491 54.082 33.251 52.682 33.133 51.399 32.667 50.932 31.618 51.283 29.983z"/>
    </g>
    <g fill="#000" fill-rule="nonzero" transform="translate(56 5)">
      <path d="M5.832,24.299 C6.548,23.666 8.392,21.199 8.862,20.356 C8.951,20.184 9.47,19.46 9.47,19.46 C9.716,18.257 9,16.948 8.862,16.13 C8.824,16.11 9.295,15.526 8.862,14.913 C8.441,14.3 7.057,15.241 6.145,15.829 C5.792,16.026 5.87,16.497 5.546,16.727 C3.26,18.315 2.81,18.477 0.386,17.334 C0.048,16.834 -0.276,16.535 0.386,15.52 C1.054,14.5 4.36,12.793 6.449,11.887 C6.4,11.131 6.666,9.862 6.449,9.16 C6.4,9.037 5.635,8.65 5.547,8.547 C1.771,4.162 3.408,3.104 3.408,3.104 C3.408,3.104 5.665,1.848 7.057,2.497 C8.421,3.138 9.863,10.259 11.589,5.825 C11.736,5.458 12.286,4.231 12.198,3.708 C12.129,3.319 11.059,2.747 10.991,2.497 C10.892,2.247 11.011,1.265 11.011,1.265 L11.284,0.681 C11.687,0.476 12.491,0.074 12.491,0.074 C12.491,0.074 13.719,0.01 14.327,0.383 C14.72,0.619 16.083,3.645 16.141,4.322 C16.21,5.248 15.876,6.91 15.543,7.656 C15.346,8.013 14.492,8.357 14.326,8.863 C14.012,9.633 14.345,10.019 14.012,10.672 C13.806,11.055 12.903,11.379 12.806,11.889 C12.217,14.629 14.611,18.264 14.925,20.672 C16.004,29.176 14.532,39.19 9.469,42.481 C9.402,42.52 8.695,42.612 8.607,42.667 L6.744,42.171 C6.448,41.687 5.86,41.362 5.546,40.97 C5.125,40.435 5.036,39.714 4.625,39.15 C4.359,38.783 3.28,38.322 3.113,37.935 C1.641,34.699 4.742,34.83 6.448,35.812 C6.811,36.023 7.478,36.988 7.969,37.027 C8.607,37.086 8.832,36.597 9.176,36.42 C11.746,35.043 10.186,33.748 10.381,31.272 C10.412,30.795 11.216,29.549 11.283,29.157 C11.647,26.946 11.137,24.94 10.696,23.391 C10.636,23.463 9.861,23.606 9.773,23.7 C9.372,24.093 9.449,25.005 9.175,25.518 C8.694,26.313 7.733,27.004 7.055,27.647 C6.095,28.481 5.113,30.094 3.721,30.37 C3.209,30.458 1.867,30.056 1.905,30.056 C1.867,30.021 0.904,30.41 0.384,28.849 C-0.14,27.294 2.326,26.947 4.623,25.216 L5.832,24.299 Z"/>
      <path d="M38.854,0.68 C41.463,0.27 42.66,1.942 41.885,4.01 C40.727,7.1 35.056,6.694 31.28,7.346 C30.77,7.43 29.377,8.18 28.868,8.248 C27.258,8.43 26.13,7.953 24.619,8.547 C23.874,8.836 23.374,9.307 22.804,9.764 C22.244,10.209 21.676,10.453 21.283,10.979 C20.911,11.491 20.989,12.176 20.989,12.176 C20.989,12.176 21.312,15.059 21.588,16.129 C21.804,16.961 22.942,18.385 23.109,19.459 C23.883,24.592 21.097,40.025 19.175,41.859 C17.467,43.463 16.399,43.384 15.545,42.777 C14.671,42.164 14.976,42.222 14.622,41.564 C14.161,40.691 14.309,39.71 14.328,39.751 C14.602,39.157 14.328,38.765 14.622,38.239 C15.054,37.454 16.319,36.852 16.752,36.11 C16.878,35.88 16.691,35.428 16.752,35.204 C16.938,34.366 18.018,33.12 18.252,32.179 C19.399,27.784 20.106,24.072 19.773,19.148 C19.488,15.226 16.104,12.322 17.359,8.248 C17.466,7.82 18.193,6.307 18.566,5.824 C20.204,3.672 26.306,5.521 29.77,4.619 C30.024,4.541 30.691,3.799 30.986,3.707 C32.125,3.34 32.84,3.717 34.007,3.396 C35.42,3.015 36.666,1.99 37.951,1.289 C38.265,1.102 38.382,0.75 38.854,0.68 Z"/>
      <path d="M39.462 9.764C39.462 9.764 40.453 9.764 40.983 10.063 42.867 11.131 41.13 13.313 40.669 14.614 40.336 15.579 39.718 17.061 39.463 17.948 39.306 18.464 39.59 18.928 39.463 19.46 39.395 19.739 39.1 20.571 38.56 20.671 38.021 20.759 37.55 20.386 37.344 20.067 36.304 18.385 36.47 12.965 37.344 11.284 37.686 10.612 39.462 9.764 39.462 9.764zM30.308 11.53C30.308 11.53 31.32 11.745 31.593 12.176 31.938 12.75 31.75 13.334 31.898 14.006 32.447 16.662 32.271 20.502 31.593 23.092 31.32 24.072 30.249 25.461 30.083 26.422 30.005 26.75 30.19 27.305 30.083 27.643 29.689 28.731 28.474 30.6 28.249 31.866 27.748 34.804 28.964 37.354 32.192 36.417 32.663 36.28 33.015 35.466 33.409 35.206 33.046 32.563 31.083 29.247 34.616 30.974 37.225 32.234 37.734 35.122 38.255 38.531 38.079 38.91 37.794 39.361 37.038 39.439 36.283 39.543 36.126 39.335 35.831 39.148 35.587 38.992 35.596 38.953 35.224 38.242 34.841 37.521 34.419 37.752 34.312 38.242 34.135 38.359 34.007 39.148 34.007 39.148 34.007 39.148 31.584 41.562 26.737 39.753 25.01 38.628 24.264 34.034 25.226 31.269 25.471 30.562 26.432 29.601 26.737 28.845 27.346 27.251 27.346 25.888 27.954 24.3 28.15 23.761 29.042 22.843 29.17 22.181 29.69 19.15 27.904 17.738 27.649 15.521 27.454 13.8 27.66 12.833 28.562 12.177 29.022 11.833 28.955 11.843 29.769 11.583L30.308 11.53zM38.255 21.573C38.304 21.661 39.069 21.794 39.158 21.886 40.256 22.937 40.198 26.65 40.668 28.546 41.562 32.013 43.749 35.829 46.133 37.933 46.516 38.267 46.821 38.953 47.34 39.148 48.909 39.712 50.371 39.375 50.98 40.968 52.265 44.357 47.262 44.323 45.231 43.077 44.339 42.542 41.768 39.993 41.278 39.147 40.414 37.633 40.375 36.01 39.777 34.303 39.404 33.274 38.236 31.93 37.952 30.973 37.441 29.256 37.117 23.225 37.647 21.885L38.255 21.573z"/>
    </g>
    <g fill="#000" fill-rule="nonzero" transform="translate(0 3)">
      <path d="M25.3,4.655 C26.222,4.567 26.34,4.969 26.821,5.262 C30.264,7.338 23.77,10.367 22.269,10.407 C21.7,10.423 20.993,10.098 20.768,9.796 C19.855,8.648 20.914,8.206 21.581,7.554 L21.975,7.074 C22.2,6.411 24.477,4.709 25.3,4.655 Z"/>
      <path d="M31.06.711C31.51.541 33.129.139 33.787 1.32 34.435 2.502 33.483 9.896 33.483 14.648 33.483 15.541 33.208 17.105 33.483 17.974 33.532 18.14 35.111 19.734 35.297 19.792 36.582 20.12 41.311 19.513 41.664 18.886 42.085 18.085 41.811 17.202 41.958 16.159 39.25 16.159 36.386 15.128 36.21 14.942 36.043 14.76 35.572 14.407 36.21 13.735 36.866 13.053 39.996 12.68 42.273 12.819 42.126 11.018 42.724 8.969 41.665 8.891 40.615 8.817 37.221 8.321 36.809 7.977 36.416 7.635 36.035 6.977 36.211 6.163 36.387 5.36 36.78 5.36 37.123 5.261 38.742 4.747 40.792 5.482 41.665 5.861 45.402 7.5 46.266 8.892 45.902 13.736 45.501 18.984 46.717 20.435 42.872 22.515 41.675 23.161 41.508 23.574 39.242 23.421 38.29 23.358 35.779 22.636 34.386 23.126 34.239 23.167 33.945 24.028 33.385 24.161 33.042 24.534 33.316 24.505 33.179 24.628 33.042 24.769 33.179 25.245 33.179 25.245 34.219 25.544 34.897 25.442 35.907 25.845L39.536 27.968C40.557 29.302 40.714 32.837 39.851 34.323 39.361 35.151 37.948 35.618 37.417 36.45 37.23 36.751 37.309 37.348 37.123 37.653 37.506 37.942 37.367 38.305 37.721 38.575 38.261 38.948 38.81 38.618 39.535 38.878 40.399 39.173 41.557 39.923 42.567 40.384 42.567 40.488 42.567 40.595 42.567 40.689 43.342 40.865 44.207 40.507 45 40.689 45.246 40.738 46.178 41.503 46.512 41.605 48.375 42.072 49.484 41.459 50.152 43.107 50.663 44.421 50.367 46.529 49.24 47.048 45.903 48.53 41.735 45.073 39.851 44.023 39.027 43.558 38.221 43.607 37.417 43.107 36.103 42.296 34.72 40.384 31.668 41.296 31.139 41.448 30.147 42.796 29.539 43.107 28.794 43.478 28.264 43.351 27.421 43.711 25.448 44.553 22.485 47.438 18.64 46.133 18.523 46.104 18.1 45.319 18.041 45.24 17.02 43.941 17.364 43.818 17.728 42.205 18.973 42.205 20.563 41.998 21.368 41.894 24.32 41.478 27.303 40.65 28.333 39.478 29.354 38.3 27.687 36.619 26.224 34.636 25.89 34.197 25.989 33.743 25.606 33.425 24.616 32.562 23.31 32.37 22.271 31.612 22.065 31.444 22.084 31.346 21.878 31.321 20.603 31.149 21.083 28.977 23.487 29.173 24.909 29.302 31.905 35.284 32.277 35.538 32.631 35.798 33.278 35.739 33.788 35.538 34.132 35.407 34.357 34.966 34.582 34.749 35.112 34.224 35.907 33.528 36.212 32.817 36.535 32.038 36.212 30.389 36.212 30.389 35.868 30.159 35.466 29.065 34.691 28.879 33.101 28.467 29.883 29.408 29.245 28.879 28.598 28.344 29.099 26.863 29.54 26.156L31.669 25.244C31.531 25.15 31.61 24.951 31.276 24.449 30.971 23.949 31.08 23.959 30.756 23.728 28.647 22.218 25.134 24.117 22.574 23.124 19.631 21.958 20.15 20.913 20.15 17.063 20.15 17.092 20.043 15.385 20.15 15.249 20.257 15.093 19.875 12.214 20.768 11.296 21.651 10.403 22.877 10.757 23.799 13.734 25.595 13.734 28.068 13.902 28.636 14.033 29.205 14.181 29.449 15.015 28.941 15.554 28.42 16.083 27.439 16.386 25.909 16.761 25.537 16.849 24.574 17.021 23.8 17.064 23.633 19.148 23.8 20.144 24.389 20.4 24.987 20.63 29.922 20.183 30.461 18.275 30.941 16.47 30.579 13.48 30.461 11.615 30.305 9.615 29.412 2.672 30.147 1.318 30.274 1.084 30.608.893 31.06.711zM11.026 3.836C11.85 3.58 12.066 3.418 13.185 4.346 14.312 5.268 13.949 10.172 13.783 12.217 14.117 12.373 14.47 13.055 14.695 13.133 15.431 13.373 16.373 12.924 17.128 13.133 17.62 13.266 18.395 13.869 18.64 14.336 18.875 14.82 18.983 15.424 18.64 15.856 18.286 16.282 17.639 16.651 17.128 16.764 14.695 17.278 13.566 16.743 12.881 18.887 12.508 20.033 12.361 21.864 12.881 22.825 13.009 23.055 13.136 23.257 13.783 23.423 14.47 23.591 15.696 23.05 15.912 23.128 16.079 23.183 16.511 23.732 16.511 23.732 16.511 23.732 16.609 25.185 16.216 25.847 15.627 26.792 13.842 26.562 13.488 27.97 13.263 28.866 13.763 30.294 13.783 30.697 13.842 31.697 13.715 33.707 13.734 33.927 13.861 35.193 13.783 34.325 13.783 34.325 14.342 36.595 13.656 42.96 12.881 44.024 12.881 44.024 12.135 44.981 12.008 45.079L11.361 45.534C10.183 45.884 8.398 46.585 6.524 46.134 4.954 45.777 2.53 42.868 3.493 40.081 3.512 39.96 4.1 39.479 4.1 39.479 4.1 39.479 4.954 39.385 5.318 39.479 6.141 39.704 7.269 41.999 7.731 42.206 8.201 42.397 8.604 42.319 8.947 42.206 11.135 41.45 10.232 33.618 10.459 30.696 10.135 30.544 9.771 29.846 9.546 29.788 5.897 28.567 4.611 34.147.775 30.696.07 30.069.697 29.245 1.07 28.573 1.776 27.302 2.934 27.792 4.612 27.341 4.838 27.282 5.779 26.493 5.917 26.454 6.76 26.091 7.525 26.542 8.35 26.159 8.841 25.895 10.352 23.682 10.46 23.128 10.9 20.823 10.027 16.519 8.35 16.161 7.124 15.899 6.555 16.641 5.917 16.765 4.818 16.984 2.847 17.466 1.679 17.068 1.541 17.025 1.071 16.451 1.071 16.451 1.071 16.451.963 14.68 1.375 14.037L1.975 13.557C2.2 13.463 2.829 13.209 3.191 13.135 4.741 12.793 6.459 13.406 8.038 13.135 8.567 13.024 9.392 12.395 9.863 12.219 9.627 10.6 9.117 5.264 10.157 4.348 10.417 4.106 10.191 4.077 11.026 3.836z"/>
    </g>
    <path fill="#D80C18" d="M183.094,83.286 L178.185,79.972 C178.103,79.917 178.007,79.889 177.912,79.889 C177.834,79.889 177.756,79.908 177.683,79.947 C177.525,80.031 177.425,80.197 177.425,80.377 L177.425,87.004 C177.425,87.184 177.525,87.35 177.683,87.434 C177.755,87.473 177.833,87.492 177.912,87.492 C178.008,87.492 178.103,87.464 178.185,87.409 L183.094,84.096 C183.228,84.005 183.309,83.854 183.309,83.692 C183.309,83.528 183.228,83.375 183.094,83.286 Z M171.124,83.587 C171.124,79.057 174.797,75.383 179.328,75.383 C183.858,75.383 187.531,79.057 187.531,83.587 C187.531,88.117 183.858,91.791 179.328,91.791 C174.796,91.792 171.124,88.118 171.124,83.587 Z"/>
  </g>
</svg>
