<svg xmlns="http://www.w3.org/2000/svg" width="300" height="300" style="background:#fff" viewBox="0 0 300 300">
  <path fill="#009FF7" d="M145.660956,0.0392896781 L145.660956,0 L155.882777,0 L159.617674,0.746503885 C162.10767,1.23114206 164.368265,1.86625971 166.399459,2.65205327 C168.430849,3.43784684 170.396584,4.35467148 172.296664,5.40233074 C174.19694,6.44999001 175.920299,7.51749057 177.466743,8.60443951 C179.000016,9.67842286 180.376031,10.8178235 181.594786,12.0226415 C182.800175,13.2406215 184.680794,13.554939 187.236249,12.9655938 C189.791704,12.3762486 192.543733,11.5576482 195.492335,10.5099889 C198.440938,9.46232963 201.356909,8.28363929 204.239856,6.97391787 C207.122999,5.66419645 208.879187,4.83263041 209.508222,4.47902331 C210.124087,4.11245061 210.451775,3.91600222 210.491089,3.88967814 L210.530207,3.83074362 L210.726781,3.73251942 L210.923354,3.63429523 L211.119928,3.53607103 L211.316501,3.43784684 L211.355816,3.37891232 L211.414788,3.33962264 L211.473957,3.30033296 L211.513075,3.24139845 L211.709648,3.18246393 L211.906222,3.14317425 L211.867104,3.43784684 L211.807935,3.73251942 L211.709648,4.02719201 L211.611362,4.32186459 L211.513075,4.51831299 L211.414788,4.71476138 L211.316501,5.00943396 C211.251042,5.20588235 211.185583,5.46774806 211.119928,5.79522752 C211.054469,6.12270699 210.431921,7.43223196 209.25248,9.72419534 C208.073039,12.0161587 206.598738,14.3407325 204.829576,16.6981132 C203.060415,19.0554939 201.474853,20.836495 200.072694,22.0415094 C198.657365,23.2594895 197.720299,24.1107003 197.261497,24.5953385 C196.802891,25.0929423 196.245998,25.5512564 195.590622,25.9704772 L194.607755,26.6187569 L194.411181,26.7169811 L194.214608,26.8152053 L194.17549,26.8741398 L194.116321,26.9134295 L194.057349,26.9527192 L194.018034,27.0116537 L193.821461,27.1098779 L193.624887,27.2081021 L193.585769,27.2670366 L193.526601,27.3063263 L193.467628,27.345616 L193.428314,27.4045505 L193.389196,27.463485 L193.330027,27.5027747 L193.271055,27.5420644 L193.23174,27.6009989 L194.214608,27.6009989 L199.718665,26.4223085 C203.388103,25.636515 206.893598,24.6870799 210.235347,23.5738069 L215.542831,21.8057714 L216.132552,21.609323 L216.427412,21.5110988 L216.623986,21.4128746 L216.820559,21.3146504 L217.017133,21.2164262 L217.213706,21.118202 L217.606853,21.0592675 L218,21.0199778 L218,21.4128746 L217.901713,21.4521643 L217.803427,21.5110988 L217.764308,21.5700333 L217.70514,21.609323 L217.646168,21.6486127 L217.606853,21.7075472 L217.567735,21.7664817 L217.508566,21.8057714 L217.449594,21.845061 L217.41028,21.9039956 L217.371161,21.9629301 L217.311993,22.0022198 L217.213706,22.1986681 L217.115419,22.3951165 L217.056447,22.4344062 C217.030303,22.4736959 216.198207,23.5867725 214.559964,25.7740289 C212.921917,27.9742508 212.037336,29.0873274 211.906222,29.1136515 C211.775304,29.1529412 211.591704,29.3493896 211.355816,29.7029967 C211.133098,30.0695694 209.743913,31.5299667 207.188458,34.0837958 C204.633003,36.6376249 202.130229,38.9097469 199.679547,40.9005549 C197.215892,42.9043285 195.970795,45.3664162 195.944651,48.2870144 C195.905336,51.1944506 195.754564,54.481818 195.492335,58.1487236 C195.230303,61.8158257 194.738869,65.777404 194.018034,70.0338513 C193.297396,74.2902986 192.183414,79.1032841 190.676285,84.472808 C189.169353,89.8423319 187.334536,95.0810211 185.172227,100.188679 C183.009919,105.296337 180.749324,109.880068 178.390442,113.940067 C176.03156,118.000065 173.869252,121.437912 171.903517,124.253607 C169.937782,127.069302 167.939416,129.721355 165.908025,132.209767 C163.876831,134.698179 161.308402,137.500908 158.202541,140.617758 C155.083509,143.721643 153.380004,145.424261 153.09163,145.725416 C152.790283,146.013606 151.506069,147.087589 149.238593,148.94717 C146.984682,150.819912 144.560144,152.692655 141.965374,154.565594 C139.383775,156.425371 137.011722,157.977313 134.849414,159.221421 C132.687106,160.465528 130.079362,161.88644 127.025789,163.484351 C123.985583,165.095228 120.696123,166.588235 117.1578,167.963374 C113.619477,169.338513 109.884581,170.615427 105.953111,171.794118 C102.021641,172.972808 98.2212858,173.889633 94.5518485,174.544395 C90.8826078,175.199158 86.7217367,175.755892 82.0694319,176.214206 L75.091073,176.901776 L75.091073,177 L62.3137962,177 L62.3137962,176.901776 L60.6429216,176.803552 C59.5291362,176.738134 58.6117277,176.672521 57.8908927,176.607103 C57.1702543,176.541686 54.4508566,176.1814 49.7330929,175.526637 C45.0153291,174.871875 41.3132606,174.216916 38.6266907,173.562153 C35.9403174,172.907391 31.9431921,171.663087 26.6357078,169.829634 C21.3282236,167.996181 16.787376,166.142887 13.013165,164.270144 C9.25212444,162.410367 6.89324256,161.231677 5.93651939,160.734073 C4.99296664,160.249435 3.93146979,159.647124 2.75202885,158.926748 L0.982867448,157.846282 L0.943749324,157.787347 L0.884580703,157.748058 L0.825608656,157.708768 L0.786293959,157.649834 L0.589720469,157.551609 L0.393146979,157.453385 L0.354028855,157.394451 L0.294860234,157.355161 L0.235888188,157.315871 L0.19657349,157.256937 L0.157455365,157.198002 L0.0982867448,157.158713 L0,157.158713 L0,156.765816 L0.19657349,156.805105 L0.393146979,156.86404 L1.27772768,156.962264 C1.86744815,157.027681 3.47286384,157.125906 6.09377818,157.256937 C8.71488909,157.387968 11.4995491,157.387968 14.4481515,157.256937 C17.3967538,157.125906 20.4110117,156.831233 23.490532,156.372919 C26.5702489,155.914605 30.2068584,155.128811 34.4003607,154.015538 C38.5940595,152.902265 42.4468999,151.579578 45.9590784,150.047281 C49.4580866,148.502018 51.9478864,147.349455 53.4288711,146.589789 C54.8964887,145.843285 57.1374265,144.454984 60.1514878,142.425083 L64.6726781,139.380133 L64.7119928,139.321199 L64.7709648,139.281909 L64.8301335,139.242619 L64.8692516,139.183685 L64.9085663,139.12475 L64.9675383,139.085461 L65.0267069,139.046171 L65.0658251,138.987236 L65.2623986,138.928302 L65.458972,138.889012 L65.4982867,138.692564 L65.5572588,138.496115 L65.6164274,138.456826 L65.6555455,138.397891 L64.0829576,138.299667 C63.0346312,138.23425 62.018936,138.168636 61.0360685,138.103219 C60.0532011,138.037801 58.5134409,137.743129 56.4165915,137.219201 C54.3199387,136.695273 52.0593436,135.909479 49.6348061,134.86182 C47.2104653,133.814161 44.8515834,132.569857 42.5581605,131.129301 C40.2649342,129.688745 38.6070334,128.490213 37.5848512,127.534295 C36.5758395,126.591147 35.265284,125.255494 33.6533814,123.526748 C32.0546492,121.785037 30.6654644,119.99716 29.4860234,118.163707 C28.3065825,116.330254 27.1796267,114.214898 26.105156,111.818424 L24.4733995,108.243063 L24.3751127,107.948391 L24.276826,107.653718 L24.2178539,107.45727 L24.1785392,107.260821 L24.4733995,107.300111 L24.7682597,107.359046 L26.9305681,107.653718 C28.3722381,107.850166 30.6328332,107.915584 33.7123535,107.850166 C36.7920703,107.784749 38.9215509,107.653718 40.1009919,107.45727 C41.2804328,107.260821 42.0012678,107.12979 42.2633003,107.064373 L42.6564472,106.966149 L43.147881,106.867925 L43.6393147,106.7697 L43.6786294,106.710766 L43.7376014,106.671476 L43.7967701,106.632186 L43.8358882,106.573252 L43.4427412,106.475028 L43.0495942,106.376804 L42.6564472,106.278579 L42.2633003,106.180355 L41.8701533,106.082131 C41.6081208,106.016714 41.1495149,105.885683 40.4941389,105.689234 C39.8389594,105.492786 38.069798,104.77241 35.1866546,103.528302 C32.3037078,102.284194 30.0102849,101.072697 28.3065825,99.8940067 C26.5986568,98.7118997 24.9701538,97.4191137 23.43156,96.0239734 C21.8982867,94.609545 20.2144382,92.7890577 18.3796213,90.5627081 C16.5450009,88.3363585 14.906954,85.7497225 13.465284,82.8029967 C12.0238106,79.8562708 10.9426564,77.040576 10.2218215,74.3557159 C9.5038851,71.6866487 9.03022512,68.9578837 8.80668891,66.2031077 L8.45266005,62.0776915 L8.64923354,62.1169811 L8.84580703,62.1759156 L9.04238052,62.2741398 L9.23895401,62.372364 L9.4355275,62.4705882 L9.63210099,62.5688124 L12.6789901,63.9439512 C14.7103805,64.8607758 17.2330081,65.6465694 20.2470694,66.3013319 C23.2613273,66.9560943 25.0631199,67.3163807 25.6528404,67.381798 L26.5374211,67.4800222 L28.3065825,67.4800222 L28.2674644,67.4210877 L28.2082958,67.381798 L28.1493237,67.3425083 L28.110009,67.2835738 L28.0708909,67.2246393 L28.0117223,67.1853496 L27.9527502,67.1460599 L27.9134355,67.0871254 L27.716862,66.9889012 L27.5202885,66.890677 L27.4811704,66.8317425 L27.4220018,66.7924528 L27.3630298,66.7531632 L27.3237151,66.6942286 L27.1271416,66.5960044 L26.9305681,66.4977802 L26.89145,66.4388457 C26.8521353,66.4125216 26.2885591,65.9934972 25.2007214,65.181576 C24.1260541,64.3564928 22.9990983,63.2891887 21.8196573,61.9794673 C20.6402164,60.6697458 19.4607755,59.2946071 18.2813345,57.8540511 C17.0997221,56.4101943 16.0472864,54.8654132 15.1361587,53.2375139 C14.2189468,51.6005094 13.2490532,49.51796 12.2268711,46.990455 C11.2178593,44.4759156 10.4512227,41.9417314 9.92696123,39.3879023 C9.4028963,36.8340733 9.10803607,34.3130511 9.04238052,31.8246393 C8.97692155,29.3362275 9.04238052,27.2081021 9.23895401,25.4400666 C9.4355275,23.6720311 9.82867448,21.6747403 10.418395,19.4483907 C11.0081154,17.2220411 11.8600649,14.8646604 12.9738503,12.3762486 L14.644725,8.64372919 L14.7430117,8.3490566 L14.8412985,8.05438402 L14.9004671,8.01509434 L14.9395852,7.95615982 L14.9788999,7.89722531 L15.037872,7.85793563 L15.0970406,7.89722531 L15.1361587,7.95615982 L15.1754734,8.01509434 L15.2344454,8.05438402 L15.2936141,8.0936737 L15.3327322,8.15260821 L15.3720469,8.21154273 L15.4310189,8.25083241 L15.5293057,8.4472808 L15.6275924,8.64372919 L15.686761,8.68301887 L15.7258792,8.74195339 L18.3796213,11.6886792 C20.1487827,13.6531632 22.2456321,15.8469023 24.6699729,18.2697003 C27.0945104,20.6924983 28.437697,21.949768 28.6997295,22.0415094 C28.9619585,22.1462164 29.28945,22.4473718 29.6825969,22.945172 C30.0757439,23.4298102 31.3862994,24.5888557 33.6140667,26.4223085 C35.8420307,28.2557614 38.7578052,30.3840832 42.361587,32.8068812 C45.9655654,35.2296792 49.9624941,37.6198668 54.3525699,39.9772475 C58.7428422,42.3346282 63.460606,44.4627536 68.5058611,46.3618202 C73.5513129,48.2608868 77.0896357,49.5049945 79.1208296,50.0943396 C81.15222,50.6836848 84.6248873,51.4366715 89.5392245,52.3534961 C94.4535618,53.2703208 98.1558269,53.8596659 100.645627,54.1215316 C103.135623,54.3833973 104.839326,54.5340733 105.756537,54.5733629 L107.132552,54.6126526 L107.093434,54.31798 L107.034265,54.0233074 L106.641118,51.5677026 C106.379086,49.9306981 106.247971,47.6387347 106.247971,44.6920089 C106.247971,41.745283 106.477372,39.0278124 106.935978,36.5394007 C107.394781,34.0509889 108.082788,31.5299667 109,28.9761376 C109.917408,26.4223085 110.81516,24.372566 111.693057,22.827303 C112.584321,21.2950055 113.750592,19.5466149 115.192065,17.582131 C116.633735,15.6176471 118.501183,13.5877458 120.794409,11.4922309 C123.087832,9.39671587 125.708747,7.53045616 128.657349,5.89345172 C131.605951,4.25644728 134.325349,3.01214317 136.815149,2.1609323 C139.305145,1.30972142 141.401995,0.752986681 143.1055,0.491120977 C144.809203,0.229255272 145.660956,0.0785793563 145.660956,0.0392896781 Z" transform="translate(41 62)"/>
</svg>
