<svg xmlns="http://www.w3.org/2000/svg" width="300" height="300" style="background:#19b0e6" viewBox="0 0 300 300">
  <path fill="#FFF" d="M235.675151,116.50997 C235.693094,105.673286 231.025219,97.708383 221.592577,92.3299643 C202.546068,81.4708525 183.51481,70.5821339 164.597491,59.5005287 C155.046425,53.9058974 145.824613,53.8134905 136.261884,59.4000481 C117.073625,70.6099461 97.7929596,81.6610485 78.5176767,92.7202246 C69.5461698,97.8680753 65.1034798,105.606 65.0370904,115.860433 C64.964421,127.066742 65.0209412,138.274845 65.0209412,149.481155 C65.0209412,160.688361 64.9796724,171.895568 65.0335011,183.101877 C65.0810499,193.185851 69.3972417,200.954279 78.1426668,206.022283 C97.7579698,217.39008 117.445941,228.632275 137.082776,239.965083 C145.871264,245.037573 154.645397,245.113831 163.428503,240.065564 C182.954987,228.842208 202.450072,217.56323 221.985529,206.355127 C231.263862,201.031435 235.692197,193.038719 235.675151,182.406586 C235.640162,160.441645 235.639265,138.475808 235.675151,116.50997 Z M169.760593,157.922446 C165.845428,179.234261 146.251656,192.826094 123.699082,190.551816 C103.965356,188.561936 87.9117414,170.383869 87.8552203,149.927936 C87.8265113,139.614291 87.8292028,129.300647 87.8579118,118.987003 C87.8767516,112.446774 91.843952,108.095594 97.7193925,108.07137 C103.52934,108.047147 107.614964,112.427934 107.680457,118.946631 C107.787217,129.556335 107.535118,140.177702 107.930762,150.774846 C108.254633,159.461059 112.918022,165.762645 120.829995,169.159258 C128.558948,172.476921 136.091425,171.460449 142.754563,166.183409 C148.391361,161.720085 150.900691,155.7011 150.8666,148.532866 C150.819948,138.667797 150.882749,128.801831 150.851349,118.936762 C150.836994,114.300288 152.702171,110.740394 156.960945,108.85548 C163.338789,106.032146 170.423588,110.55558 170.685556,117.663705 C170.905358,123.634243 170.730413,129.619135 170.730413,135.598644 C170.874854,135.605821 171.020193,135.612999 171.164634,135.619279 C170.747458,143.062042 171.097348,150.647451 169.760593,157.922446 Z M212.78166,179.755505 C212.764614,186.424026 208.988507,190.679211 203.096021,190.755469 C197.037562,190.834418 193.01743,186.502077 193.003973,179.641566 C192.961808,159.489767 192.959116,139.337968 193.006665,119.18617 C193.021916,112.645045 197.03218,108.204149 202.774842,108.094696 C208.732819,107.980758 212.770895,112.477277 212.783455,119.300108 L212.794221,164.754248 C212.795117,169.754069 212.79422,174.754787 212.78166,179.755505 Z"/>
</svg>
