<svg xmlns="http://www.w3.org/2000/svg" xmlns:xlink="http://www.w3.org/1999/xlink" width="300" height="300" style="background:#fff" viewBox="0 0 300 300">
  <defs>
    <linearGradient id="v.qq-a" x1="50%" x2="50%" y1="0%" y2="100%">
      <stop offset="0%" stop-color="#3EB4F8"/>
      <stop offset="100%" stop-color="#0891C9"/>
    </linearGradient>
    <linearGradient id="v.qq-d" x1="50%" x2="50%" y1="0%" y2="100%">
      <stop offset="0%" stop-color="#92EA01"/>
      <stop offset="33.497%" stop-color="#71CA00"/>
      <stop offset="51.586%" stop-color="#59B200"/>
      <stop offset="100%" stop-color="#57AE02"/>
    </linearGradient>
    <path id="v.qq-c" d="M35.5449931,19.0479538 C35.6983418,18.6884361 41.7034755,20.4616505 42.457951,20.6688301 C50.8001184,23.069677 59.2710986,25.5314591 67.4353816,28.5172839 C81.2306275,33.5627185 94.5780953,39.5648358 107.667937,46.1580245 C112.274531,48.4796556 116.82592,50.8987831 121.352772,53.3666587 C126.934664,56.4134187 132.485885,59.5089269 137.853089,62.9152046 C141.968967,65.3769867 145.943764,68.0337614 149.568927,71.1658307 C152.826052,73.981037 155.862356,76.9973294 157.690272,80.9824915 C158.542891,82.8410151 159.137883,84.7543804 158.972267,86.8383643 C159.144017,89.6291964 158.039907,92.0300433 156.573894,94.2968328 C154.200056,97.9590383 150.863189,100.664561 147.403644,103.229933 C129.780815,116.324908 110.76558,127.110438 90.8670576,136.415243 C78.0225734,142.423454 64.8468561,147.590759 51.1068157,151.283432 C45.3163701,152.843373 39.4829869,154.269257 33.6680055,155.756076 C33.4349155,155.786544 33.1895576,155.774356 32.9748695,155.847479 C32.0241078,156.188716 31.4168471,155.993723 31.3371058,154.890796 C31.0549442,152.727596 30.742113,150.564397 30.502889,148.395104 C30.042843,144.214949 29.5705291,140.034794 29.2208942,135.842452 C28.9510005,132.588513 28.8835271,129.310199 28.6749729,126.050166 C28.3866775,121.52268 28.1781233,117.001288 28.2333288,112.46771 C28.208793,112.242249 28.1842572,112.022883 28.1597214,111.797422 C27.9634351,110.054676 28.0309085,108.311929 28.0493104,106.563089 C28.0370425,106.130449 28.0125067,105.703902 28.0125067,105.271262 C27.9879709,97.4106215 27.9695691,89.5499807 28.2639985,81.6893398 C28.3069361,80.5559451 28.1290517,79.4042698 28.2824004,78.2891556 C28.7669821,74.7610075 28.8528574,71.2206724 28.9755363,67.6742437 C29.0552776,65.4257348 29.2760997,63.1833195 29.4785199,60.9469976 C29.7545475,57.8149283 30.0735128,54.6889525 30.386344,51.5629767 C30.6439698,48.9427631 30.7973185,46.3042689 31.2082929,43.7084294 C31.6254013,41.0882158 31.889161,38.4558151 32.3062693,35.8356015 C32.9135301,32.0698061 33.3551742,28.2674496 34.293668,24.5564959 L34.9377324,21.2111534 L35.5449931,19.0479538 Z"/>
    <filter id="v.qq-b" width="133.6%" height="132.1%" x="-16.8%" y="-12.4%" filterUnits="objectBoundingBox">
      <feMorphology in="SourceAlpha" operator="dilate" radius="1.5" result="shadowSpreadOuter1"/>
      <feOffset dy="5" in="shadowSpreadOuter1" result="shadowOffsetOuter1"/>
      <feGaussianBlur in="shadowOffsetOuter1" result="shadowBlurOuter1" stdDeviation="5"/>
      <feColorMatrix in="shadowBlurOuter1" values="0 0 0 0 0   0 0 0 0 0   0 0 0 0 0  0 0 0 0.292770607 0"/>
    </filter>
    <linearGradient id="v.qq-e" x1="50%" x2="50%" y1="0%" y2="100%">
      <stop offset="0%" stop-color="#FCD831"/>
      <stop offset="100%" stop-color="#DA6F02"/>
    </linearGradient>
  </defs>
  <g fill="none" fill-rule="evenodd" transform="translate(53 62)">
    <path fill="url(#v.qq-a)" d="M193.230572,89.6925005 C191.776331,93.7625723 189.352595,97.2685851 186.444111,100.370909 C182.252149,104.83914 177.740695,108.992161 173.113563,113.029053 C170.794488,115.053029 168.469905,117.071475 166.145321,119.095451 C161.308866,123.298242 156.263088,127.241124 151.173243,131.112116 C143.802881,136.719525 136.239723,142.067024 128.4397,147.071664 C120.766371,151.993354 112.92228,156.610894 104.813781,160.791566 C100.880718,162.821072 96.8870624,164.712328 92.8438299,166.504044 C84.7188055,170.104067 76.4120009,173.189801 67.7801953,175.340966 C63.5661996,176.391664 59.275085,177.005493 54.934394,176.999963 C52.0479446,176.994433 49.1890377,176.612864 46.3907242,175.866315 C37.2576459,172.786112 32.7296662,165.978695 31,156.903984 C36.7563732,155.416417 42.5292719,153.98968 48.2636112,152.430223 C61.8585673,148.73619 74.9026743,143.565651 87.6162718,137.554553 C107.309128,128.253112 126.131642,117.464104 143.571525,104.369091 C146.992298,101.797646 150.297392,99.0934814 152.64401,95.4326289 C154.098251,93.1653335 155.194441,90.7653184 155.023678,87.967144 C155.183424,85.8878683 154.594015,83.9744922 153.751216,82.1164159 C151.944431,78.134824 148.942304,75.1154502 145.714328,72.2951559 C142.122792,69.1596523 138.189729,66.5052577 134.113445,64.0444127 C128.80326,60.6379396 123.311294,57.5411459 117.791786,54.4996521 C113.307874,52.0277471 108.801929,49.6056121 104.240898,47.2830168 C91.2849269,40.6912702 78.0755652,34.6857024 64.4200157,29.6423527 C56.3445677,26.6561587 48.103865,24.2340237 39.8466368,21.8284786 C38.2271404,21.3750195 36.607644,20.9215604 34.9936561,20.4570414 C34.5695023,20.3353816 34.117806,20.3132616 34.3216202,19.5777731 C35.2250127,16.2653099 35.9851845,12.8864868 37.819512,9.93900275 C41.7305407,3.67352549 47.46488,0.427422094 54.8297326,0.040322881 C60.5750889,-0.2638265 66.0119696,1.19609053 71.399274,2.95462695 C82.1353232,6.44957984 92.5353544,10.774031 102.726063,15.6072412 C114.172708,21.0376902 125.382487,26.9105382 136.206672,33.4912248 C141.555417,36.7428582 147.003315,39.8396519 152.175788,43.3788447 C155.205458,45.4470605 158.19106,47.5871662 161.281324,49.5613722 C163.225821,50.8000896 165.115234,52.116227 167.015663,53.4157743 C167.241511,53.565084 167.50041,53.6756838 167.594055,53.9632432 C170.711861,55.9153292 173.592801,58.1936846 176.473742,60.46098 C180.561043,63.6849634 184.576733,67.0250766 187.854285,71.0951484 C190.614039,74.5182114 193.214047,78.0961141 193.792438,82.6638848 C194.095405,85.04178 194.183541,87.4141452 193.230572,89.6925005 Z"/>
    <use fill="#000" filter="url(#v.qq-b)" xlink:href="#v.qq-c"/>
    <use fill="url(#v.qq-d)" xlink:href="#v.qq-c"/>
    <path fill="#FFF" d="M55.0428689,65.5076649 C55.0612412,70.5045929 55.2388408,75.501521 55.097986,80.5045354 C55.1408548,90.2792814 55.1653513,100.060114 55.2449649,109.83486 C55.2694614,113.115425 55.0122482,116.408163 55.4348127,119.676556 C55.900246,123.322305 58.405012,124.795212 61.8957617,123.58402 C63.714626,122.951035 65.2089118,121.788534 66.7828112,120.747761 C80.3661144,111.752073 93.9800381,102.79899 107.551093,93.7850433 C109.859887,92.2512725 112.352405,90.9609573 114.269255,88.8854976 C116.492312,86.4752862 116.578049,83.9616062 114.501972,81.4783582 C113.142417,79.8532914 111.384794,78.776 109.565929,77.704795 C104.685004,74.8259314 99.9020644,71.7888217 95.076256,68.8125759 C94.9292771,68.7638847 94.7639258,68.7395392 94.6414433,68.6665025 C87.9783983,64.5703605 81.3214774,60.4620457 74.6584324,56.3719901 C70.5981394,53.8826557 66.5807152,51.3202845 62.4530568,48.9465915 C58.6928457,46.7920087 55.5083021,48.441421 55.0306206,52.6166861 C55,52.9270921 55,53.2435845 55,53.5539905 C55.0122482,57.5405774 55.0244965,61.5271643 55.0428689,65.5076649 Z"/>
    <path fill="url(#v.qq-e)" d="M31.2352459,35.6421827 C30.8236308,38.2893827 30.5601972,40.9589691 30.1540703,43.6061691 C29.7479434,46.2365793 29.5942737,48.9061658 29.3363283,51.5589624 C29.0344772,54.7210512 28.7216497,57.8887366 28.4417515,61.056422 C28.2441762,63.323052 28.0246482,65.589682 27.9478134,67.8619087 C27.8325611,71.454937 27.7447499,75.0423687 27.2672764,78.6130106 C27.119095,79.7379306 27.2892292,80.9076237 27.2508118,82.0493336 C26.9599371,90.0077234 26.9709135,97.9661133 26.9983545,105.924503 C26.9983545,106.361039 27.0257955,106.797575 27.036772,107.228515 C27.0203073,108.997046 26.9489607,110.765577 27.1410478,112.528512 C27.0148191,112.774763 27.036772,112.998627 27.2178826,113.211299 C27.1630006,117.794928 27.366064,122.378558 27.6514505,126.956591 C27.8600021,130.258595 27.9258606,133.571793 28.1892942,136.873797 C28.5350509,141.110436 29.0070362,145.341479 29.4570687,149.572522 C29.6875732,151.771992 30.0004006,153.96027 30.2802989,156.148547 C26.4989282,156.780965 22.7230457,157.30145 18.8758166,156.797755 C14.3754916,156.21011 11.033177,153.881917 8.72264428,149.981075 C6.31881212,145.929124 5.02908482,141.479813 4.24976024,136.845814 C2.42767742,126.027553 1.31357256,115.136535 0.671453006,104.189552 C0.17751489,95.805819 -0.195682797,87.4220862 0.111656475,79.0271602 C0.331184526,72.8988643 0.918422063,66.7985514 1.63737643,60.7038351 C2.58134705,52.6503028 3.88205075,44.6583332 5.84682681,36.7950859 C6.74140362,33.2300406 7.77867366,29.7041717 9.46903966,26.4189573 C11.9442184,21.611463 15.9890228,19.1209683 21.1314674,18.292669 C25.2366419,17.6322681 29.2869345,18.1807366 33.3152742,19.0314224 C33.8750707,19.1489514 34.0945988,19.389606 33.962882,20.1171662 L33.1945338,24.2194867 C32.2670278,27.9804136 31.8334599,31.8252897 31.2352459,35.6421827 Z"/>
  </g>
</svg>
