<svg xmlns="http://www.w3.org/2000/svg" width="300" height="300" style="background:#fff" viewBox="0 0 300 300">
  <g fill="none" transform="translate(23 110)">
    <path fill="#0E0E0E" d="M169.32309,20 C171.430202,22.296237 176.292362,22.1184948 179,23.8815052 C175.128183,24.7654123 170.292362,24.7654123 167,26 C167.774363,23.8815052 168.543459,21.9407526 169.32309,20 Z"/>
    <path fill="#000" d="M143.328809,29 C142.182134,34.1026113 139.883572,39.9672674 138.533623,45.6465612 C145.830645,45.8319235 153.466457,44.3232806 161.128331,43.7568959 C162.087368,42.4336153 162.660705,40.538801 163.213194,38.8396469 C164.745569,40.8992277 165.699394,44.8948143 164.365081,47.917249 C152.898332,47.7318867 144.835122,57 133.535162,57 C128.557551,57 124.346126,54.1629275 126.644688,48.6741449 C129.928348,40.7241633 138.351197,35.2405296 143.328809,29 Z"/>
    <path fill="#0E0E0E" d="M255.978685,11.9638346 C256.169764,13.1016338 255.028456,14.0325605 254.460384,15.0048616 C249.14633,21.8471725 243.098947,29.6359255 236.054856,34.7663657 C236.622928,37.4246784 236.245935,41.0346051 235.295706,42.9378329 C237.191,45.4099604 239.091458,47.6855589 240.227602,50.7265859 C238.709301,58.8928814 235.104627,65.1662926 229.604659,69.1537618 C224.10469,73.1412309 216.693935,74.6617445 208.167693,76.7511576 C191.853703,80.5524414 164.911604,84.1571963 152.77036,74.4703873 C139.678886,82.2591403 113.118945,83.2107542 100.786622,74.0928448 C92.0589726,85.113982 57.7216118,84.1623681 62.844587,62.3114509 C56.3943894,67.0591768 47.0986683,73.9014877 37.994026,77.5114144 C27.5569969,81.8815978 7.8294111,81.3126982 9.72470534,66.4902772 C9.91578405,64.7784065 10.6749346,63.6406073 11.6199996,62.1200938 C9.04051479,57.7179482 6.75796754,53.1479294 4.78764459,48.4406438 C3.07826477,44.0704604 0.232741269,38.9400202 0.0210054006,32.6717807 C-0.526409285,19.3698732 9.71954105,11.0122207 19.7744127,7.22645227 C24.8973878,5.15772639 29.2612124,2.28736921 34.3841876,0.766855684 C42.1616076,-1.51391461 48.6118051,2.83558157 49.1850413,9.88476504 C58.1037692,7.22128046 69.1037058,4.37678236 80.8679572,6.08348122 C90.354757,-1.32772928 108.569206,3.23381131 120.710451,6.84373799 C123.364895,7.60399475 127.160648,9.6934079 129.061107,9.50205075 C130.770487,9.50205075 133.807089,7.03509513 135.702383,6.26966655 C144.238953,2.46838273 155.244054,-1.51908642 167.385299,0.580670354 C169.662751,0.963384644 171.749124,2.10118388 174.217654,2.47872636 C175.927034,2.6700835 177.832657,2.10118388 179.717622,2.10118388 C208.141872,0.559983095 231.691032,8.16255074 255.978685,11.9638346 Z M176.86177,11.2035778 C174.016247,11.5862921 171.929874,14.6221473 170.034579,15.7651184 C170.220494,15.7651184 170.220494,15.7651184 170.220494,15.5737612 C170.597487,14.0532477 171.170723,12.7240913 171.356638,11.0122207 C156.178791,5.69559512 141.403759,13.4843481 130.558751,19.3750451 C121.831101,24.122771 114.033024,29.8221108 108.744792,35.3352653 C110.645895,31.8867612 112.798355,28.5833567 115.184661,25.4519274 C117.48277,22.224715 120.137214,19.3750451 122.223587,16.5357188 C117.668684,15.3979195 113.118945,14.0635913 108.564042,13.1171492 C102.113844,11.7879929 93.0092018,9.49687894 87.6951479,12.3568925 C86.1768468,13.3085064 84.8496244,15.3979195 83.3313233,15.5892767 C82.1951796,15.7806338 80.1036424,14.8290199 78.5905056,14.6376628 C73.3252429,14.0892717 68.0057862,14.4107562 62.844587,15.5892767 C58.0986049,16.5357188 48.234812,18.232074 46.9024253,22.6022574 C46.1432748,25.4519274 47.8526546,28.2912536 47.6615759,30.95991 C47.2845827,33.80958 44.6249737,37.4195066 43.2977513,39.7002769 C41.5935357,42.3637615 39.8841559,44.8307171 37.2038897,46.1598735 C35.4945099,37.6108638 37.3949684,30.1996533 38.7221908,22.9797999 C39.67242,18.6096165 41.3766356,14.0480759 39.8583345,9.49170712 C35.4945099,8.9228075 31.8898358,12.341377 27.5260112,14.0532477 C19.3974195,17.2804601 10.4786916,20.3214872 9.31672647,29.6307537 C8.74865463,34.952551 10.6439489,38.1797634 11.9711713,41.9810472 C14.7737715,49.4071894 18.5361492,56.4334575 23.1621866,62.8803505 C22.0208786,65.1611208 19.1753551,65.7300204 18.798362,68.7710475 C20.1255844,70.6691035 22.7800291,70.8397734 25.4396382,70.8397734 C33.0259795,70.8397734 39.2902626,67.0384896 44.9813096,63.8061054 C57.3136329,56.7776091 65.6384676,46.1391863 74.3867739,36.069663 C75.9050751,34.3577923 77.2322974,32.077022 79.1275917,31.1305799 C81.0228859,40.062304 77.2322974,45.001387 74.5726884,52.4125975 C73.6224591,55.2622674 70.2088638,64.1939915 71.9182436,68.3728178 C73.6276234,72.9343583 88.6143915,73.1257155 92.5754015,70.2708738 C94.6411173,68.7503602 95.420925,65.3317907 96.3711543,63.2372057 C97.6983767,60.578893 99.0255991,58.1067655 99.9861569,55.6398099 C99.9861569,65.7093332 107.386584,68.5693467 115.546161,70.6380726 C132.619302,75.1944414 149.692443,67.0178023 158.988164,61.5201632 C157.852021,68.9262019 160.697544,69.6864587 166.574505,70.8294298 C181.550945,73.8704568 196.73912,70.4467155 208.885529,67.4108602 C220.076545,64.7525475 228.995272,62.8493196 230.704652,51.6419971 C228.995272,50.1214836 224.445533,50.3128407 221.408931,50.6903832 C212.304289,52.0195396 203.57664,56.5810802 191.621309,55.6294663 C189.343858,55.4432809 184.60304,54.6778524 184.391304,53.348696 C183.823232,51.2799701 187.618985,49.7284257 190.841502,49.1698697 C199.946144,47.6493562 212.846539,49.1698697 220.246966,46.5063851 C223.660561,45.1772287 228.024386,41.3759449 227.476971,37.1971186 C227.099978,34.3474487 223.49014,32.8269352 219.89063,32.635578 C209.835758,32.0666784 202.817489,37.7660182 192.38046,35.8627904 C193.707682,34.1509197 193.898761,31.492607 195.608141,30.1737942 C203.194482,29.9824371 210.58458,31.5029506 217.995336,31.1254081 C228.050207,30.5565085 233.741254,26.1863251 238.487237,20.6731706 C239.055308,20.1042709 240.196616,19.3440142 239.814459,18.3924003 C222.204232,15.5737612 198.298736,8.54009321 176.86177,11.2035778 Z"/>
  </g>
</svg>
