<svg xmlns="http://www.w3.org/2000/svg" width="300" height="300" style="background:#fff" viewBox="0 0 300 300">
  <g fill="none" transform="translate(61 71)">
    <path fill="#FA001E" d="M148.177078,77.2887998 C140.416303,75.7540857 144.182612,71.6045057 144.182612,71.6045057 C144.182612,71.6045057 151.771889,59.0987566 142.641978,50.0039238 C131.343622,38.7487874 103.896282,51.4249973 103.896282,51.4249973 C93.3968561,54.6650752 96.1929256,49.9471035 97.6765195,41.932045 C97.6765195,32.4390926 94.423945,16.4093531 66.4630607,25.9021166 C38.5592158,35.395069 14.5357582,68.7623586 14.5357582,68.7623586 C-2.1265798,90.9315209 0.0989057953,108.041223 0.0989057953,108.041223 C4.2644903,145.842195 44.6080493,156.244649 75.9926264,158.689054 C108.975066,161.30392 153.541059,147.377097 167.008052,118.784788 C180.531894,90.1356593 155.994892,78.8237026 148.177078,77.2889885 L148.177078,77.2887998 Z M78.3890408,148.05913 C45.6349486,149.537023 19.1578477,133.165985 19.1578477,111.394942 C19.1578477,89.6237104 45.6349486,72.116077 78.3890408,70.6379944 C111.200172,69.1032803 137.734502,82.5749743 137.734502,104.346395 C137.734502,126.117626 111.200172,146.581236 78.3890408,148.05913 Z"/>
    <path fill="#000" d="M72.0228444,84.3188831 C39.3464761,88.1962077 43.1341562,119.042685 43.1341562,119.042685 C43.1341562,119.042685 42.79472,128.792707 51.8967923,133.753304 C71.005099,144.187449 90.6788824,137.915601 100.628607,124.972566 C110.522008,112.029531 104.699025,80.4985529 72.0226567,84.3186937 L72.0228444,84.3188831 Z M63.7691749,127.652629 C57.663641,128.336752 52.7453829,124.801772 52.7453829,119.670192 C52.7453829,114.538611 57.1548622,109.179053 63.2605838,108.551925 C70.2143328,107.867803 74.7933424,111.916111 74.7933424,117.104686 C74.7933424,122.179082 69.8183864,126.911702 63.7695504,127.653008 L63.7691749,127.652629 Z M82.9903141,111.117053 C80.9551987,112.65647 78.4111167,112.428303 77.3370489,110.54673 C76.2062832,108.721962 76.6020418,105.81411 78.6938551,104.274504 C81.124729,102.449735 83.6121132,103.020248 84.7428788,104.844826 C85.8171344,106.669595 85.0256172,109.463457 82.9903141,111.117053 Z"/>
    <path fill="#FF9700" d="M164.35811,63 C167.011655,63 169.269784,61.0844 169.608766,58.5484801 C169.6652,58.379319 169.6652,58.210345 169.6652,57.9848592 C173.673735,22.260425 140.363524,28.4020592 140.363524,28.4020592 C137.371373,28.4020592 135,30.7688179 135,33.755148 C135,36.6853405 137.371373,39.1082368 140.363524,39.1082368 C164.245054,33.8114726 158.994774,57.7032359 158.994774,57.7032359 C158.994774,60.6334284 161.422393,63 164.358298,63 L164.35811,63 Z"/>
    <path fill="#FF9700" d="M159.86507,1.30477765 C148.135841,-1.44261972 136.119443,0.904091777 132.727075,1.53382247 C132.439524,1.53382247 132.209828,1.82008098 131.979558,1.87748474 C131.864614,1.87748474 131.806952,1.99191211 131.806952,1.99191211 C128.414583,2.965115 126,5.99858079 126,9.66177729 C126,13.9545144 129.507312,17.5606873 133.934557,17.5606873 C133.934557,17.5606873 138.189195,16.9311467 141.121598,15.8433263 C143.938866,14.6414588 168.259593,14.9847409 180.333653,35.1325117 C186.945593,49.899725 183.208393,59.7444705 182.748618,61.2900004 C182.748618,61.2900004 181.196304,65.1248379 181.196304,68.9024618 C181.196304,73.2524126 184.703616,76 189.073198,76 C192.752926,76 195.800273,75.4850768 196.720014,69.3605514 L196.777486,69.3605514 C209.714006,26.3752063 180.908753,6.17060201 159.865261,1.30534789 L159.86507,1.30477765 Z"/>
  </g>
</svg>
