<svg xmlns="http://www.w3.org/2000/svg" width="300" height="300" style="background:#16b005" viewBox="0 0 300 300">
  <path fill="#FFF" d="M154.663211,33.4172433 C153.248427,25.805741 149.016454,22.6188967 144.619856,21.0254746 C140.209642,19.4320525 135.790764,17.7779168 124.566566,16.4583254 C115.524576,15.3791102 105.79933,15.0073943 99.3801981,15.2205114 C97.6349269,10.0338357 94.7335682,4.14709505 83.6851351,1.44843768 C76.1569511,-0.392795032 62.4064421,-0.144984439 57.8613103,0.385330232 C51.0535148,1.19938803 48.8242712,4.2090477 47.0307266,5.96106859 C45.2347064,7.72300192 43.7580336,12.918351 43.7407047,16.6008164 C43.7407047,18.671274 43.6268289,22.5123382 43.6775779,26.8849561 C43.7308025,31.3282 43.7308025,31.3282 43.784027,35.1519175 C43.784027,41.0993718 39.8070367,45.081688 33.2975465,45.081688 L16.7657435,45.081688 C12.9632803,45.081688 10.0445928,45.7198003 7.81658697,46.7383018 C5.58981896,47.7555643 3.9980326,49.5794503 2.79490948,51.1902191 C0.408467727,54.3944101 0,58.3593796 0,62.4123219 C0,62.4123219 0.0358956488,65.7044856 0.831788827,72.1128676 C1.50390391,77.0517327 6.40180329,108.454291 11.4952721,118.970134 C13.4757217,123.059009 14.7828184,124.75775 18.6558351,126.56305 C27.3042109,130.280209 47.0381533,134.38767 56.3041818,135.573444 C65.5367902,136.759217 71.3370319,139.237323 74.784252,131.997537 C74.784252,131.962843 75.4749338,130.192236 76.4106962,127.555532 C79.4160285,118.473273 79.8244962,110.402082 79.8244962,104.559948 C79.8244962,103.976354 80.6897051,103.940421 80.6897051,104.559948 C80.6897051,108.684755 79.9123786,123.270887 90.9286295,127.182577 C95.2757163,128.72272 104.283049,130.104264 113.461195,131.183479 C121.736998,132.138789 127.748901,135.396259 127.748901,156.674516 C127.748901,169.631292 125.036922,171.405616 110.843288,171.405616 C99.3319246,171.405616 94.9464666,171.705467 94.9464666,162.551344 C94.9464666,155.151719 102.243186,155.912498 107.659715,155.912498 C110.077101,155.912498 108.333068,154.124545 108.333068,149.558634 C108.333068,145.008832 111.161398,142.388235 108.485315,142.317609 C89.7440731,141.804641 78.7278222,142.300262 78.7278222,165.755535 C78.7278222,187.053616 86.8612811,191 113.462432,191 C134.305427,191 141.647943,190.328433 150.255472,163.578519 C151.975988,158.302631 156.079232,142.193704 158.565934,115.145177 C160.14658,98.0623539 157.080597,46.4272995 154.663211,33.4172433 M118.307107,90.345532 C116.124899,90.274906 114.315264,90.3368587 112.317485,90.5933426 C112.057551,90.6292752 111.739441,90.7085745 111.480745,90.7085745 C111.255469,90.7085745 111.031431,90.5053699 111.043808,90.1770208 C111.054948,89.9118635 111.067326,89.8858434 111.114362,89.619447 C111.939962,84.6285416 114.332592,79.1048435 121.441169,79.3526541 C129.294889,79.6277238 130.904004,86.5304879 131.131756,91.8596548 C131.131756,92.1161387 131.15775,92.2487174 131.144134,92.4878546 C131.144134,92.7703587 130.826024,92.9748024 130.53267,92.8595705 C130.285114,92.7629244 130.144007,92.6997327 129.884073,92.6030865 C126.547015,91.3194277 122.574976,90.4966965 118.307107,90.345532" transform="translate(71 55)"/>
</svg>
