<svg xmlns="http://www.w3.org/2000/svg" width="300" height="300" style="background:#fff" viewBox="0 0 300 300">
  <g fill="none">
    <polygon fill="#F5CA1E" points="0 0 300 0 300 300 0 300"/>
    <path fill="#040000" d="M255.19435,140.550519 C248.635605,144.185601 239.264279,145.993184 231.43729,146.888174 C243.847957,136.333593 255.899154,124.311703 260.77162,109.186934 C267.380853,88.6685633 267.579629,69.6452085 261.397375,49.3314646 C260.835667,47.5316733 259.295657,46.2043417 257.415795,45.9584433 C255.688261,45.6545337 253.879658,46.4606301 252.816538,47.9654588 C236.419386,71.3266684 214.738657,86.2286282 191.041606,90.6319982 C198.122823,76.3768203 205.93279,60.2863517 204.251127,43.4656921 C204.054371,41.5397769 202.744583,39.9627949 200.983295,39.3780648 C200.569875,39.2288518 200.021726,39.1304348 199.448766,39.1304348 C198.099455,39.1304348 196.880545,39.6828402 196.001487,40.5740775 C170.877806,66.1668435 150.82681,71.5679489 126.61046,71.9873037 C99.8706049,72.4459099 74.3361008,84.7797905 56.5599223,105.827189 C38.929436,126.693916 31.1261045,153.607375 35.1509595,179.671446 C41.6124804,221.608372 72.8979314,252.994757 114.850647,259.625643 C120.145765,260.460889 125.392992,260.869565 130.558862,260.869565 C165.015787,260.869565 195.936863,242.639896 213.605431,210.968939 C215.620888,207.365604 218.928534,203.831537 222.676429,201.257397 C239.734244,189.582997 252.075094,174.470638 259.337489,156.328997 C260.343487,153.820949 261.078295,150.731634 261.728284,148.005972 L262.225945,145.950758 C262.319708,145.596341 262.373657,145.189108 262.373657,144.768888 C262.373657,143.217015 261.639715,141.837156 260.498411,140.954866 C259.679938,140.324823 258.651726,139.949338 257.538696,139.949338 C256.68041,139.949338 255.872612,140.172147 255.17127,140.561775 L255.19435,140.550519 Z M45.0560091,172.539239 C49.1033671,185.274292 73.993075,189.538839 73.993075,189.538839 C53.2205419,211.869989 45.0560091,172.539239 45.0560091,172.539239 Z M105.154183,189.539128 C105.154183,189.539128 155.943924,183.664986 176.180136,166.160313 C176.180136,166.160313 146.705596,233.394465 105.154183,189.539128 Z"/>
  </g>
</svg>
