<svg xmlns="http://www.w3.org/2000/svg" width="300" height="300" style="background:#0583ff" viewBox="0 0 300 300">
  <path fill="#FFF" d="M99.3554678,189.001293 L107.371269,189.003482 L110.010351,198.020294 L124.386229,189.003482 L141.334392,189.003482 L141.334392,114.614783 L99.3554678,114.614783 L99.3554678,189.001293 Z M107.885944,122.69052 L132.80501,122.69052 L132.80501,180.927745 L123.245182,180.927745 L113.698495,186.916703 L111.960643,180.94197 L107.887039,180.928839 L107.887039,122.691614 L107.885944,122.69052 Z M92.2682734,148.652154 L74.3641282,148.652154 C74.960933,139.386942 75.1164308,131.012468 75.1164308,123.53311 L92.6230712,123.53311 C92.6230712,123.53311 93.2965298,115.818483 89.6883244,115.906025 L59.4045852,115.906025 C60.5981949,111.419505 62.0984199,106.78854 63.8943097,102 C63.8943097,102 55.6562128,102 52.8506825,109.375402 C51.6899245,112.417482 48.3302965,124.126206 42.3469173,136.086613 C44.3618181,135.867759 51.0274164,135.681732 54.9531877,128.492357 C55.6759238,126.478894 55.8128056,126.216268 56.7107505,123.524356 L66.5881444,123.524356 C66.5881444,127.113572 66.1785939,146.394668 66.0121456,148.637928 L48.1288064,148.637928 C44.1099555,148.637928 42.8035552,156.713665 42.8035552,156.713665 L65.2445122,156.713665 C63.7388119,173.763537 55.6573079,188.131346 41,199.489903 C48.0116356,201.490234 54.99918,199.172564 58.4518876,196.104221 C58.4518876,196.104221 66.3165708,188.958617 70.6288964,172.424147 L89.0948047,194.631329 C89.0948047,194.631329 91.8028751,185.437245 88.6699235,180.95729 C86.0746437,177.906456 79.0684834,169.653447 76.0811741,166.661704 L71.0767738,170.630633 C72.5693335,165.850847 73.4672784,161.20894 73.7706085,156.722419 L94.8657433,156.722419 C94.8657433,156.722419 94.8361768,148.646682 92.2682734,148.646682 L92.2682734,148.652154 Z M233.258763,148.102829 C240.387569,139.334417 248.648662,128.075439 248.648662,128.075439 C248.648662,128.075439 242.267778,123.014425 239.279374,126.685711 C237.227241,129.47392 226.675294,143.16875 226.675294,143.16875 L233.258763,148.103923 L233.258763,148.102829 Z M181.89741,127.900355 C178.815926,125.080413 173.031847,128.630235 173.031847,128.630235 C173.031847,128.630235 186.555773,147.451736 187.1033,148.275724 L193.761233,143.581291 C193.761233,143.581291 184.978894,130.721391 181.90179,127.900355 L181.89741,127.900355 Z M260,152.304838 C253.232562,152.304838 215.2035,152.624366 215.154223,152.624366 L215.154223,118.0891 C216.80009,118.0891 219.405225,117.95341 222.972914,117.677654 C236.960048,116.853666 246.969943,116.309812 253.00698,116.031867 C253.00698,116.031867 257.186804,106.734921 252.804395,104.596711 C251.753143,104.191829 244.876199,106.161521 244.876199,106.161521 C244.876199,106.161521 188.338522,111.800312 165.364273,112.333223 C165.911801,115.34904 167.970504,118.172265 170.762893,119.019233 C175.318321,120.208708 178.526831,119.599198 187.582934,119.322346 C196.080559,118.77521 202.530432,118.490699 206.921601,118.490699 L206.921601,152.621083 L161.246867,152.621083 C161.246867,152.621083 162.210516,160.248168 169.974454,160.434194 L206.910651,160.434194 L206.910651,184.683291 C206.910651,189.458699 203.080149,192.200948 198.533482,191.905495 C193.715241,191.9427 189.608785,191.511556 184.268203,191.286136 C184.950423,192.643035 186.433127,196.205989 190.876859,198.753457 C194.257293,200.397055 196.411266,201 199.779654,201 C209.894675,201 215.406085,195.090924 215.139987,185.50509 L215.139987,160.435289 L257.009405,160.435289 C260.323041,160.435289 259.987954,152.302649 259.987954,152.302649 L260,152.304838 Z"/>
</svg>
